<svg width="466" height="146" viewBox="0 0 466 146" fill="none" xmlns="http://www.w3.org/2000/svg">
<g filter="url(#filter0_d_7369_65725)">
<rect x="25" y="25" width="416" height="96" rx="8" fill="white"/>
</g>
<rect x="42.5" y="57.5" width="382" height="47" rx="7.5" fill="#F4F6FF" stroke="#C6D1FF"/>
<path d="M62.3619 69.1073C59.741 69.5046 57.2998 70.7194 55.4617 72.5559C53.8207 74.191 52.7074 76.2578 52.1566 78.6817C52.0058 79.3553 52 79.4474 52 80.9961C52 82.5448 52.0058 82.6369 52.1566 83.3105C52.9799 86.9491 55.0964 89.7932 58.2682 91.5261C59.9903 92.4588 62.0778 93 63.9971 93C64.8669 93 65.986 92.8618 66.7804 92.6603C67.4008 92.5049 68.7403 92.0443 69.0998 91.8658C69.7376 91.5492 70.5668 91.0656 70.8973 90.818C71.5699 90.3229 71.7149 90.202 72.3006 89.655C73.553 88.4921 74.5562 87.0182 75.2056 85.4004C75.8376 83.8114 76 82.9133 76 80.9961C76 79.0789 75.8376 78.1808 75.2056 76.5918C74.5562 74.974 73.553 73.5001 72.3006 72.3372C71.7149 71.7902 71.5699 71.6693 70.8973 71.1742C70.5668 70.9266 69.7376 70.443 69.0998 70.1264C68.7403 69.9479 67.4008 69.4873 66.7804 69.3319C65.4409 68.9922 63.7246 68.9058 62.3619 69.1073ZM65.3887 70.1436C66.6296 70.2818 67.2037 70.443 68.5953 71.0303C70.4392 71.8017 72.3527 73.5059 73.5124 75.4115C73.7676 75.8261 74.3184 77.0178 74.4576 77.4554C74.6084 77.9159 74.8403 78.8947 74.9389 79.4704C75.0317 80.0346 75.0317 81.9575 74.9389 82.5218C74.8403 83.0975 74.6084 84.0762 74.4576 84.5368C74.3184 84.9744 73.7676 86.1661 73.5124 86.5806C72.3527 88.4863 70.4392 90.1904 68.5953 90.9619C67.2037 91.5492 66.6296 91.7104 65.3887 91.8485C64.1595 91.9925 63.8347 91.9925 62.6055 91.8485C61.3414 91.7046 60.8659 91.5722 59.3293 90.9274C58.8886 90.7489 57.9261 90.1847 57.5028 89.868C56.0242 88.7569 54.8123 87.3118 54.0933 85.8034C53.4786 84.508 53.2931 83.9093 53.1249 82.7002C52.9741 81.6064 52.9741 80.3858 53.1249 79.2919C53.2931 78.0829 53.4786 77.4841 54.0933 76.1888C54.8123 74.6804 56.0242 73.2353 57.5028 72.1241C57.9261 71.8075 58.8886 71.2433 59.3293 71.0648C60.8311 70.4315 61.353 70.2876 62.5301 70.1436C63.7014 70.0055 64.2058 70.0055 65.3887 70.1436Z" fill="#5639E0"/>
<path d="M63.5737 74.0014C61.7298 74.2317 60.2685 75.0492 59.451 76.3043C59.0277 76.9549 58.9581 77.2082 58.9581 78.0891C58.9581 78.7512 58.9755 78.9181 59.0856 79.229C59.3582 79.9947 59.8858 80.6741 60.6223 81.2268C60.9818 81.4974 62.5532 82.2861 63.1388 82.4876C63.3881 82.574 63.968 82.8331 64.4319 83.0576C65.1277 83.403 65.3306 83.5355 65.6554 83.8463C66.096 84.2781 66.2526 84.543 66.3454 85.0381C66.5019 85.9247 65.9917 86.512 64.7218 86.9035C63.736 87.2086 62.3502 86.9956 61.0629 86.345C60.7556 86.1953 60.0134 85.6253 59.6017 85.2396L59.3292 84.9748L58.9987 85.2857C58.8131 85.4584 58.6566 85.6023 58.645 85.6081C58.4942 85.6656 59.5611 86.6098 60.228 87.0071C61.2485 87.6231 61.8399 87.8304 62.9764 87.9973C63.6839 88.0952 64.6986 88.0319 65.6206 87.8246C67.6384 87.3756 69.0765 86.1953 69.4186 84.7157C69.5288 84.2436 69.465 83.3339 69.2852 82.8561C68.7749 81.4628 67.6964 80.605 64.9885 79.4363C63.5737 78.8202 62.5995 78.1179 62.2864 77.4846C62.0951 77.1046 62.0545 76.3561 62.1994 76.0683C62.3502 75.7746 62.5705 75.5674 62.9533 75.3544C63.8578 74.8535 64.9653 74.8592 66.241 75.3659C66.8614 75.6134 67.4007 75.9819 68.0327 76.5922C68.2995 76.8455 68.5314 77.047 68.5546 77.0412C68.572 77.0297 68.7402 76.8858 68.9257 76.7188L69.2562 76.4195L68.9199 76.0568C68.2647 75.3544 67.708 74.9398 66.8382 74.5023C66.0612 74.1166 64.542 73.8863 63.5737 74.0014ZM61.1035 76.3043C61.0223 76.7994 61.1325 77.3637 61.4166 77.9682C61.6834 78.5151 62.0545 78.9124 62.7793 79.4075C63.1794 79.6838 64.658 80.4265 65.5046 80.7777C65.6959 80.8583 66.1888 81.1174 66.5947 81.3592C67.7486 82.0386 68.2879 82.7006 68.4386 83.6161C68.5604 84.3818 68.3633 85.0093 67.8124 85.5793C67.3253 86.0917 67.2789 86.1032 67.3543 85.7059C67.4297 85.2972 67.3311 84.6524 67.1224 84.1054C66.989 83.7715 66.8846 83.6276 66.5251 83.2706C66.0786 82.8273 65.6438 82.5164 65.1451 82.2631C64.6638 82.027 62.8895 81.2556 62.8141 81.2556C62.7155 81.2556 62.0893 80.9389 61.5384 80.605C61.0455 80.3056 60.5875 79.8911 60.3381 79.5284C60.1178 79.2002 59.9438 78.4287 59.9844 77.9164C60.0308 77.2543 60.199 76.8858 60.6744 76.3849C60.9006 76.1489 61.1035 75.9589 61.1209 75.9589C61.1441 75.9589 61.1383 76.1143 61.1035 76.3043Z" fill="#5639E0"/>
<path d="M88.1 70.9C88.1733 70.9 88.2233 70.9167 88.25 70.95C88.2833 70.9767 88.3 71.0267 88.3 71.1V71.38C88.3 71.4533 88.2833 71.5067 88.25 71.54C88.2233 71.5667 88.1733 71.58 88.1 71.58H86.08V77.8C86.08 77.8733 86.0633 77.9267 86.03 77.96C86.0033 77.9867 85.9533 78 85.88 78H85.55C85.4767 78 85.4233 77.9867 85.39 77.96C85.3633 77.9267 85.35 77.8733 85.35 77.8V71.58H83.33C83.2567 71.58 83.2033 71.5667 83.17 71.54C83.1433 71.5067 83.13 71.4533 83.13 71.38V71.1C83.13 71.0267 83.1433 70.9767 83.17 70.95C83.2033 70.9167 83.2567 70.9 83.33 70.9H88.1ZM87.7503 74.55C87.7503 73.9767 87.9436 73.5267 88.3303 73.2C88.7236 72.8733 89.2603 72.71 89.9403 72.71C90.627 72.71 91.167 72.8733 91.5603 73.2C91.9536 73.5267 92.1503 73.9767 92.1503 74.55V76.31C92.1503 76.8833 91.9536 77.3333 91.5603 77.66C91.167 77.98 90.627 78.14 89.9403 78.14C89.2603 78.14 88.7236 77.9767 88.3303 77.65C87.9436 77.3233 87.7503 76.8767 87.7503 76.31V74.55ZM91.4703 74.55C91.4703 74.17 91.3336 73.87 91.0603 73.65C90.787 73.43 90.4136 73.32 89.9403 73.32C89.4736 73.32 89.1036 73.43 88.8303 73.65C88.557 73.87 88.4203 74.17 88.4203 74.55V76.31C88.4203 76.69 88.557 76.99 88.8303 77.21C89.1103 77.4233 89.4803 77.53 89.9403 77.53C90.4136 77.53 90.787 77.4233 91.0603 77.21C91.3336 76.99 91.4703 76.69 91.4703 76.31V74.55ZM96.1514 71.66C96.2247 71.66 96.2714 71.6733 96.2914 71.7C96.318 71.7267 96.3314 71.7733 96.3314 71.84V72.86H97.7814C97.9014 72.86 97.9614 72.92 97.9614 73.04V73.3C97.9614 73.42 97.9014 73.48 97.7814 73.48H96.3314V76.08C96.3314 76.66 96.428 77.0433 96.6214 77.23C96.8214 77.41 97.2014 77.5 97.7614 77.5C97.8814 77.5 97.9414 77.5633 97.9414 77.69V77.96C97.9414 78.0267 97.928 78.0733 97.9014 78.1C97.8747 78.1267 97.828 78.14 97.7614 78.14C96.9814 78.1533 96.4347 78.0167 96.1214 77.73C95.8147 77.4367 95.6614 76.8933 95.6614 76.1V73.48H94.7114C94.5914 73.48 94.5314 73.42 94.5314 73.3V73.04C94.5314 72.92 94.5914 72.86 94.7114 72.86H95.6614V71.84C95.6614 71.72 95.7214 71.66 95.8414 71.66H96.1514ZM98.4211 74.55C98.4211 73.9767 98.6144 73.5267 99.0011 73.2C99.3944 72.8733 99.9311 72.71 100.611 72.71C101.298 72.71 101.838 72.8733 102.231 73.2C102.624 73.5267 102.821 73.9767 102.821 74.55V76.31C102.821 76.8833 102.624 77.3333 102.231 77.66C101.838 77.98 101.298 78.14 100.611 78.14C99.9311 78.14 99.3944 77.9767 99.0011 77.65C98.6144 77.3233 98.4211 76.8767 98.4211 76.31V74.55ZM102.141 74.55C102.141 74.17 102.004 73.87 101.731 73.65C101.458 73.43 101.084 73.32 100.611 73.32C100.144 73.32 99.7744 73.43 99.5011 73.65C99.2278 73.87 99.0911 74.17 99.0911 74.55V76.31C99.0911 76.69 99.2278 76.99 99.5011 77.21C99.7811 77.4233 100.151 77.53 100.611 77.53C101.084 77.53 101.458 77.4233 101.731 77.21C102.004 76.99 102.141 76.69 102.141 76.31V74.55ZM107.988 77.79C108.028 77.8633 108.038 77.9167 108.018 77.95C108.004 77.9833 107.958 78 107.878 78H107.578C107.478 78 107.408 77.99 107.368 77.97C107.334 77.95 107.301 77.9067 107.268 77.84L106.508 76.28C106.408 76.0667 106.281 75.9133 106.128 75.82C105.981 75.72 105.784 75.67 105.538 75.67H104.498V77.81C104.498 77.8833 104.484 77.9333 104.458 77.96C104.431 77.9867 104.381 78 104.308 78H104.018C103.944 78 103.894 77.9867 103.868 77.96C103.841 77.9333 103.828 77.8833 103.828 77.81V70.78C103.828 70.7067 103.841 70.66 103.868 70.64C103.894 70.6133 103.944 70.6 104.018 70.6H104.308C104.381 70.6 104.431 70.6133 104.458 70.64C104.484 70.66 104.498 70.7067 104.498 70.78V75.05H105.458H105.548L107.158 73C107.204 72.9333 107.248 72.8933 107.288 72.88C107.328 72.8667 107.401 72.86 107.508 72.86H107.788C107.968 72.86 108.008 72.93 107.908 73.07L106.218 75.18C106.578 75.2733 106.868 75.5433 107.088 75.99L107.988 77.79ZM108.493 74.82C108.493 74.1533 108.68 73.6367 109.053 73.27C109.433 72.8967 109.983 72.71 110.703 72.71C111.43 72.71 111.98 72.9 112.353 73.28C112.733 73.6533 112.923 74.1533 112.923 74.78V75.33C112.923 75.5167 112.823 75.61 112.623 75.61H109.163V76.19C109.163 76.6233 109.29 76.96 109.543 77.2C109.803 77.44 110.177 77.56 110.663 77.56C111.403 77.56 111.927 77.2833 112.233 76.73C112.313 76.6233 112.41 76.6 112.523 76.66L112.733 76.77C112.86 76.8367 112.883 76.9333 112.803 77.06C112.403 77.78 111.69 78.14 110.663 78.14C109.937 78.14 109.393 77.96 109.033 77.6C108.673 77.24 108.493 76.7467 108.493 76.12V74.82ZM112.253 74.74C112.253 74.2867 112.12 73.9333 111.853 73.68C111.593 73.42 111.21 73.29 110.703 73.29C110.203 73.29 109.82 73.42 109.553 73.68C109.293 73.9333 109.163 74.2867 109.163 74.74V75.09H112.253V74.74ZM114.192 73.05C114.745 72.8233 115.365 72.71 116.052 72.71C117.379 72.71 118.042 73.3633 118.042 74.67V77.82C118.042 77.94 117.982 78 117.862 78H117.552C117.485 78 117.439 77.9867 117.412 77.96C117.385 77.9333 117.372 77.8867 117.372 77.82V74.69C117.372 73.7833 116.905 73.33 115.972 73.33C115.499 73.33 115.055 73.4033 114.642 73.55C114.542 73.5967 114.492 73.68 114.492 73.8V77.82C114.492 77.94 114.432 78 114.312 78H113.992C113.872 78 113.812 77.94 113.812 77.82V73.6C113.812 73.4467 113.835 73.3333 113.882 73.26C113.935 73.1867 114.039 73.1167 114.192 73.05Z" fill="#59779A"/>
<path d="M83.516 84.928C83.516 84.144 83.8 83.512 84.368 83.032C84.944 82.544 85.756 82.3 86.804 82.3C87.636 82.3 88.296 82.448 88.784 82.744C89.272 83.04 89.664 83.496 89.96 84.112C90.08 84.36 90.004 84.544 89.732 84.664L89.072 84.952C88.936 85.008 88.832 85.024 88.76 85C88.696 84.968 88.628 84.884 88.556 84.748C88.388 84.412 88.168 84.16 87.896 83.992C87.624 83.824 87.26 83.74 86.804 83.74C85.644 83.74 85.064 84.108 85.064 84.844C85.064 85.052 85.116 85.228 85.22 85.372C85.324 85.508 85.484 85.616 85.7 85.696C85.924 85.776 86.136 85.836 86.336 85.876C86.536 85.908 86.804 85.944 87.14 85.984C87.476 86.024 87.764 86.068 88.004 86.116C88.252 86.164 88.52 86.248 88.808 86.368C89.104 86.48 89.344 86.62 89.528 86.788C89.712 86.956 89.868 87.188 89.996 87.484C90.124 87.772 90.188 88.108 90.188 88.492C90.188 89.308 89.888 89.96 89.288 90.448C88.688 90.936 87.848 91.18 86.768 91.18C85.864 91.18 85.152 91.016 84.632 90.688C84.112 90.352 83.724 89.848 83.468 89.176C83.412 89.024 83.404 88.912 83.444 88.84C83.484 88.76 83.576 88.696 83.72 88.648L84.38 88.408C84.516 88.36 84.62 88.356 84.692 88.396C84.764 88.428 84.832 88.516 84.896 88.66C85.208 89.404 85.832 89.776 86.768 89.776C88.04 89.776 88.676 89.36 88.676 88.528C88.676 88.264 88.58 88.052 88.388 87.892C88.196 87.732 87.98 87.624 87.74 87.568C87.5 87.504 87.18 87.452 86.78 87.412C86.508 87.38 86.288 87.356 86.12 87.34C85.96 87.316 85.752 87.276 85.496 87.22C85.24 87.164 85.032 87.1 84.872 87.028C84.712 86.956 84.536 86.86 84.344 86.74C84.152 86.612 84.004 86.468 83.9 86.308C83.796 86.148 83.704 85.952 83.624 85.72C83.552 85.48 83.516 85.216 83.516 84.928ZM90.822 87.196C90.822 86.356 91.058 85.716 91.53 85.276C92.01 84.828 92.702 84.604 93.606 84.604C94.518 84.604 95.206 84.836 95.67 85.3C96.142 85.764 96.378 86.36 96.378 87.088V87.82C96.378 88.164 96.198 88.336 95.838 88.336H92.214V88.78C92.214 89.172 92.33 89.472 92.562 89.68C92.802 89.88 93.142 89.98 93.582 89.98C94.254 89.98 94.726 89.768 94.998 89.344C95.094 89.208 95.182 89.132 95.262 89.116C95.35 89.092 95.466 89.12 95.61 89.2L96.03 89.428C96.302 89.556 96.35 89.756 96.174 90.028C95.702 90.796 94.838 91.18 93.582 91.18C92.646 91.18 91.95 90.948 91.494 90.484C91.046 90.02 90.822 89.396 90.822 88.612V87.196ZM94.986 87.004C94.986 86.612 94.87 86.312 94.638 86.104C94.406 85.888 94.062 85.78 93.606 85.78C93.158 85.78 92.814 85.888 92.574 86.104C92.334 86.312 92.214 86.612 92.214 87.004V87.268H94.986V87.004ZM97.0393 87.064C97.0393 86.28 97.2673 85.676 97.7233 85.252C98.1873 84.82 98.8793 84.604 99.7993 84.604C100.479 84.604 101.035 84.748 101.467 85.036C101.907 85.324 102.207 85.704 102.367 86.176C102.415 86.328 102.419 86.444 102.379 86.524C102.339 86.596 102.247 86.66 102.103 86.716L101.575 86.884C101.431 86.94 101.319 86.948 101.239 86.908C101.167 86.868 101.103 86.776 101.047 86.632C100.839 86.096 100.403 85.828 99.7393 85.828C98.8673 85.828 98.4313 86.22 98.4313 87.004V88.78C98.4313 89.156 98.5433 89.448 98.7673 89.656C98.9913 89.856 99.3153 89.956 99.7393 89.956C100.403 89.956 100.839 89.68 101.047 89.128C101.103 88.984 101.167 88.896 101.239 88.864C101.319 88.832 101.431 88.84 101.575 88.888L102.115 89.044C102.387 89.148 102.471 89.328 102.367 89.584C101.951 90.648 101.059 91.18 99.6913 91.18C98.8033 91.18 98.1393 90.968 97.6993 90.544C97.2593 90.112 97.0393 89.504 97.0393 88.72V87.064ZM105.879 84.604H106.263C106.399 84.604 106.495 84.632 106.551 84.688C106.607 84.736 106.635 84.832 106.635 84.976V85.504C106.635 85.64 106.607 85.736 106.551 85.792C106.495 85.848 106.399 85.876 106.263 85.876H105.831C105.383 85.876 105.003 85.924 104.691 86.02C104.611 86.036 104.571 86.084 104.571 86.164V90.628C104.571 90.764 104.543 90.86 104.487 90.916C104.439 90.972 104.347 91 104.211 91H103.551C103.415 91 103.319 90.972 103.263 90.916C103.207 90.86 103.179 90.764 103.179 90.628V85.648C103.179 85.456 103.207 85.316 103.263 85.228C103.327 85.132 103.455 85.044 103.647 84.964C104.231 84.748 104.975 84.628 105.879 84.604ZM106.825 87.196C106.825 86.356 107.061 85.716 107.533 85.276C108.013 84.828 108.705 84.604 109.609 84.604C110.521 84.604 111.209 84.836 111.673 85.3C112.145 85.764 112.381 86.36 112.381 87.088V87.82C112.381 88.164 112.201 88.336 111.841 88.336H108.217V88.78C108.217 89.172 108.333 89.472 108.565 89.68C108.805 89.88 109.145 89.98 109.585 89.98C110.257 89.98 110.729 89.768 111.001 89.344C111.097 89.208 111.185 89.132 111.265 89.116C111.353 89.092 111.469 89.12 111.613 89.2L112.033 89.428C112.305 89.556 112.353 89.756 112.177 90.028C111.705 90.796 110.841 91.18 109.585 91.18C108.649 91.18 107.953 90.948 107.497 90.484C107.049 90.02 106.825 89.396 106.825 88.612V87.196ZM110.989 87.004C110.989 86.612 110.873 86.312 110.641 86.104C110.409 85.888 110.065 85.78 109.609 85.78C109.161 85.78 108.817 85.888 108.577 86.104C108.337 86.312 108.217 86.612 108.217 87.004V87.268H110.989V87.004ZM114.854 83.344C114.99 83.344 115.086 83.372 115.142 83.428C115.198 83.476 115.226 83.568 115.226 83.704V84.784H116.594C116.73 84.784 116.826 84.812 116.882 84.868C116.938 84.916 116.966 85.008 116.966 85.144V85.696C116.966 85.832 116.938 85.928 116.882 85.984C116.826 86.04 116.73 86.068 116.594 86.068H115.226V88.48C115.226 89.048 115.318 89.42 115.502 89.596C115.694 89.772 116.054 89.86 116.582 89.86C116.726 89.86 116.826 89.888 116.882 89.944C116.938 89.992 116.966 90.088 116.966 90.232V90.784C116.966 90.928 116.938 91.024 116.882 91.072C116.826 91.128 116.726 91.16 116.582 91.168C115.574 91.2 114.862 91.024 114.446 90.64C114.038 90.256 113.834 89.552 113.834 88.528V86.068H113.006C112.87 86.068 112.774 86.04 112.718 85.984C112.67 85.928 112.646 85.832 112.646 85.696V85.144C112.646 85.008 112.67 84.916 112.718 84.868C112.774 84.812 112.87 84.784 113.006 84.784H113.834V83.704C113.834 83.568 113.862 83.476 113.918 83.428C113.974 83.372 114.07 83.344 114.206 83.344H114.854Z" fill="#292929"/>
<path d="M347.587 77.81C347.641 77.9367 347.594 78 347.447 78H347.157C346.951 78 346.831 77.94 346.797 77.82L346.047 75.92H342.917L342.167 77.82C342.147 77.8933 342.114 77.9433 342.067 77.97C342.021 77.99 341.937 78 341.817 78H341.547C341.407 78 341.364 77.9367 341.417 77.81L344.097 71.04C344.137 70.9267 344.221 70.87 344.347 70.87H344.647C344.781 70.87 344.867 70.9233 344.907 71.03L347.587 77.81ZM344.647 72.25C344.554 71.9833 344.507 71.7533 344.507 71.56H344.457C344.457 71.7733 344.417 72.0033 344.337 72.25L343.127 75.32H345.847L344.647 72.25ZM351.46 73.14C352.093 72.8533 352.696 72.71 353.27 72.71C354.49 72.71 355.1 73.3433 355.1 74.61V77.82C355.1 77.8867 355.086 77.9333 355.06 77.96C355.04 77.9867 354.993 78 354.92 78H354.61C354.543 78 354.496 77.9867 354.47 77.96C354.443 77.9333 354.43 77.8867 354.43 77.82V74.64C354.43 73.7667 354.016 73.33 353.19 73.33C352.716 73.33 352.263 73.4433 351.83 73.67C351.956 73.9167 352.02 74.23 352.02 74.61V77.82C352.02 77.8867 352.006 77.9333 351.98 77.96C351.96 77.9867 351.913 78 351.84 78H351.53C351.463 78 351.416 77.9867 351.39 77.96C351.363 77.9333 351.35 77.8867 351.35 77.82V74.64C351.35 73.7667 350.926 73.33 350.08 73.33C349.686 73.33 349.336 73.3967 349.03 73.53C348.923 73.5767 348.87 73.6667 348.87 73.8V77.82C348.87 77.94 348.81 78 348.69 78H348.37C348.25 78 348.19 77.94 348.19 77.82V73.6C348.19 73.4467 348.216 73.33 348.27 73.25C348.323 73.17 348.423 73.0967 348.57 73.03C349.05 72.8167 349.583 72.71 350.17 72.71C350.73 72.71 351.16 72.8533 351.46 73.14ZM356.069 74.55C356.069 73.9767 356.263 73.5267 356.649 73.2C357.043 72.8733 357.579 72.71 358.259 72.71C358.946 72.71 359.486 72.8733 359.879 73.2C360.273 73.5267 360.469 73.9767 360.469 74.55V76.31C360.469 76.8833 360.273 77.3333 359.879 77.66C359.486 77.98 358.946 78.14 358.259 78.14C357.579 78.14 357.043 77.9767 356.649 77.65C356.263 77.3233 356.069 76.8767 356.069 76.31V74.55ZM359.789 74.55C359.789 74.17 359.653 73.87 359.379 73.65C359.106 73.43 358.733 73.32 358.259 73.32C357.793 73.32 357.423 73.43 357.149 73.65C356.876 73.87 356.739 74.17 356.739 74.55V76.31C356.739 76.69 356.876 76.99 357.149 77.21C357.429 77.4233 357.799 77.53 358.259 77.53C358.733 77.53 359.106 77.4233 359.379 77.21C359.653 76.99 359.789 76.69 359.789 76.31V74.55ZM365.476 72.86C365.596 72.86 365.656 72.92 365.656 73.04V77.26C365.656 77.4133 365.629 77.5267 365.576 77.6C365.529 77.6733 365.429 77.7433 365.276 77.81C364.743 78.03 364.119 78.14 363.406 78.14C362.086 78.14 361.426 77.49 361.426 76.19V73.04C361.426 72.9733 361.439 72.9267 361.466 72.9C361.493 72.8733 361.539 72.86 361.606 72.86H361.916C361.989 72.86 362.036 72.8733 362.056 72.9C362.083 72.9267 362.096 72.9733 362.096 73.04V76.16C362.096 77.0733 362.563 77.53 363.496 77.53C363.996 77.53 364.429 77.4567 364.796 77.31C364.916 77.2567 364.976 77.1633 364.976 77.03V73.04C364.976 72.92 365.036 72.86 365.156 72.86H365.476ZM367.16 73.05C367.714 72.8233 368.334 72.71 369.02 72.71C370.347 72.71 371.01 73.3633 371.01 74.67V77.82C371.01 77.94 370.95 78 370.83 78H370.52C370.454 78 370.407 77.9867 370.38 77.96C370.354 77.9333 370.34 77.8867 370.34 77.82V74.69C370.34 73.7833 369.874 73.33 368.94 73.33C368.467 73.33 368.024 73.4033 367.61 73.55C367.51 73.5967 367.46 73.68 367.46 73.8V77.82C367.46 77.94 367.4 78 367.28 78H366.96C366.84 78 366.78 77.94 366.78 77.82V73.6C366.78 73.4467 366.804 73.3333 366.85 73.26C366.904 73.1867 367.007 73.1167 367.16 73.05ZM373.076 71.66C373.15 71.66 373.196 71.6733 373.216 71.7C373.243 71.7267 373.256 71.7733 373.256 71.84V72.86H374.706C374.826 72.86 374.886 72.92 374.886 73.04V73.3C374.886 73.42 374.826 73.48 374.706 73.48H373.256V76.08C373.256 76.66 373.353 77.0433 373.546 77.23C373.746 77.41 374.126 77.5 374.686 77.5C374.806 77.5 374.866 77.5633 374.866 77.69V77.96C374.866 78.0267 374.853 78.0733 374.826 78.1C374.8 78.1267 374.753 78.14 374.686 78.14C373.906 78.1533 373.36 78.0167 373.046 77.73C372.74 77.4367 372.586 76.8933 372.586 76.1V73.48H371.636C371.516 73.48 371.456 73.42 371.456 73.3V73.04C371.456 72.92 371.516 72.86 371.636 72.86H372.586V71.84C372.586 71.72 372.646 71.66 372.766 71.66H373.076Z" fill="#59779A"/>
<path d="M331.399 84.28C331.943 82.96 332.995 82.3 334.555 82.3C335.435 82.3 336.139 82.564 336.667 83.092C337.203 83.612 337.471 84.24 337.471 84.976C337.471 85.84 337.231 86.504 336.751 86.968C336.271 87.432 335.395 87.916 334.123 88.42C334.107 88.428 334.047 88.452 333.943 88.492C333.847 88.524 333.787 88.548 333.763 88.564C333.739 88.572 333.679 88.596 333.583 88.636C333.495 88.668 333.435 88.696 333.403 88.72C333.371 88.744 333.319 88.776 333.247 88.816C333.183 88.856 333.135 88.896 333.103 88.936C333.079 88.968 333.047 89.008 333.007 89.056C332.967 89.104 332.939 89.156 332.923 89.212C332.915 89.268 332.911 89.324 332.911 89.38V89.596H336.919C337.071 89.596 337.175 89.628 337.231 89.692C337.295 89.748 337.327 89.852 337.327 90.004V90.592C337.327 90.744 337.295 90.852 337.231 90.916C337.175 90.972 337.071 91 336.919 91H331.747C331.595 91 331.487 90.972 331.423 90.916C331.367 90.852 331.339 90.744 331.339 90.592V89.692C331.339 89.3 331.399 88.96 331.519 88.672C331.647 88.376 331.839 88.128 332.095 87.928C332.351 87.72 332.591 87.556 332.815 87.436C333.039 87.316 333.335 87.184 333.703 87.04C334.487 86.736 335.003 86.488 335.251 86.296C335.675 85.976 335.887 85.56 335.887 85.048C335.887 84.672 335.755 84.356 335.491 84.1C335.235 83.836 334.903 83.704 334.495 83.704C333.703 83.704 333.151 84.06 332.839 84.772C332.775 84.924 332.707 85.02 332.635 85.06C332.563 85.092 332.455 85.084 332.311 85.036L331.663 84.796C331.391 84.692 331.303 84.52 331.399 84.28ZM338.355 85.192C338.355 84.304 338.635 83.6 339.195 83.08C339.755 82.56 340.535 82.3 341.535 82.3C342.535 82.3 343.311 82.56 343.863 83.08C344.423 83.6 344.703 84.304 344.703 85.192V88.276C344.703 89.172 344.423 89.88 343.863 90.4C343.311 90.92 342.535 91.18 341.535 91.18C340.535 91.18 339.755 90.92 339.195 90.4C338.635 89.88 338.355 89.172 338.355 88.276V85.192ZM343.203 85.192C343.203 84.72 343.055 84.356 342.759 84.1C342.471 83.836 342.063 83.704 341.535 83.704C341.007 83.704 340.595 83.836 340.299 84.1C340.011 84.356 339.867 84.72 339.867 85.192V88.276C339.867 88.748 340.011 89.116 340.299 89.38C340.595 89.644 341.007 89.776 341.535 89.776C342.063 89.776 342.471 89.644 342.759 89.38C343.055 89.116 343.203 88.748 343.203 88.276V85.192Z" fill="#5639E0"/>
<path d="M348.106 84.772C348.106 84.02 348.378 83.424 348.922 82.984C349.466 82.536 350.226 82.312 351.202 82.312C352.018 82.312 352.67 82.46 353.158 82.756C353.646 83.052 354.046 83.52 354.358 84.16C354.43 84.296 354.386 84.4 354.226 84.472L353.854 84.64C353.774 84.672 353.714 84.684 353.674 84.676C353.634 84.66 353.59 84.612 353.542 84.532C353.302 84.052 352.998 83.7 352.63 83.476C352.27 83.252 351.794 83.14 351.202 83.14C350.49 83.14 349.942 83.276 349.558 83.548C349.182 83.82 348.994 84.212 348.994 84.724C348.994 84.964 349.042 85.172 349.138 85.348C349.234 85.524 349.35 85.664 349.486 85.768C349.63 85.872 349.822 85.964 350.062 86.044C350.31 86.116 350.53 86.168 350.722 86.2C350.914 86.232 351.166 86.264 351.478 86.296C351.83 86.336 352.122 86.38 352.354 86.428C352.586 86.468 352.85 86.544 353.146 86.656C353.442 86.76 353.678 86.892 353.854 87.052C354.03 87.204 354.178 87.416 354.298 87.688C354.426 87.96 354.49 88.28 354.49 88.648C354.49 89.44 354.21 90.06 353.65 90.508C353.09 90.948 352.282 91.168 351.226 91.168C350.37 91.168 349.682 91 349.162 90.664C348.65 90.328 348.254 89.808 347.974 89.104C347.926 88.952 347.974 88.844 348.118 88.78L348.49 88.648C348.626 88.6 348.73 88.648 348.802 88.792C349.242 89.832 350.05 90.352 351.226 90.352C352.818 90.352 353.614 89.792 353.614 88.672C353.614 88.432 353.566 88.228 353.47 88.06C353.382 87.884 353.274 87.744 353.146 87.64C353.018 87.536 352.838 87.448 352.606 87.376C352.382 87.304 352.178 87.256 351.994 87.232C351.81 87.2 351.57 87.168 351.274 87.136C350.898 87.096 350.594 87.056 350.362 87.016C350.13 86.976 349.854 86.904 349.534 86.8C349.214 86.688 348.962 86.556 348.778 86.404C348.594 86.244 348.434 86.028 348.298 85.756C348.17 85.476 348.106 85.148 348.106 84.772ZM355.437 85.324C355.437 84.38 355.717 83.644 356.277 83.116C356.845 82.58 357.661 82.312 358.725 82.312C359.621 82.312 360.321 82.484 360.825 82.828C361.337 83.164 361.701 83.676 361.917 84.364C361.949 84.452 361.953 84.52 361.929 84.568C361.913 84.608 361.861 84.644 361.773 84.676L361.401 84.808C361.249 84.848 361.145 84.8 361.089 84.664C360.921 84.128 360.653 83.736 360.285 83.488C359.925 83.24 359.405 83.116 358.725 83.116C357.941 83.116 357.341 83.308 356.925 83.692C356.517 84.076 356.313 84.616 356.313 85.312V88.168C356.313 88.856 356.521 89.396 356.937 89.788C357.353 90.172 357.949 90.364 358.725 90.364C359.413 90.364 359.941 90.236 360.309 89.98C360.677 89.724 360.945 89.324 361.113 88.78C361.177 88.636 361.281 88.584 361.425 88.624L361.797 88.768C361.941 88.824 361.989 88.924 361.941 89.068C361.725 89.764 361.361 90.288 360.849 90.64C360.337 90.992 359.629 91.168 358.725 91.168C357.677 91.168 356.865 90.904 356.289 90.376C355.721 89.84 355.437 89.1 355.437 88.156V85.324ZM366.714 82.48C367.506 82.48 368.122 82.7 368.562 83.14C369.01 83.572 369.234 84.18 369.234 84.964C369.234 85.62 369.062 86.152 368.718 86.56C368.382 86.968 367.91 87.22 367.302 87.316C367.614 87.46 367.874 87.736 368.082 88.144L369.426 90.76C369.53 90.92 369.49 91 369.306 91H368.91C368.662 91 368.506 90.928 368.442 90.784L367.278 88.468C367.086 88.084 366.866 87.816 366.618 87.664C366.378 87.504 366.026 87.424 365.562 87.424H363.942V90.76C363.942 90.848 363.926 90.912 363.894 90.952C363.862 90.984 363.802 91 363.714 91H363.318C363.23 91 363.166 90.984 363.126 90.952C363.094 90.912 363.078 90.848 363.078 90.76V82.72C363.078 82.632 363.094 82.572 363.126 82.54C363.166 82.5 363.23 82.48 363.318 82.48H366.714ZM368.334 84.964C368.334 84.428 368.186 84.016 367.89 83.728C367.594 83.44 367.174 83.296 366.63 83.296H363.942V86.608H366.63C367.166 86.608 367.582 86.468 367.878 86.188C368.182 85.9 368.334 85.492 368.334 84.964ZM375.604 82.48C375.692 82.48 375.752 82.5 375.784 82.54C375.824 82.572 375.844 82.632 375.844 82.72V83.056C375.844 83.144 375.824 83.208 375.784 83.248C375.752 83.28 375.692 83.296 375.604 83.296H373.18V90.76C373.18 90.848 373.16 90.912 373.12 90.952C373.088 90.984 373.028 91 372.94 91H372.544C372.456 91 372.392 90.984 372.352 90.952C372.32 90.912 372.304 90.848 372.304 90.76V83.296H369.88C369.792 83.296 369.728 83.28 369.688 83.248C369.656 83.208 369.64 83.144 369.64 83.056V82.72C369.64 82.632 369.656 82.572 369.688 82.54C369.728 82.5 369.792 82.48 369.88 82.48H375.604Z" fill="#292929"/>
<path fill-rule="evenodd" clip-rule="evenodd" d="M122.183 85.3253C122.47 84.9515 122.995 84.8909 123.354 85.1899L127 88.2235L130.646 85.1899C131.005 84.8909 131.53 84.9515 131.817 85.3253C132.105 85.6991 132.047 86.2444 131.687 86.5434L127.521 90.0101C127.216 90.2633 126.784 90.2633 126.479 90.0101L122.313 86.5434C121.953 86.2444 121.895 85.6991 122.183 85.3253Z" fill="#A8C3E1"/>
<path d="M381 73C381 70.7909 382.791 69 385 69H410C412.209 69 414 70.7909 414 73V89C414 91.2091 412.209 93 410 93H385C382.791 93 381 91.2091 381 89V73Z" fill="#C6D1FF"/>
<path d="M393.499 76.48C393.651 76.48 393.755 76.512 393.811 76.576C393.875 76.632 393.907 76.736 393.907 76.888V84.592C393.907 84.744 393.875 84.852 393.811 84.916C393.755 84.972 393.651 85 393.499 85H392.887C392.735 85 392.627 84.972 392.563 84.916C392.507 84.852 392.479 84.744 392.479 84.592V80.932C392.479 80.212 392.575 79.416 392.767 78.544H392.683C392.451 79.24 392.123 79.972 391.699 80.74L390.523 82.816C390.403 83.008 390.247 83.104 390.055 83.104H389.671C389.543 83.104 389.447 83.088 389.383 83.056C389.327 83.016 389.267 82.936 389.203 82.816L388.003 80.728C387.635 80.104 387.327 79.376 387.079 78.544H386.995C387.163 79.36 387.247 80.16 387.247 80.944V84.592C387.247 84.744 387.215 84.852 387.151 84.916C387.095 84.972 386.991 85 386.839 85H386.263C386.111 85 386.003 84.972 385.939 84.916C385.875 84.852 385.843 84.744 385.843 84.592V76.888C385.843 76.736 385.875 76.632 385.939 76.576C386.003 76.512 386.111 76.48 386.263 76.48H386.791C386.959 76.48 387.079 76.5 387.151 76.54C387.231 76.58 387.303 76.664 387.367 76.792L389.863 81.256L392.359 76.804C392.431 76.668 392.499 76.58 392.563 76.54C392.635 76.5 392.751 76.48 392.911 76.48H393.499ZM402.352 84.604C402.448 84.868 402.356 85 402.076 85H401.452C401.204 85 401.028 84.976 400.924 84.928C400.828 84.88 400.756 84.784 400.708 84.64L400.156 83.092H396.844L396.28 84.64C396.232 84.784 396.156 84.88 396.052 84.928C395.956 84.976 395.784 85 395.536 85H394.984C394.704 85 394.612 84.868 394.708 84.604L397.708 76.804C397.764 76.668 397.824 76.58 397.888 76.54C397.96 76.492 398.068 76.468 398.212 76.468H398.848C398.992 76.468 399.1 76.492 399.172 76.54C399.244 76.58 399.304 76.664 399.352 76.792L402.352 84.604ZM398.824 79.324C398.752 79.108 398.692 78.88 398.644 78.64C398.596 78.392 398.564 78.2 398.548 78.064L398.536 77.86H398.452C398.452 78.316 398.364 78.8 398.188 79.312L397.264 81.856H399.736L398.824 79.324ZM409.772 84.58C409.86 84.684 409.884 84.78 409.844 84.868C409.812 84.956 409.724 85 409.58 85H408.74C408.492 85 408.32 84.98 408.224 84.94C408.128 84.9 408.032 84.8 407.936 84.64L406.1 81.82L404.336 84.64C404.224 84.8 404.124 84.9 404.036 84.94C403.948 84.98 403.784 85 403.544 85H402.764C402.612 85 402.52 84.96 402.488 84.88C402.456 84.792 402.48 84.692 402.56 84.58L405.2 80.656L402.656 76.864C402.576 76.768 402.552 76.68 402.584 76.6C402.624 76.52 402.716 76.48 402.86 76.48H403.664C403.904 76.48 404.068 76.5 404.156 76.54C404.244 76.58 404.344 76.672 404.456 76.816L406.172 79.468L407.888 76.816C408 76.672 408.096 76.58 408.176 76.54C408.264 76.5 408.42 76.48 408.644 76.48H409.472C409.608 76.48 409.692 76.52 409.724 76.6C409.764 76.68 409.744 76.768 409.664 76.864L407.096 80.644L409.772 84.58Z" fill="#5639E0"/>
<path d="M42.52 44.16C42.52 43.42 42.7533 42.8333 43.22 42.4C43.6867 41.9667 44.3367 41.75 45.17 41.75C46.0033 41.75 46.65 41.9667 47.11 42.4C47.5767 42.8333 47.81 43.42 47.81 44.16V46.73C47.81 47.4767 47.5767 48.0667 47.11 48.5C46.65 48.9333 46.0033 49.15 45.17 49.15C44.3367 49.15 43.6867 48.9333 43.22 48.5C42.7533 48.0667 42.52 47.4767 42.52 46.73V44.16ZM46.56 44.16C46.56 43.7667 46.4367 43.4633 46.19 43.25C45.95 43.03 45.61 42.92 45.17 42.92C44.73 42.92 44.3867 43.03 44.14 43.25C43.9 43.4633 43.78 43.7667 43.78 44.16V46.73C43.78 47.1233 43.9 47.43 44.14 47.65C44.3867 47.87 44.73 47.98 45.17 47.98C45.61 47.98 45.95 47.87 46.19 47.65C46.4367 47.43 46.56 47.1233 46.56 46.73V44.16ZM56.2454 46.24C56.3721 46.24 56.4587 46.2667 56.5054 46.32C56.5587 46.3667 56.5854 46.4533 56.5854 46.58V47.01C56.5854 47.1367 56.5621 47.2267 56.5154 47.28C56.4687 47.3267 56.3787 47.35 56.2454 47.35H55.5554V48.66C55.5554 48.7867 55.5287 48.8767 55.4754 48.93C55.4287 48.9767 55.3421 49 55.2154 49H54.7254C54.5987 49 54.5087 48.9767 54.4554 48.93C54.4087 48.8767 54.3854 48.7867 54.3854 48.66V47.35H51.0854C50.9587 47.35 50.8687 47.3267 50.8154 47.28C50.7687 47.2267 50.7454 47.1367 50.7454 47.01V46.65C50.7454 46.4833 50.7854 46.3467 50.8654 46.24L54.1854 42.12C54.3187 41.96 54.4787 41.88 54.6654 41.88H55.2154C55.3421 41.88 55.4287 41.9033 55.4754 41.95C55.5287 41.9967 55.5554 42.0867 55.5554 42.22V46.24H56.2454ZM54.3854 43.56L52.2154 46.24H54.3854V43.56ZM61.794 41.9C61.9207 41.9 62.0073 41.9267 62.054 41.98C62.1073 42.0267 62.134 42.1133 62.134 42.24V42.73C62.134 42.8567 62.1073 42.9467 62.054 43C62.0073 43.0467 61.9207 43.07 61.794 43.07H58.934L58.784 44.54H59.994C60.7807 44.54 61.3807 44.7533 61.794 45.18C62.214 45.6 62.424 46.1367 62.424 46.79C62.424 47.4567 62.1973 48.0167 61.744 48.47C61.2973 48.9233 60.6873 49.15 59.914 49.15C58.5007 49.15 57.5973 48.6067 57.204 47.52C57.124 47.3067 57.194 47.16 57.414 47.08L57.964 46.89C58.084 46.8433 58.174 46.8367 58.234 46.87C58.294 46.8967 58.3473 46.9733 58.394 47.1C58.614 47.6867 59.1173 47.98 59.904 47.98C60.264 47.98 60.554 47.8767 60.774 47.67C60.994 47.4567 61.104 47.1633 61.104 46.79C61.104 46.4567 60.994 46.1933 60.774 46C60.5607 45.8 60.2773 45.7 59.924 45.7H57.814C57.6673 45.7 57.5673 45.67 57.514 45.61C57.4607 45.5433 57.4407 45.44 57.454 45.3L57.754 42.39C57.774 42.2033 57.824 42.0767 57.904 42.01C57.984 41.9367 58.1173 41.9 58.304 41.9H61.794ZM63.311 44.16C63.311 43.42 63.5443 42.8333 64.011 42.4C64.4777 41.9667 65.1277 41.75 65.961 41.75C66.7943 41.75 67.441 41.9667 67.901 42.4C68.3677 42.8333 68.601 43.42 68.601 44.16V46.73C68.601 47.4767 68.3677 48.0667 67.901 48.5C67.441 48.9333 66.7943 49.15 65.961 49.15C65.1277 49.15 64.4777 48.9333 64.011 48.5C63.5443 48.0667 63.311 47.4767 63.311 46.73V44.16ZM67.351 44.16C67.351 43.7667 67.2277 43.4633 66.981 43.25C66.741 43.03 66.401 42.92 65.961 42.92C65.521 42.92 65.1777 43.03 64.931 43.25C64.691 43.4633 64.571 43.7667 64.571 44.16V46.73C64.571 47.1233 64.691 47.43 64.931 47.65C65.1777 47.87 65.521 47.98 65.961 47.98C66.401 47.98 66.741 47.87 66.981 47.65C67.2277 47.43 67.351 47.1233 67.351 46.73V44.16ZM70.1817 47.7C70.4284 47.7 70.5951 47.7467 70.6817 47.84C70.7751 47.9333 70.8217 48.1 70.8217 48.34V48.43C70.8217 48.6767 70.7751 48.8467 70.6817 48.94C70.5951 49.0267 70.4284 49.07 70.1817 49.07H70.1117C69.8651 49.07 69.6951 49.0267 69.6017 48.94C69.5151 48.8467 69.4717 48.6767 69.4717 48.43V48.34C69.4717 48.1 69.5151 47.9333 69.6017 47.84C69.6951 47.7467 69.8651 47.7 70.1117 47.7H70.1817ZM71.6802 44.16C71.6802 43.42 71.9135 42.8333 72.3802 42.4C72.8468 41.9667 73.4968 41.75 74.3302 41.75C75.1635 41.75 75.8102 41.9667 76.2702 42.4C76.7368 42.8333 76.9702 43.42 76.9702 44.16V46.73C76.9702 47.4767 76.7368 48.0667 76.2702 48.5C75.8102 48.9333 75.1635 49.15 74.3302 49.15C73.4968 49.15 72.8468 48.9333 72.3802 48.5C71.9135 48.0667 71.6802 47.4767 71.6802 46.73V44.16ZM75.7202 44.16C75.7202 43.7667 75.5968 43.4633 75.3502 43.25C75.1102 43.03 74.7702 42.92 74.3302 42.92C73.8902 42.92 73.5468 43.03 73.3002 43.25C73.0602 43.4633 72.9402 43.7667 72.9402 44.16V46.73C72.9402 47.1233 73.0602 47.43 73.3002 47.65C73.5468 47.87 73.8902 47.98 74.3302 47.98C74.7702 47.98 75.1102 47.87 75.3502 47.65C75.5968 47.43 75.7202 47.1233 75.7202 46.73V44.16ZM82.458 41.9C82.5847 41.9 82.6714 41.9267 82.718 41.98C82.7714 42.0267 82.798 42.1133 82.798 42.24V42.73C82.798 42.8567 82.7714 42.9467 82.718 43C82.6714 43.0467 82.5847 43.07 82.458 43.07H79.598L79.448 44.54H80.658C81.4447 44.54 82.0447 44.7533 82.458 45.18C82.878 45.6 83.088 46.1367 83.088 46.79C83.088 47.4567 82.8614 48.0167 82.408 48.47C81.9614 48.9233 81.3514 49.15 80.578 49.15C79.1647 49.15 78.2614 48.6067 77.868 47.52C77.788 47.3067 77.858 47.16 78.078 47.08L78.628 46.89C78.748 46.8433 78.838 46.8367 78.898 46.87C78.958 46.8967 79.0114 46.9733 79.058 47.1C79.278 47.6867 79.7814 47.98 80.568 47.98C80.928 47.98 81.218 47.8767 81.438 47.67C81.658 47.4567 81.768 47.1633 81.768 46.79C81.768 46.4567 81.658 46.1933 81.438 46C81.2247 45.8 80.9414 45.7 80.588 45.7H78.478C78.3314 45.7 78.2314 45.67 78.178 45.61C78.1247 45.5433 78.1047 45.44 78.118 45.3L78.418 42.39C78.438 42.2033 78.488 42.0767 78.568 42.01C78.648 41.9367 78.7814 41.9 78.968 41.9H82.458Z" fill="#3C5B7E"/>
<path d="M88.8984 41.17C89.0184 41.17 89.0784 41.23 89.0784 41.35V41.98C89.605 42.0267 90.025 42.1733 90.3384 42.42C90.6517 42.6667 90.925 43.03 91.1584 43.51C91.2317 43.6367 91.195 43.73 91.0484 43.79L90.7684 43.92C90.6484 43.9667 90.5584 43.9333 90.4984 43.82C90.2917 43.4133 90.055 43.1167 89.7884 42.93C89.5284 42.7433 89.1584 42.65 88.6784 42.65C87.6117 42.65 87.0784 43.0767 87.0784 43.93C87.0784 44.1167 87.1117 44.2767 87.1784 44.41C87.2517 44.5433 87.335 44.6467 87.4284 44.72C87.5284 44.7933 87.6684 44.8567 87.8484 44.91C88.0284 44.9633 88.185 45 88.3184 45.02C88.4517 45.04 88.635 45.06 88.8684 45.08C89.155 45.1067 89.385 45.1367 89.5584 45.17C89.7384 45.1967 89.9484 45.25 90.1884 45.33C90.4284 45.41 90.6184 45.5133 90.7584 45.64C90.8984 45.76 91.0184 45.9333 91.1184 46.16C91.2184 46.38 91.2684 46.64 91.2684 46.94C91.2684 47.5267 91.0817 47.99 90.7084 48.33C90.3417 48.6633 89.7984 48.8533 89.0784 48.9V49.55C89.0784 49.67 89.0184 49.73 88.8984 49.73H88.5884C88.4684 49.73 88.4084 49.67 88.4084 49.55V48.91C87.3617 48.8233 86.6384 48.2667 86.2384 47.24C86.185 47.1067 86.2284 47.0133 86.3684 46.96L86.6484 46.86C86.775 46.8133 86.865 46.8533 86.9184 46.98C87.0984 47.4133 87.325 47.7333 87.5984 47.94C87.8784 48.1467 88.2617 48.25 88.7484 48.25C89.9417 48.25 90.5384 47.82 90.5384 46.96C90.5384 46.7667 90.5017 46.6 90.4284 46.46C90.355 46.32 90.2717 46.2133 90.1784 46.14C90.0917 46.06 89.9517 45.9933 89.7584 45.94C89.5717 45.8867 89.415 45.8533 89.2884 45.84C89.1684 45.82 88.985 45.7967 88.7384 45.77C88.4584 45.7433 88.225 45.7167 88.0384 45.69C87.8584 45.6567 87.6484 45.6 87.4084 45.52C87.175 45.4333 86.9884 45.33 86.8484 45.21C86.7084 45.09 86.5884 44.9233 86.4884 44.71C86.3884 44.49 86.3384 44.2333 86.3384 43.94C86.3384 43.3533 86.5117 42.8933 86.8584 42.56C87.205 42.22 87.7217 42.0267 88.4084 41.98V41.35C88.4084 41.23 88.4684 41.17 88.5884 41.17H88.8984Z" fill="#6B93C0"/>
<path d="M315.519 41.9C316.132 41.9 316.605 42.0567 316.939 42.37C317.279 42.6833 317.449 43.1333 317.449 43.72C317.449 44.5133 317.135 45.0467 316.509 45.32V45.34C317.302 45.5467 317.699 46.13 317.699 47.09C317.699 47.6967 317.512 48.1667 317.139 48.5C316.765 48.8333 316.262 49 315.629 49H312.699C312.625 49 312.572 48.9867 312.539 48.96C312.512 48.9267 312.499 48.8733 312.499 48.8V42.1C312.499 42.0267 312.512 41.9767 312.539 41.95C312.572 41.9167 312.625 41.9 312.699 41.9H315.519ZM316.709 43.81C316.709 42.99 316.282 42.58 315.429 42.58H313.219V45.06H315.429C315.842 45.06 316.159 44.9567 316.379 44.75C316.599 44.5367 316.709 44.2233 316.709 43.81ZM316.589 47.99C316.822 47.77 316.939 47.4467 316.939 47.02C316.939 46.5933 316.822 46.27 316.589 46.05C316.362 45.8233 316.032 45.71 315.599 45.71H313.219V48.32H315.599C316.032 48.32 316.362 48.21 316.589 47.99ZM318.685 44.76C319.058 44.06 319.728 43.71 320.695 43.71C321.435 43.71 321.951 43.89 322.245 44.25C322.545 44.6033 322.695 45.0833 322.695 45.69V48.31C322.695 48.4833 322.668 48.6067 322.615 48.68C322.568 48.7533 322.475 48.82 322.335 48.88C321.935 49.0533 321.381 49.14 320.675 49.14C319.848 49.14 319.281 49.0167 318.975 48.77C318.668 48.5167 318.515 48.1233 318.515 47.59C318.515 47.0233 318.681 46.6233 319.015 46.39C319.355 46.1567 319.921 46.04 320.715 46.04C320.988 46.04 321.425 46.0733 322.025 46.14V45.68C322.025 45.2467 321.925 44.91 321.725 44.67C321.531 44.43 321.181 44.31 320.675 44.31C320.015 44.31 319.548 44.5533 319.275 45.04C319.201 45.14 319.118 45.1667 319.025 45.12L318.785 45.02C318.658 44.9733 318.625 44.8867 318.685 44.76ZM322.025 46.69C321.425 46.63 320.965 46.6 320.645 46.6C320.118 46.6 319.745 46.6767 319.525 46.83C319.311 46.9833 319.205 47.2333 319.205 47.58C319.205 47.92 319.301 48.1733 319.495 48.34C319.695 48.5 320.071 48.58 320.625 48.58C321.131 48.58 321.535 48.5267 321.835 48.42C321.915 48.3867 321.965 48.3533 321.985 48.32C322.011 48.2867 322.025 48.2233 322.025 48.13V46.69ZM324.632 48.82C324.632 48.8867 324.618 48.9333 324.592 48.96C324.572 48.9867 324.525 49 324.452 49H324.142C324.075 49 324.028 48.9867 324.002 48.96C323.975 48.9333 323.962 48.8867 323.962 48.82V41.78C323.962 41.7133 323.975 41.6667 324.002 41.64C324.028 41.6133 324.075 41.6 324.142 41.6H324.452C324.525 41.6 324.572 41.6133 324.592 41.64C324.618 41.6667 324.632 41.7133 324.632 41.78V48.82ZM325.872 44.76C326.245 44.06 326.915 43.71 327.882 43.71C328.622 43.71 329.139 43.89 329.432 44.25C329.732 44.6033 329.882 45.0833 329.882 45.69V48.31C329.882 48.4833 329.855 48.6067 329.802 48.68C329.755 48.7533 329.662 48.82 329.522 48.88C329.122 49.0533 328.569 49.14 327.862 49.14C327.035 49.14 326.469 49.0167 326.162 48.77C325.855 48.5167 325.702 48.1233 325.702 47.59C325.702 47.0233 325.869 46.6233 326.202 46.39C326.542 46.1567 327.109 46.04 327.902 46.04C328.175 46.04 328.612 46.0733 329.212 46.14V45.68C329.212 45.2467 329.112 44.91 328.912 44.67C328.719 44.43 328.369 44.31 327.862 44.31C327.202 44.31 326.735 44.5533 326.462 45.04C326.389 45.14 326.305 45.1667 326.212 45.12L325.972 45.02C325.845 44.9733 325.812 44.8867 325.872 44.76ZM329.212 46.69C328.612 46.63 328.152 46.6 327.832 46.6C327.305 46.6 326.932 46.6767 326.712 46.83C326.499 46.9833 326.392 47.2333 326.392 47.58C326.392 47.92 326.489 48.1733 326.682 48.34C326.882 48.5 327.259 48.58 327.812 48.58C328.319 48.58 328.722 48.5267 329.022 48.42C329.102 48.3867 329.152 48.3533 329.172 48.32C329.199 48.2867 329.212 48.2233 329.212 48.13V46.69ZM331.469 44.05C332.023 43.8233 332.643 43.71 333.329 43.71C334.656 43.71 335.319 44.3633 335.319 45.67V48.82C335.319 48.94 335.259 49 335.139 49H334.829C334.763 49 334.716 48.9867 334.689 48.96C334.663 48.9333 334.649 48.8867 334.649 48.82V45.69C334.649 44.7833 334.183 44.33 333.249 44.33C332.776 44.33 332.333 44.4033 331.919 44.55C331.819 44.5967 331.769 44.68 331.769 44.8V48.82C331.769 48.94 331.709 49 331.589 49H331.269C331.149 49 331.089 48.94 331.089 48.82V44.6C331.089 44.4467 331.113 44.3333 331.159 44.26C331.213 44.1867 331.316 44.1167 331.469 44.05ZM336.428 45.68C336.428 45.06 336.611 44.5767 336.978 44.23C337.344 43.8833 337.888 43.71 338.608 43.71C339.728 43.71 340.424 44.16 340.698 45.06C340.738 45.1867 340.698 45.2733 340.578 45.32L340.318 45.41C340.198 45.45 340.114 45.41 340.068 45.29C339.961 44.95 339.791 44.7033 339.558 44.55C339.331 44.39 339.008 44.31 338.588 44.31C338.101 44.31 337.731 44.43 337.478 44.67C337.224 44.9033 337.098 45.2333 337.098 45.66V47.19C337.098 47.6167 337.224 47.95 337.478 48.19C337.738 48.43 338.108 48.55 338.588 48.55C339.368 48.55 339.864 48.2067 340.078 47.52C340.124 47.4067 340.211 47.3667 340.338 47.4L340.598 47.48C340.724 47.5267 340.764 47.6133 340.718 47.74C340.411 48.6733 339.694 49.14 338.568 49.14C337.868 49.14 337.334 48.9667 336.968 48.62C336.608 48.2733 336.428 47.79 336.428 47.17V45.68ZM341.554 45.82C341.554 45.1533 341.741 44.6367 342.114 44.27C342.494 43.8967 343.044 43.71 343.764 43.71C344.491 43.71 345.041 43.9 345.414 44.28C345.794 44.6533 345.984 45.1533 345.984 45.78V46.33C345.984 46.5167 345.884 46.61 345.684 46.61H342.224V47.19C342.224 47.6233 342.351 47.96 342.604 48.2C342.864 48.44 343.237 48.56 343.724 48.56C344.464 48.56 344.987 48.2833 345.294 47.73C345.374 47.6233 345.471 47.6 345.584 47.66L345.794 47.77C345.921 47.8367 345.944 47.9333 345.864 48.06C345.464 48.78 344.751 49.14 343.724 49.14C342.997 49.14 342.454 48.96 342.094 48.6C341.734 48.24 341.554 47.7467 341.554 47.12V45.82ZM345.314 45.74C345.314 45.2867 345.181 44.9333 344.914 44.68C344.654 44.42 344.271 44.29 343.764 44.29C343.264 44.29 342.881 44.42 342.614 44.68C342.354 44.9333 342.224 45.2867 342.224 45.74V46.09H345.314V45.74ZM347.457 44.14C347.61 44.14 347.713 44.17 347.767 44.23C347.827 44.2833 347.857 44.3833 347.857 44.53V44.6C347.857 44.7467 347.827 44.85 347.767 44.91C347.713 44.9633 347.61 44.99 347.457 44.99H347.397C347.243 44.99 347.14 44.9633 347.087 44.91C347.033 44.85 347.007 44.7467 347.007 44.6V44.53C347.007 44.3767 347.033 44.2733 347.087 44.22C347.14 44.1667 347.243 44.14 347.397 44.14H347.457ZM347.457 48.2C347.61 48.2 347.713 48.23 347.767 48.29C347.827 48.3433 347.857 48.4467 347.857 48.6V48.66C347.857 48.8067 347.827 48.91 347.767 48.97C347.713 49.03 347.61 49.06 347.457 49.06H347.397C347.243 49.06 347.14 49.0333 347.087 48.98C347.033 48.92 347.007 48.8133 347.007 48.66V48.6C347.007 48.4467 347.033 48.3433 347.087 48.29C347.14 48.23 347.243 48.2 347.397 48.2H347.457ZM401.155 43.81C401.155 43.1833 401.381 42.6867 401.835 42.32C402.288 41.9467 402.921 41.76 403.735 41.76C404.415 41.76 404.958 41.8833 405.365 42.13C405.771 42.3767 406.105 42.7667 406.365 43.3C406.425 43.4133 406.388 43.5 406.255 43.56L405.945 43.7C405.878 43.7267 405.828 43.7367 405.795 43.73C405.761 43.7167 405.725 43.6767 405.685 43.61C405.485 43.21 405.231 42.9167 404.925 42.73C404.625 42.5433 404.228 42.45 403.735 42.45C403.141 42.45 402.685 42.5633 402.365 42.79C402.051 43.0167 401.895 43.3433 401.895 43.77C401.895 43.97 401.935 44.1433 402.015 44.29C402.095 44.4367 402.191 44.5533 402.305 44.64C402.425 44.7267 402.585 44.8033 402.785 44.87C402.991 44.93 403.175 44.9733 403.335 45C403.495 45.0267 403.705 45.0533 403.965 45.08C404.258 45.1133 404.501 45.15 404.695 45.19C404.888 45.2233 405.108 45.2867 405.355 45.38C405.601 45.4667 405.798 45.5767 405.945 45.71C406.091 45.8367 406.215 46.0133 406.315 46.24C406.421 46.4667 406.475 46.7333 406.475 47.04C406.475 47.7 406.241 48.2167 405.775 48.59C405.308 48.9567 404.635 49.14 403.755 49.14C403.041 49.14 402.468 49 402.035 48.72C401.608 48.44 401.278 48.0067 401.045 47.42C401.005 47.2933 401.045 47.2033 401.165 47.15L401.475 47.04C401.588 47 401.675 47.04 401.735 47.16C402.101 48.0267 402.775 48.46 403.755 48.46C405.081 48.46 405.745 47.9933 405.745 47.06C405.745 46.86 405.705 46.69 405.625 46.55C405.551 46.4033 405.461 46.2867 405.355 46.2C405.248 46.1133 405.098 46.04 404.905 45.98C404.718 45.92 404.548 45.88 404.395 45.86C404.241 45.8333 404.041 45.8067 403.795 45.78C403.481 45.7467 403.228 45.7133 403.035 45.68C402.841 45.6467 402.611 45.5867 402.345 45.5C402.078 45.4067 401.868 45.2967 401.715 45.17C401.561 45.0367 401.428 44.8567 401.315 44.63C401.208 44.3967 401.155 44.1233 401.155 43.81ZM407.465 44.27C407.465 43.4833 407.698 42.87 408.165 42.43C408.638 41.9833 409.318 41.76 410.205 41.76C410.951 41.76 411.535 41.9033 411.955 42.19C412.381 42.47 412.685 42.8967 412.865 43.47C412.891 43.5433 412.895 43.6 412.875 43.64C412.861 43.6733 412.818 43.7033 412.745 43.73L412.435 43.84C412.308 43.8733 412.221 43.8333 412.175 43.72C412.035 43.2733 411.811 42.9467 411.505 42.74C411.205 42.5333 410.771 42.43 410.205 42.43C409.551 42.43 409.051 42.59 408.705 42.91C408.365 43.23 408.195 43.68 408.195 44.26V46.64C408.195 47.2133 408.368 47.6633 408.715 47.99C409.061 48.31 409.558 48.47 410.205 48.47C410.778 48.47 411.218 48.3633 411.525 48.15C411.831 47.9367 412.055 47.6033 412.195 47.15C412.248 47.03 412.335 46.9867 412.455 47.02L412.765 47.14C412.885 47.1867 412.925 47.27 412.885 47.39C412.705 47.97 412.401 48.4067 411.975 48.7C411.548 48.9933 410.958 49.14 410.205 49.14C409.331 49.14 408.655 48.92 408.175 48.48C407.701 48.0333 407.465 47.4167 407.465 46.63V44.27ZM417.062 41.9C417.722 41.9 418.235 42.0833 418.602 42.45C418.975 42.81 419.162 43.3167 419.162 43.97C419.162 44.5167 419.019 44.96 418.732 45.3C418.452 45.64 418.059 45.85 417.552 45.93C417.812 46.05 418.029 46.28 418.202 46.62L419.322 48.8C419.409 48.9333 419.375 49 419.222 49H418.892C418.685 49 418.555 48.94 418.502 48.82L417.532 46.89C417.372 46.57 417.189 46.3467 416.982 46.22C416.782 46.0867 416.489 46.02 416.102 46.02H414.752V48.8C414.752 48.8733 414.739 48.9267 414.712 48.96C414.685 48.9867 414.635 49 414.562 49H414.232C414.159 49 414.105 48.9867 414.072 48.96C414.045 48.9267 414.032 48.8733 414.032 48.8V42.1C414.032 42.0267 414.045 41.9767 414.072 41.95C414.105 41.9167 414.159 41.9 414.232 41.9H417.062ZM418.412 43.97C418.412 43.5233 418.289 43.18 418.042 42.94C417.795 42.7 417.445 42.58 416.992 42.58H414.752V45.34H416.992C417.439 45.34 417.785 45.2233 418.032 44.99C418.285 44.75 418.412 44.41 418.412 43.97ZM424.67 41.9C424.744 41.9 424.794 41.9167 424.82 41.95C424.854 41.9767 424.87 42.0267 424.87 42.1V42.38C424.87 42.4533 424.854 42.5067 424.82 42.54C424.794 42.5667 424.744 42.58 424.67 42.58H422.65V48.8C422.65 48.8733 422.634 48.9267 422.6 48.96C422.574 48.9867 422.524 49 422.45 49H422.12C422.047 49 421.994 48.9867 421.96 48.96C421.934 48.9267 421.92 48.8733 421.92 48.8V42.58H419.9C419.827 42.58 419.774 42.5667 419.74 42.54C419.714 42.5067 419.7 42.4533 419.7 42.38V42.1C419.7 42.0267 419.714 41.9767 419.74 41.95C419.774 41.9167 419.827 41.9 419.9 41.9H424.67Z" fill="#6B93C0"/>
<path d="M351.34 43.4C351.793 42.3 352.67 41.75 353.97 41.75C354.703 41.75 355.29 41.97 355.73 42.41C356.177 42.8433 356.4 43.3667 356.4 43.98C356.4 44.7 356.2 45.2533 355.8 45.64C355.4 46.0267 354.67 46.43 353.61 46.85C353.597 46.8567 353.547 46.8767 353.46 46.91C353.38 46.9367 353.33 46.9567 353.31 46.97C353.29 46.9767 353.24 46.9967 353.16 47.03C353.087 47.0567 353.037 47.08 353.01 47.1C352.983 47.12 352.94 47.1467 352.88 47.18C352.827 47.2133 352.787 47.2467 352.76 47.28C352.74 47.3067 352.713 47.34 352.68 47.38C352.647 47.42 352.623 47.4633 352.61 47.51C352.603 47.5567 352.6 47.6033 352.6 47.65V47.83H355.94C356.067 47.83 356.153 47.8567 356.2 47.91C356.253 47.9567 356.28 48.0433 356.28 48.17V48.66C356.28 48.7867 356.253 48.8767 356.2 48.93C356.153 48.9767 356.067 49 355.94 49H351.63C351.503 49 351.413 48.9767 351.36 48.93C351.313 48.8767 351.29 48.7867 351.29 48.66V47.91C351.29 47.5833 351.34 47.3 351.44 47.06C351.547 46.8133 351.707 46.6067 351.92 46.44C352.133 46.2667 352.333 46.13 352.52 46.03C352.707 45.93 352.953 45.82 353.26 45.7C353.913 45.4467 354.343 45.24 354.55 45.08C354.903 44.8133 355.08 44.4667 355.08 44.04C355.08 43.7267 354.97 43.4633 354.75 43.25C354.537 43.03 354.26 42.92 353.92 42.92C353.26 42.92 352.8 43.2167 352.54 43.81C352.487 43.9367 352.43 44.0167 352.37 44.05C352.31 44.0767 352.22 44.07 352.1 44.03L351.56 43.83C351.333 43.7433 351.26 43.6 351.34 43.4ZM357.336 44.16C357.336 43.42 357.57 42.8333 358.036 42.4C358.503 41.9667 359.153 41.75 359.986 41.75C360.82 41.75 361.466 41.9667 361.926 42.4C362.393 42.8333 362.626 43.42 362.626 44.16V46.73C362.626 47.4767 362.393 48.0667 361.926 48.5C361.466 48.9333 360.82 49.15 359.986 49.15C359.153 49.15 358.503 48.9333 358.036 48.5C357.57 48.0667 357.336 47.4767 357.336 46.73V44.16ZM361.376 44.16C361.376 43.7667 361.253 43.4633 361.006 43.25C360.766 43.03 360.426 42.92 359.986 42.92C359.546 42.92 359.203 43.03 358.956 43.25C358.716 43.4633 358.596 43.7667 358.596 44.16V46.73C358.596 47.1233 358.716 47.43 358.956 47.65C359.203 47.87 359.546 47.98 359.986 47.98C360.426 47.98 360.766 47.87 361.006 47.65C361.253 47.43 361.376 47.1233 361.376 46.73V44.16ZM371.062 46.24C371.188 46.24 371.275 46.2667 371.322 46.32C371.375 46.3667 371.402 46.4533 371.402 46.58V47.01C371.402 47.1367 371.378 47.2267 371.332 47.28C371.285 47.3267 371.195 47.35 371.062 47.35H370.372V48.66C370.372 48.7867 370.345 48.8767 370.292 48.93C370.245 48.9767 370.158 49 370.032 49H369.542C369.415 49 369.325 48.9767 369.272 48.93C369.225 48.8767 369.202 48.7867 369.202 48.66V47.35H365.902C365.775 47.35 365.685 47.3267 365.632 47.28C365.585 47.2267 365.562 47.1367 365.562 47.01V46.65C365.562 46.4833 365.602 46.3467 365.682 46.24L369.002 42.12C369.135 41.96 369.295 41.88 369.482 41.88H370.032C370.158 41.88 370.245 41.9033 370.292 41.95C370.345 41.9967 370.372 42.0867 370.372 42.22V46.24H371.062ZM369.202 43.56L367.032 46.24H369.202V43.56ZM376.61 41.9C376.737 41.9 376.824 41.9267 376.87 41.98C376.924 42.0267 376.95 42.1133 376.95 42.24V42.73C376.95 42.8567 376.924 42.9467 376.87 43C376.824 43.0467 376.737 43.07 376.61 43.07H373.75L373.6 44.54H374.81C375.597 44.54 376.197 44.7533 376.61 45.18C377.03 45.6 377.24 46.1367 377.24 46.79C377.24 47.4567 377.014 48.0167 376.56 48.47C376.114 48.9233 375.504 49.15 374.73 49.15C373.317 49.15 372.414 48.6067 372.02 47.52C371.94 47.3067 372.01 47.16 372.23 47.08L372.78 46.89C372.9 46.8433 372.99 46.8367 373.05 46.87C373.11 46.8967 373.164 46.9733 373.21 47.1C373.43 47.6867 373.934 47.98 374.72 47.98C375.08 47.98 375.37 47.8767 375.59 47.67C375.81 47.4567 375.92 47.1633 375.92 46.79C375.92 46.4567 375.81 46.1933 375.59 46C375.377 45.8 375.094 45.7 374.74 45.7H372.63C372.484 45.7 372.384 45.67 372.33 45.61C372.277 45.5433 372.257 45.44 372.27 45.3L372.57 42.39C372.59 42.2033 372.64 42.0767 372.72 42.01C372.8 41.9367 372.934 41.9 373.12 41.9H376.61ZM378.127 44.16C378.127 43.42 378.361 42.8333 378.827 42.4C379.294 41.9667 379.944 41.75 380.777 41.75C381.611 41.75 382.257 41.9667 382.717 42.4C383.184 42.8333 383.417 43.42 383.417 44.16V46.73C383.417 47.4767 383.184 48.0667 382.717 48.5C382.257 48.9333 381.611 49.15 380.777 49.15C379.944 49.15 379.294 48.9333 378.827 48.5C378.361 48.0667 378.127 47.4767 378.127 46.73V44.16ZM382.167 44.16C382.167 43.7667 382.044 43.4633 381.797 43.25C381.557 43.03 381.217 42.92 380.777 42.92C380.337 42.92 379.994 43.03 379.747 43.25C379.507 43.4633 379.387 43.7667 379.387 44.16V46.73C379.387 47.1233 379.507 47.43 379.747 47.65C379.994 47.87 380.337 47.98 380.777 47.98C381.217 47.98 381.557 47.87 381.797 47.65C382.044 47.43 382.167 47.1233 382.167 46.73V44.16ZM384.998 47.7C385.245 47.7 385.411 47.7467 385.498 47.84C385.591 47.9333 385.638 48.1 385.638 48.34V48.43C385.638 48.6767 385.591 48.8467 385.498 48.94C385.411 49.0267 385.245 49.07 384.998 49.07H384.928C384.681 49.07 384.511 49.0267 384.418 48.94C384.331 48.8467 384.288 48.6767 384.288 48.43V48.34C384.288 48.1 384.331 47.9333 384.418 47.84C384.511 47.7467 384.681 47.7 384.928 47.7H384.998ZM386.497 44.16C386.497 43.42 386.73 42.8333 387.197 42.4C387.663 41.9667 388.313 41.75 389.147 41.75C389.98 41.75 390.627 41.9667 391.087 42.4C391.553 42.8333 391.787 43.42 391.787 44.16V46.73C391.787 47.4767 391.553 48.0667 391.087 48.5C390.627 48.9333 389.98 49.15 389.147 49.15C388.313 49.15 387.663 48.9333 387.197 48.5C386.73 48.0667 386.497 47.4767 386.497 46.73V44.16ZM390.537 44.16C390.537 43.7667 390.413 43.4633 390.167 43.25C389.927 43.03 389.587 42.92 389.147 42.92C388.707 42.92 388.363 43.03 388.117 43.25C387.877 43.4633 387.757 43.7667 387.757 44.16V46.73C387.757 47.1233 387.877 47.43 388.117 47.65C388.363 47.87 388.707 47.98 389.147 47.98C389.587 47.98 389.927 47.87 390.167 47.65C390.413 47.43 390.537 47.1233 390.537 46.73V44.16ZM397.274 41.9C397.401 41.9 397.488 41.9267 397.534 41.98C397.588 42.0267 397.614 42.1133 397.614 42.24V42.73C397.614 42.8567 397.588 42.9467 397.534 43C397.488 43.0467 397.401 43.07 397.274 43.07H394.414L394.264 44.54H395.474C396.261 44.54 396.861 44.7533 397.274 45.18C397.694 45.6 397.904 46.1367 397.904 46.79C397.904 47.4567 397.678 48.0167 397.224 48.47C396.778 48.9233 396.168 49.15 395.394 49.15C393.981 49.15 393.078 48.6067 392.684 47.52C392.604 47.3067 392.674 47.16 392.894 47.08L393.444 46.89C393.564 46.8433 393.654 46.8367 393.714 46.87C393.774 46.8967 393.828 46.9733 393.874 47.1C394.094 47.6867 394.598 47.98 395.384 47.98C395.744 47.98 396.034 47.8767 396.254 47.67C396.474 47.4567 396.584 47.1633 396.584 46.79C396.584 46.4567 396.474 46.1933 396.254 46C396.041 45.8 395.758 45.7 395.404 45.7H393.294C393.148 45.7 393.048 45.67 392.994 45.61C392.941 45.5433 392.921 45.44 392.934 45.3L393.234 42.39C393.254 42.2033 393.304 42.0767 393.384 42.01C393.464 41.9367 393.598 41.9 393.784 41.9H397.274Z" fill="#3C5B7E"/>
<defs>
<filter id="filter0_d_7369_65725" x="0" y="0" width="466" height="146" filterUnits="userSpaceOnUse" color-interpolation-filters="sRGB">
<feFlood flood-opacity="0" result="BackgroundImageFix"/>
<feColorMatrix in="SourceAlpha" type="matrix" values="0 0 0 0 0 0 0 0 0 0 0 0 0 0 0 0 0 0 127 0" result="hardAlpha"/>
<feOffset/>
<feGaussianBlur stdDeviation="12.5"/>
<feColorMatrix type="matrix" values="0 0 0 0 0.12 0 0 0 0 0.302209 0 0 0 0 0.45 0 0 0 0.2 0"/>
<feBlend mode="normal" in2="BackgroundImageFix" result="effect1_dropShadow_7369_65725"/>
<feBlend mode="normal" in="SourceGraphic" in2="effect1_dropShadow_7369_65725" result="shape"/>
</filter>
</defs>
</svg>
