<svg width="216" height="105" viewBox="0 0 216 105" fill="none" xmlns="http://www.w3.org/2000/svg">
<g filter="url(#filter0_d_7364_65539)">
<rect x="21.5" y="21.5" width="173" height="62" rx="6.5" fill="white" stroke="#CC3030" stroke-width="3"/>
<path d="M47.646 58.406C47.79 58.802 47.652 59 47.232 59H46.296C45.924 59 45.66 58.964 45.504 58.892C45.36 58.82 45.252 58.676 45.18 58.46L44.352 56.138H39.384L38.538 58.46C38.466 58.676 38.352 58.82 38.196 58.892C38.052 58.964 37.794 59 37.422 59H36.594C36.174 59 36.036 58.802 36.18 58.406L40.68 46.706C40.764 46.502 40.854 46.37 40.95 46.31C41.058 46.238 41.22 46.202 41.436 46.202H42.39C42.606 46.202 42.768 46.238 42.876 46.31C42.984 46.37 43.074 46.496 43.146 46.688L47.646 58.406ZM42.354 50.486C42.246 50.162 42.156 49.82 42.084 49.46C42.012 49.088 41.964 48.8 41.94 48.596L41.922 48.29H41.796C41.796 48.974 41.664 49.7 41.4 50.468L40.014 54.284H43.722L42.354 50.486ZM48.4455 53.168C48.4455 51.944 48.7575 51.014 49.3815 50.378C50.0175 49.73 50.9595 49.406 52.2075 49.406C52.7595 49.406 53.4735 49.484 54.3495 49.64V46.238C54.3495 46.034 54.3855 45.89 54.4575 45.806C54.5415 45.722 54.6855 45.68 54.8895 45.68H55.8795C56.0835 45.68 56.2275 45.722 56.3115 45.806C56.3955 45.89 56.4375 46.034 56.4375 46.238V57.704C56.4375 57.992 56.3895 58.202 56.2935 58.334C56.1975 58.454 56.0055 58.574 55.7175 58.694C54.6975 59.078 53.5755 59.27 52.3515 59.27C49.7475 59.27 48.4455 58.058 48.4455 55.634V53.168ZM54.3495 51.548C53.6295 51.392 53.0475 51.314 52.6035 51.314C51.2235 51.314 50.5335 51.95 50.5335 53.222V55.562C50.5335 56.762 51.2055 57.362 52.5495 57.362C53.1855 57.362 53.7375 57.296 54.2055 57.164C54.3015 57.128 54.3495 57.062 54.3495 56.966V51.548ZM58.2013 53.168C58.2013 51.944 58.5133 51.014 59.1373 50.378C59.7733 49.73 60.7153 49.406 61.9633 49.406C62.5153 49.406 63.2293 49.484 64.1053 49.64V46.238C64.1053 46.034 64.1413 45.89 64.2133 45.806C64.2973 45.722 64.4413 45.68 64.6453 45.68H65.6353C65.8393 45.68 65.9833 45.722 66.0673 45.806C66.1513 45.89 66.1933 46.034 66.1933 46.238V57.704C66.1933 57.992 66.1453 58.202 66.0493 58.334C65.9533 58.454 65.7613 58.574 65.4733 58.694C64.4533 59.078 63.3313 59.27 62.1073 59.27C59.5033 59.27 58.2013 58.058 58.2013 55.634V53.168ZM64.1053 51.548C63.3853 51.392 62.8033 51.314 62.3593 51.314C60.9793 51.314 60.2893 51.95 60.2893 53.222V55.562C60.2893 56.762 60.9613 57.362 62.3053 57.362C62.9413 57.362 63.4933 57.296 63.9613 57.164C64.0573 57.128 64.1053 57.062 64.1053 56.966V51.548ZM72.0207 51.278C72.6687 50.03 73.9107 49.406 75.7467 49.406C78.3147 49.406 79.5987 50.642 79.5987 53.114V57.776C79.5987 58.088 79.5507 58.31 79.4547 58.442C79.3707 58.574 79.2027 58.694 78.9507 58.802C78.2307 59.114 77.1507 59.27 75.7107 59.27C74.1867 59.27 73.1367 59.036 72.5607 58.568C71.9847 58.088 71.6967 57.35 71.6967 56.354C71.6967 55.286 72.0087 54.536 72.6327 54.104C73.2687 53.672 74.3187 53.456 75.7827 53.456C75.9147 53.456 76.4907 53.486 77.5107 53.546V53.042C77.5107 52.454 77.3727 52.01 77.0967 51.71C76.8207 51.41 76.3587 51.26 75.7107 51.26C74.8227 51.26 74.1927 51.548 73.8207 52.124C73.6887 52.316 73.5747 52.43 73.4787 52.466C73.3947 52.49 73.2507 52.466 73.0467 52.394L72.3267 52.088C71.9307 51.908 71.8287 51.638 72.0207 51.278ZM77.5107 55.256C76.2507 55.196 75.5967 55.166 75.5487 55.166C74.9007 55.166 74.4507 55.262 74.1987 55.454C73.9467 55.646 73.8207 55.94 73.8207 56.336C73.8207 56.744 73.9347 57.05 74.1627 57.254C74.4027 57.446 74.8527 57.542 75.5127 57.542C76.2807 57.542 76.8807 57.494 77.3127 57.398C77.4447 57.35 77.5107 57.266 77.5107 57.146V55.256ZM81.2287 53.168C81.2287 51.944 81.5407 51.014 82.1647 50.378C82.8007 49.73 83.7427 49.406 84.9907 49.406C85.5427 49.406 86.2567 49.484 87.1327 49.64V46.238C87.1327 46.034 87.1687 45.89 87.2407 45.806C87.3247 45.722 87.4687 45.68 87.6727 45.68H88.6627C88.8667 45.68 89.0107 45.722 89.0947 45.806C89.1787 45.89 89.2207 46.034 89.2207 46.238V57.704C89.2207 57.992 89.1727 58.202 89.0767 58.334C88.9807 58.454 88.7887 58.574 88.5007 58.694C87.4807 59.078 86.3587 59.27 85.1347 59.27C82.5307 59.27 81.2287 58.058 81.2287 55.634V53.168ZM87.1327 51.548C86.4127 51.392 85.8307 51.314 85.3867 51.314C84.0067 51.314 83.3167 51.95 83.3167 53.222V55.562C83.3167 56.762 83.9887 57.362 85.3327 57.362C85.9687 57.362 86.5207 57.296 86.9887 57.164C87.0847 57.128 87.1327 57.062 87.1327 56.966V51.548ZM90.9845 53.168C90.9845 51.944 91.2965 51.014 91.9205 50.378C92.5565 49.73 93.4985 49.406 94.7465 49.406C95.2985 49.406 96.0125 49.484 96.8885 49.64V46.238C96.8885 46.034 96.9245 45.89 96.9965 45.806C97.0805 45.722 97.2245 45.68 97.4285 45.68H98.4185C98.6225 45.68 98.7665 45.722 98.8505 45.806C98.9345 45.89 98.9765 46.034 98.9765 46.238V57.704C98.9765 57.992 98.9285 58.202 98.8325 58.334C98.7365 58.454 98.5445 58.574 98.2565 58.694C97.2365 59.078 96.1145 59.27 94.8905 59.27C92.2865 59.27 90.9845 58.058 90.9845 55.634V53.168ZM96.8885 51.548C96.1685 51.392 95.5865 51.314 95.1425 51.314C93.7625 51.314 93.0725 51.95 93.0725 53.222V55.562C93.0725 56.762 93.7445 57.362 95.0885 57.362C95.7245 57.362 96.2765 57.296 96.7445 57.164C96.8405 57.128 96.8885 57.062 96.8885 56.966V51.548ZM105.042 49.406H105.618C105.822 49.406 105.966 49.448 106.05 49.532C106.134 49.604 106.176 49.748 106.176 49.964V50.756C106.176 50.96 106.134 51.104 106.05 51.188C105.966 51.272 105.822 51.314 105.618 51.314H104.97C104.298 51.314 103.728 51.386 103.26 51.53C103.14 51.554 103.08 51.626 103.08 51.746V58.442C103.08 58.646 103.038 58.79 102.954 58.874C102.882 58.958 102.744 59 102.54 59H101.55C101.346 59 101.202 58.958 101.118 58.874C101.034 58.79 100.992 58.646 100.992 58.442V50.972C100.992 50.684 101.034 50.474 101.118 50.342C101.214 50.198 101.406 50.066 101.694 49.946C102.57 49.622 103.686 49.442 105.042 49.406ZM106.822 53.294C106.822 52.034 107.176 51.074 107.884 50.414C108.604 49.742 109.642 49.406 110.998 49.406C112.366 49.406 113.398 49.754 114.094 50.45C114.802 51.146 115.156 52.04 115.156 53.132V54.23C115.156 54.746 114.886 55.004 114.346 55.004H108.91V55.67C108.91 56.258 109.084 56.708 109.432 57.02C109.792 57.32 110.302 57.47 110.962 57.47C111.97 57.47 112.678 57.152 113.086 56.516C113.23 56.312 113.362 56.198 113.482 56.174C113.614 56.138 113.788 56.18 114.004 56.3L114.634 56.642C115.042 56.834 115.114 57.134 114.85 57.542C114.142 58.694 112.846 59.27 110.962 59.27C109.558 59.27 108.514 58.922 107.83 58.226C107.158 57.53 106.822 56.594 106.822 55.418V53.294ZM113.068 53.006C113.068 52.418 112.894 51.968 112.546 51.656C112.198 51.332 111.682 51.17 110.998 51.17C110.326 51.17 109.81 51.332 109.45 51.656C109.09 51.968 108.91 52.418 108.91 53.006V53.402H113.068V53.006ZM116.454 52.304C116.454 51.416 116.766 50.714 117.39 50.198C118.026 49.67 118.95 49.406 120.162 49.406C122.094 49.406 123.378 50.048 124.014 51.332C124.206 51.692 124.11 51.962 123.726 52.142L122.916 52.466C122.712 52.55 122.562 52.58 122.466 52.556C122.382 52.52 122.28 52.406 122.16 52.214C121.812 51.59 121.164 51.278 120.216 51.278C119.088 51.278 118.524 51.602 118.524 52.25C118.524 52.646 118.68 52.916 118.992 53.06C119.304 53.192 119.85 53.294 120.63 53.366C121.854 53.486 122.772 53.75 123.384 54.158C123.996 54.554 124.302 55.256 124.302 56.264C124.302 57.176 123.966 57.908 123.294 58.46C122.622 59 121.662 59.27 120.414 59.27C118.302 59.27 116.964 58.544 116.4 57.092C116.256 56.72 116.376 56.468 116.76 56.336L117.57 56.084C117.75 56.012 117.894 56 118.002 56.048C118.122 56.096 118.224 56.222 118.308 56.426C118.584 57.086 119.262 57.416 120.342 57.416C121.614 57.416 122.25 57.062 122.25 56.354C122.25 55.958 122.088 55.688 121.764 55.544C121.452 55.4 120.894 55.286 120.09 55.202C119.67 55.154 119.31 55.106 119.01 55.058C118.722 54.998 118.404 54.902 118.056 54.77C117.708 54.638 117.426 54.476 117.21 54.284C116.994 54.092 116.814 53.828 116.67 53.492C116.526 53.156 116.454 52.76 116.454 52.304ZM125.524 52.304C125.524 51.416 125.836 50.714 126.46 50.198C127.096 49.67 128.02 49.406 129.232 49.406C131.164 49.406 132.448 50.048 133.084 51.332C133.276 51.692 133.18 51.962 132.796 52.142L131.986 52.466C131.782 52.55 131.632 52.58 131.536 52.556C131.452 52.52 131.35 52.406 131.23 52.214C130.882 51.59 130.234 51.278 129.286 51.278C128.158 51.278 127.594 51.602 127.594 52.25C127.594 52.646 127.75 52.916 128.062 53.06C128.374 53.192 128.92 53.294 129.7 53.366C130.924 53.486 131.842 53.75 132.454 54.158C133.066 54.554 133.372 55.256 133.372 56.264C133.372 57.176 133.036 57.908 132.364 58.46C131.692 59 130.732 59.27 129.484 59.27C127.372 59.27 126.034 58.544 125.47 57.092C125.326 56.72 125.446 56.468 125.83 56.336L126.64 56.084C126.82 56.012 126.964 56 127.072 56.048C127.192 56.096 127.294 56.222 127.378 56.426C127.654 57.086 128.332 57.416 129.412 57.416C130.684 57.416 131.32 57.062 131.32 56.354C131.32 55.958 131.158 55.688 130.834 55.544C130.522 55.4 129.964 55.286 129.16 55.202C128.74 55.154 128.38 55.106 128.08 55.058C127.792 54.998 127.474 54.902 127.126 54.77C126.778 54.638 126.496 54.476 126.28 54.284C126.064 54.092 125.884 53.828 125.74 53.492C125.596 53.156 125.524 52.76 125.524 52.304Z" fill="black"/>
<g filter="url(#filter1_d_7364_65539)">
<circle cx="164" cy="53" r="16" fill="#6A4BFF"/>
</g>
<rect x="163" y="46" width="2" height="14" rx="1" fill="white"/>
<rect x="171" y="52" width="2" height="14" rx="1" transform="rotate(90 171 52)" fill="white"/>
</g>
<defs>
<filter id="filter0_d_7364_65539" x="0" y="0" width="216" height="105" filterUnits="userSpaceOnUse" color-interpolation-filters="sRGB">
<feFlood flood-opacity="0" result="BackgroundImageFix"/>
<feColorMatrix in="SourceAlpha" type="matrix" values="0 0 0 0 0 0 0 0 0 0 0 0 0 0 0 0 0 0 127 0" result="hardAlpha"/>
<feOffset/>
<feGaussianBlur stdDeviation="10"/>
<feComposite in2="hardAlpha" operator="out"/>
<feColorMatrix type="matrix" values="0 0 0 0 0.121569 0 0 0 0 0.301961 0 0 0 0 0.45098 0 0 0 0.25 0"/>
<feBlend mode="normal" in2="BackgroundImageFix" result="effect1_dropShadow_7364_65539"/>
<feBlend mode="normal" in="SourceGraphic" in2="effect1_dropShadow_7364_65539" result="shape"/>
</filter>
<filter id="filter1_d_7364_65539" x="128" y="21" width="72" height="72" filterUnits="userSpaceOnUse" color-interpolation-filters="sRGB">
<feFlood flood-opacity="0" result="BackgroundImageFix"/>
<feColorMatrix in="SourceAlpha" type="matrix" values="0 0 0 0 0 0 0 0 0 0 0 0 0 0 0 0 0 0 127 0" result="hardAlpha"/>
<feOffset dy="4"/>
<feGaussianBlur stdDeviation="10"/>
<feColorMatrix type="matrix" values="0 0 0 0 0.411765 0 0 0 0 0.372549 0 0 0 0 0.882353 0 0 0 0.7 0"/>
<feBlend mode="normal" in2="BackgroundImageFix" result="effect1_dropShadow_7364_65539"/>
<feBlend mode="normal" in="SourceGraphic" in2="effect1_dropShadow_7364_65539" result="shape"/>
</filter>
</defs>
</svg>
