<svg width="229" height="53" viewBox="0 0 229 53" fill="none" xmlns="http://www.w3.org/2000/svg">
<path d="M0 0H229V43C229 48.5229 224.523 53 219 53H10C4.47716 53 0 48.5228 0 43V0Z" fill="#00BFDB"/>
<g clip-path="url(#clip0_7369_65789)">
<path d="M29.8786 35.48C30.7266 35.48 31.3986 35.724 31.8946 36.212C32.3906 36.692 32.6386 37.356 32.6386 38.204C32.6386 39.044 32.3906 39.704 31.8946 40.184C31.4066 40.664 30.7346 40.904 29.8786 40.904H27.5266V43.688C27.5266 43.8 27.5026 43.88 27.4546 43.928C27.4066 43.976 27.3226 44 27.2026 44H26.6746C26.5626 44 26.4826 43.976 26.4346 43.928C26.3866 43.88 26.3626 43.8 26.3626 43.688V35.792C26.3626 35.68 26.3866 35.6 26.4346 35.552C26.4826 35.504 26.5626 35.48 26.6746 35.48H29.8786ZM29.7706 39.824C30.2906 39.824 30.6946 39.684 30.9826 39.404C31.2786 39.116 31.4266 38.716 31.4266 38.204C31.4266 37.692 31.2786 37.292 30.9826 37.004C30.6946 36.708 30.2906 36.56 29.7706 36.56H27.5266V39.824H29.7706ZM33.4446 39.932C33.4446 39.212 33.6806 38.648 34.1526 38.24C34.6326 37.832 35.2926 37.628 36.1326 37.628C36.9886 37.628 37.6526 37.832 38.1246 38.24C38.5966 38.648 38.8326 39.212 38.8326 39.932V41.888C38.8326 42.6 38.5966 43.16 38.1246 43.568C37.6526 43.976 36.9886 44.18 36.1326 44.18C35.2926 44.18 34.6326 43.976 34.1526 43.568C33.6806 43.16 33.4446 42.6 33.4446 41.888V39.932ZM37.7646 39.92C37.7646 39.504 37.6206 39.18 37.3326 38.948C37.0446 38.716 36.6446 38.6 36.1326 38.6C35.6286 38.6 35.2326 38.716 34.9446 38.948C34.6566 39.18 34.5126 39.504 34.5126 39.92V41.888C34.5126 42.304 34.6566 42.628 34.9446 42.86C35.2326 43.092 35.6286 43.208 36.1326 43.208C36.6446 43.208 37.0446 43.092 37.3326 42.86C37.6206 42.628 37.7646 42.304 37.7646 41.888V39.92ZM39.9368 39.932C39.9368 39.212 40.1728 38.648 40.6448 38.24C41.1248 37.832 41.7848 37.628 42.6248 37.628C43.4808 37.628 44.1448 37.832 44.6168 38.24C45.0888 38.648 45.3248 39.212 45.3248 39.932V41.888C45.3248 42.6 45.0888 43.16 44.6168 43.568C44.1448 43.976 43.4808 44.18 42.6248 44.18C41.7848 44.18 41.1248 43.976 40.6448 43.568C40.1728 43.16 39.9368 42.6 39.9368 41.888V39.932ZM44.2568 39.92C44.2568 39.504 44.1128 39.18 43.8248 38.948C43.5368 38.716 43.1368 38.6 42.6248 38.6C42.1208 38.6 41.7248 38.716 41.4368 38.948C41.1488 39.18 41.0048 39.504 41.0048 39.92V41.888C41.0048 42.304 41.1488 42.628 41.4368 42.86C41.7248 43.092 42.1208 43.208 42.6248 43.208C43.1368 43.208 43.5368 43.092 43.8248 42.86C44.1128 42.628 44.2568 42.304 44.2568 41.888V39.92ZM47.737 43.712C47.737 43.824 47.713 43.9 47.665 43.94C47.625 43.98 47.553 44 47.449 44H46.957C46.845 44 46.769 43.98 46.729 43.94C46.689 43.9 46.669 43.824 46.669 43.712V35.408C46.669 35.296 46.689 35.22 46.729 35.18C46.769 35.14 46.845 35.12 46.957 35.12H47.449C47.553 35.12 47.625 35.14 47.665 35.18C47.713 35.22 47.737 35.296 47.737 35.408V43.712ZM49.0294 39.488C49.0294 38.912 49.2334 38.46 49.6414 38.132C50.0574 37.796 50.6574 37.628 51.4414 37.628C52.7134 37.628 53.5494 38.06 53.9494 38.924C54.0454 39.116 53.9974 39.256 53.8054 39.344L53.3974 39.512C53.2854 39.56 53.2054 39.576 53.1574 39.56C53.1174 39.536 53.0654 39.476 53.0014 39.38C52.8734 39.124 52.6934 38.932 52.4614 38.804C52.2294 38.668 51.8974 38.6 51.4654 38.6C50.5534 38.6 50.0974 38.888 50.0974 39.464C50.0974 39.816 50.2214 40.052 50.4694 40.172C50.7254 40.284 51.1454 40.364 51.7294 40.412C52.5214 40.492 53.1134 40.66 53.5054 40.916C53.9054 41.164 54.1054 41.612 54.1054 42.26C54.1054 42.852 53.8894 43.32 53.4574 43.664C53.0334 44.008 52.4134 44.18 51.5974 44.18C50.2214 44.18 49.3454 43.688 48.9694 42.704C48.8894 42.512 48.9494 42.384 49.1494 42.32L49.5574 42.176C49.7334 42.12 49.8614 42.18 49.9414 42.356C50.1654 42.932 50.7054 43.22 51.5614 43.22C52.5614 43.22 53.0614 42.916 53.0614 42.308C53.0614 41.972 52.9374 41.744 52.6894 41.624C52.4414 41.504 52.0334 41.416 51.4654 41.36C51.1694 41.328 50.9254 41.296 50.7334 41.264C50.5494 41.232 50.3374 41.176 50.0974 41.096C49.8574 41.008 49.6694 40.904 49.5334 40.784C49.3974 40.656 49.2774 40.484 49.1734 40.268C49.0774 40.044 49.0294 39.784 49.0294 39.488Z" fill="#004149"/>
<path d="M40.3264 6.00098C43.6971 6.00098 50.3431 13.7171 50.3431 19.2138C50.3431 24.6191 45.8659 29.001 40.3431 29.001C34.8202 29.001 30.3431 24.6191 30.3431 19.2138C30.3431 13.7154 36.9598 6.00098 40.3264 6.00098ZM40.3264 7.95842C39.6739 7.95842 37.5883 9.4906 35.8443 11.5239C33.6811 14.046 32.3431 16.8255 32.3431 19.2138C32.3431 23.538 35.9248 27.0435 40.3431 27.0435C44.7614 27.0435 48.3431 23.538 48.3431 19.2138C48.3431 16.8269 46.9993 14.0482 44.8264 11.5254C43.0752 9.49222 40.9804 7.95842 40.3264 7.95842Z" fill="#004149"/>
<path d="M95.9155 43.688C95.9875 43.896 95.9155 44 95.6995 44H95.2315C95.0395 44 94.9035 43.984 94.8235 43.952C94.7515 43.912 94.6955 43.836 94.6555 43.724L93.9115 41.768H90.3595L89.6155 43.724C89.5755 43.836 89.5155 43.912 89.4355 43.952C89.3635 43.984 89.2315 44 89.0395 44H88.6195C88.4035 44 88.3315 43.896 88.4035 43.688L91.5235 35.72C91.5795 35.544 91.7115 35.456 91.9195 35.456H92.3995C92.6075 35.456 92.7395 35.54 92.7955 35.708L95.9155 43.688ZM92.3875 37.664C92.2435 37.24 92.1715 36.864 92.1715 36.536H92.0995L92.0875 36.704C92.0795 36.808 92.0595 36.952 92.0275 37.136C91.9955 37.32 91.9515 37.492 91.8955 37.652L90.6835 40.82H93.5875L92.3875 37.664ZM96.511 40.076C96.511 39.284 96.715 38.68 97.123 38.264C97.531 37.84 98.139 37.628 98.947 37.628C99.411 37.628 99.971 37.716 100.627 37.892V35.408C100.627 35.296 100.647 35.22 100.687 35.18C100.735 35.14 100.811 35.12 100.915 35.12H101.419C101.523 35.12 101.595 35.144 101.635 35.192C101.675 35.232 101.695 35.304 101.695 35.408V43.148C101.695 43.348 101.663 43.488 101.599 43.568C101.543 43.648 101.419 43.728 101.227 43.808C100.579 44.056 99.863 44.18 99.079 44.18C97.367 44.18 96.511 43.376 96.511 41.768V40.076ZM100.627 38.876C100.051 38.7 99.559 38.612 99.151 38.612C98.111 38.612 97.591 39.112 97.591 40.112V41.732C97.591 42.708 98.119 43.196 99.175 43.196C99.663 43.196 100.091 43.132 100.459 43.004C100.571 42.964 100.627 42.888 100.627 42.776V38.876ZM102.98 40.076C102.98 39.284 103.184 38.68 103.592 38.264C104 37.84 104.608 37.628 105.416 37.628C105.88 37.628 106.44 37.716 107.096 37.892V35.408C107.096 35.296 107.116 35.22 107.156 35.18C107.204 35.14 107.28 35.12 107.384 35.12H107.888C107.992 35.12 108.064 35.144 108.104 35.192C108.144 35.232 108.164 35.304 108.164 35.408V43.148C108.164 43.348 108.132 43.488 108.068 43.568C108.012 43.648 107.888 43.728 107.696 43.808C107.048 44.056 106.332 44.18 105.548 44.18C103.836 44.18 102.98 43.376 102.98 41.768V40.076ZM107.096 38.876C106.52 38.7 106.028 38.612 105.62 38.612C104.58 38.612 104.06 39.112 104.06 40.112V41.732C104.06 42.708 104.588 43.196 105.644 43.196C106.132 43.196 106.56 43.132 106.928 43.004C107.04 42.964 107.096 42.888 107.096 42.776V38.876ZM112.827 37.976C113.427 37.744 114.163 37.628 115.035 37.628C116.707 37.628 117.543 38.432 117.543 40.04V41.732C117.543 43.364 116.691 44.18 114.987 44.18C114.571 44.18 114.051 44.072 113.427 43.856V46.352C113.427 46.464 113.407 46.54 113.367 46.58C113.327 46.62 113.251 46.64 113.139 46.64H112.635C112.531 46.64 112.459 46.616 112.419 46.568C112.379 46.528 112.359 46.456 112.359 46.352V38.66C112.359 38.46 112.387 38.316 112.443 38.228C112.507 38.14 112.635 38.056 112.827 37.976ZM116.463 40.076C116.463 39.1 115.935 38.612 114.879 38.612C114.439 38.612 114.015 38.672 113.607 38.792C113.527 38.824 113.475 38.856 113.451 38.888C113.435 38.92 113.427 38.972 113.427 39.044V42.884C114.027 43.092 114.519 43.196 114.903 43.196C115.943 43.196 116.463 42.696 116.463 41.696V40.076ZM118.648 39.932C118.648 39.212 118.884 38.648 119.356 38.24C119.836 37.832 120.496 37.628 121.336 37.628C122.192 37.628 122.856 37.832 123.328 38.24C123.8 38.648 124.036 39.212 124.036 39.932V41.888C124.036 42.6 123.8 43.16 123.328 43.568C122.856 43.976 122.192 44.18 121.336 44.18C120.496 44.18 119.836 43.976 119.356 43.568C118.884 43.16 118.648 42.6 118.648 41.888V39.932ZM122.968 39.92C122.968 39.504 122.824 39.18 122.536 38.948C122.248 38.716 121.848 38.6 121.336 38.6C120.832 38.6 120.436 38.716 120.148 38.948C119.86 39.18 119.716 39.504 119.716 39.92V41.888C119.716 42.304 119.86 42.628 120.148 42.86C120.436 43.092 120.832 43.208 121.336 43.208C121.848 43.208 122.248 43.092 122.536 42.86C122.824 42.628 122.968 42.304 122.968 41.888V39.92ZM125.14 39.932C125.14 39.212 125.376 38.648 125.848 38.24C126.328 37.832 126.988 37.628 127.828 37.628C128.684 37.628 129.348 37.832 129.82 38.24C130.292 38.648 130.528 39.212 130.528 39.932V41.888C130.528 42.6 130.292 43.16 129.82 43.568C129.348 43.976 128.684 44.18 127.828 44.18C126.988 44.18 126.328 43.976 125.848 43.568C125.376 43.16 125.14 42.6 125.14 41.888V39.932ZM129.46 39.92C129.46 39.504 129.316 39.18 129.028 38.948C128.74 38.716 128.34 38.6 127.828 38.6C127.324 38.6 126.928 38.716 126.64 38.948C126.352 39.18 126.208 39.504 126.208 39.92V41.888C126.208 42.304 126.352 42.628 126.64 42.86C126.928 43.092 127.324 43.208 127.828 43.208C128.34 43.208 128.74 43.092 129.028 42.86C129.316 42.628 129.46 42.304 129.46 41.888V39.92ZM132.94 43.712C132.94 43.824 132.916 43.9 132.868 43.94C132.828 43.98 132.756 44 132.652 44H132.16C132.048 44 131.972 43.98 131.932 43.94C131.892 43.9 131.872 43.824 131.872 43.712V35.408C131.872 35.296 131.892 35.22 131.932 35.18C131.972 35.14 132.048 35.12 132.16 35.12H132.652C132.756 35.12 132.828 35.14 132.868 35.18C132.916 35.22 132.94 35.296 132.94 35.408V43.712Z" fill="#004149"/>
<path d="M111.7 6.00098C115.071 6.00098 121.717 13.7171 121.717 19.2138C121.717 24.6191 117.24 29.001 111.717 29.001C106.194 29.001 101.717 24.6191 101.717 19.2138C101.717 13.7154 108.334 6.00098 111.7 6.00098ZM111.7 7.95842C111.048 7.95842 108.962 9.4906 107.218 11.5239C105.055 14.046 103.717 16.8255 103.717 19.2138C103.717 23.538 107.299 27.0435 111.717 27.0435C116.135 27.0435 119.717 23.538 119.717 19.2138C119.717 16.8269 118.373 14.0482 116.2 11.5254C114.449 9.49222 112.354 7.95842 111.7 7.95842Z" fill="#004149"/>
<rect x="110.717" y="13.001" width="2" height="10" rx="1" fill="#004149"/>
<rect x="116.717" y="17.001" width="2" height="10" rx="1" transform="rotate(90 116.717 17.001)" fill="#004149"/>
<path d="M156.287 35.48C156.399 35.48 156.479 35.504 156.527 35.552C156.575 35.6 156.599 35.68 156.599 35.792V36.248C156.599 36.36 156.575 36.44 156.527 36.488C156.479 36.536 156.399 36.56 156.287 36.56H154.019V43.688C154.019 43.8 153.995 43.88 153.947 43.928C153.907 43.976 153.827 44 153.707 44H153.179C153.059 44 152.975 43.976 152.927 43.928C152.887 43.88 152.867 43.8 152.867 43.688V36.56H150.599C150.479 36.56 150.395 36.536 150.347 36.488C150.307 36.44 150.287 36.36 150.287 36.248V35.792C150.287 35.68 150.307 35.6 150.347 35.552C150.395 35.504 150.479 35.48 150.599 35.48H156.287ZM158.952 37.628H159.336C159.448 37.628 159.524 37.652 159.564 37.7C159.604 37.74 159.624 37.812 159.624 37.916V38.324C159.624 38.428 159.604 38.504 159.564 38.552C159.524 38.592 159.448 38.612 159.336 38.612H158.916C158.436 38.612 157.976 38.68 157.536 38.816C157.424 38.856 157.368 38.936 157.368 39.056V43.712C157.368 43.824 157.348 43.9 157.308 43.94C157.268 43.98 157.192 44 157.08 44H156.576C156.472 44 156.4 43.98 156.36 43.94C156.32 43.892 156.3 43.816 156.3 43.712V38.672C156.3 38.48 156.328 38.34 156.384 38.252C156.448 38.164 156.572 38.08 156.756 38C157.356 37.768 158.088 37.644 158.952 37.628ZM160.2 38.888C160.632 38.048 161.444 37.628 162.636 37.628C163.54 37.628 164.18 37.844 164.556 38.276C164.932 38.708 165.12 39.3 165.12 40.052V43.184C165.12 43.392 165.088 43.54 165.024 43.628C164.968 43.716 164.856 43.796 164.688 43.868C164.208 44.076 163.52 44.18 162.624 44.18C161.624 44.18 160.936 44.028 160.56 43.724C160.184 43.412 159.996 42.928 159.996 42.272C159.996 41.576 160.2 41.088 160.608 40.808C161.016 40.528 161.704 40.388 162.672 40.388C163.104 40.388 163.56 40.416 164.04 40.472V40.016C164.04 39.552 163.932 39.2 163.716 38.96C163.508 38.712 163.14 38.588 162.612 38.588C161.916 38.588 161.42 38.832 161.124 39.32C161.052 39.416 160.996 39.476 160.956 39.5C160.916 39.516 160.84 39.504 160.728 39.464L160.356 39.296C160.156 39.216 160.104 39.08 160.2 38.888ZM164.04 41.36C163.4 41.296 162.904 41.264 162.552 41.264C162 41.264 161.616 41.344 161.4 41.504C161.184 41.664 161.076 41.92 161.076 42.272C161.076 42.616 161.176 42.872 161.376 43.04C161.584 43.2 161.968 43.28 162.528 43.28C163.136 43.28 163.58 43.232 163.86 43.136C163.98 43.088 164.04 43 164.04 42.872V41.36ZM166.952 38.036C167.616 37.764 168.38 37.628 169.244 37.628C170.868 37.628 171.68 38.42 171.68 40.004V43.712C171.68 43.824 171.656 43.9 171.608 43.94C171.568 43.98 171.496 44 171.392 44H170.888C170.784 44 170.708 43.98 170.66 43.94C170.62 43.9 170.6 43.824 170.6 43.712V40.04C170.6 39.088 170.1 38.612 169.1 38.612C168.62 38.612 168.156 38.684 167.708 38.828C167.612 38.868 167.564 38.94 167.564 39.044V43.712C167.564 43.824 167.544 43.9 167.504 43.94C167.464 43.98 167.388 44 167.276 44H166.772C166.668 44 166.596 43.98 166.556 43.94C166.516 43.892 166.496 43.816 166.496 43.712V38.708C166.496 38.516 166.524 38.376 166.58 38.288C166.644 38.2 166.768 38.116 166.952 38.036ZM172.877 39.488C172.877 38.912 173.081 38.46 173.489 38.132C173.905 37.796 174.505 37.628 175.289 37.628C176.561 37.628 177.397 38.06 177.797 38.924C177.893 39.116 177.845 39.256 177.653 39.344L177.245 39.512C177.133 39.56 177.053 39.576 177.005 39.56C176.965 39.536 176.913 39.476 176.849 39.38C176.721 39.124 176.541 38.932 176.309 38.804C176.077 38.668 175.745 38.6 175.313 38.6C174.401 38.6 173.945 38.888 173.945 39.464C173.945 39.816 174.069 40.052 174.317 40.172C174.573 40.284 174.993 40.364 175.577 40.412C176.369 40.492 176.961 40.66 177.353 40.916C177.753 41.164 177.953 41.612 177.953 42.26C177.953 42.852 177.737 43.32 177.305 43.664C176.881 44.008 176.261 44.18 175.445 44.18C174.069 44.18 173.193 43.688 172.817 42.704C172.737 42.512 172.797 42.384 172.997 42.32L173.405 42.176C173.581 42.12 173.709 42.18 173.789 42.356C174.013 42.932 174.553 43.22 175.409 43.22C176.409 43.22 176.909 42.916 176.909 42.308C176.909 41.972 176.785 41.744 176.537 41.624C176.289 41.504 175.881 41.416 175.313 41.36C175.017 41.328 174.773 41.296 174.581 41.264C174.397 41.232 174.185 41.176 173.945 41.096C173.705 41.008 173.517 40.904 173.381 40.784C173.245 40.656 173.125 40.484 173.021 40.268C172.925 40.044 172.877 39.784 172.877 39.488ZM178.997 38.888C179.429 38.048 180.241 37.628 181.433 37.628C182.337 37.628 182.977 37.844 183.353 38.276C183.729 38.708 183.917 39.3 183.917 40.052V43.184C183.917 43.392 183.885 43.54 183.821 43.628C183.765 43.716 183.653 43.796 183.485 43.868C183.005 44.076 182.317 44.18 181.421 44.18C180.421 44.18 179.733 44.028 179.357 43.724C178.981 43.412 178.793 42.928 178.793 42.272C178.793 41.576 178.997 41.088 179.405 40.808C179.813 40.528 180.501 40.388 181.469 40.388C181.901 40.388 182.357 40.416 182.837 40.472V40.016C182.837 39.552 182.729 39.2 182.513 38.96C182.305 38.712 181.937 38.588 181.409 38.588C180.713 38.588 180.217 38.832 179.921 39.32C179.849 39.416 179.793 39.476 179.753 39.5C179.713 39.516 179.637 39.504 179.525 39.464L179.153 39.296C178.953 39.216 178.901 39.08 178.997 38.888ZM182.837 41.36C182.197 41.296 181.701 41.264 181.349 41.264C180.797 41.264 180.413 41.344 180.197 41.504C179.981 41.664 179.873 41.92 179.873 42.272C179.873 42.616 179.973 42.872 180.173 43.04C180.381 43.2 180.765 43.28 181.325 43.28C181.933 43.28 182.377 43.232 182.657 43.136C182.777 43.088 182.837 43 182.837 42.872V41.36ZM185.101 40.04C185.101 39.28 185.325 38.688 185.773 38.264C186.221 37.84 186.893 37.628 187.789 37.628C189.141 37.628 189.985 38.164 190.321 39.236C190.393 39.436 190.329 39.572 190.129 39.644L189.709 39.776C189.517 39.864 189.381 39.8 189.301 39.584C189.085 38.912 188.565 38.576 187.741 38.576C187.229 38.576 186.841 38.7 186.577 38.948C186.313 39.196 186.181 39.544 186.181 39.992V41.804C186.181 42.252 186.313 42.604 186.577 42.86C186.841 43.108 187.229 43.232 187.741 43.232C188.565 43.232 189.089 42.884 189.313 42.188C189.361 42.076 189.413 42.008 189.469 41.984C189.525 41.952 189.609 41.956 189.721 41.996L190.141 42.116C190.349 42.196 190.417 42.332 190.345 42.524C189.945 43.628 189.069 44.18 187.717 44.18C186.845 44.18 186.189 43.968 185.749 43.544C185.317 43.12 185.101 42.524 185.101 41.756V40.04ZM192.896 36.368C193 36.368 193.072 36.388 193.112 36.428C193.16 36.468 193.184 36.544 193.184 36.656V37.808H194.756C194.86 37.808 194.932 37.832 194.972 37.88C195.012 37.92 195.032 37.992 195.032 38.096V38.516C195.032 38.62 195.012 38.696 194.972 38.744C194.932 38.784 194.86 38.804 194.756 38.804H193.184V41.6C193.184 42.232 193.292 42.652 193.508 42.86C193.724 43.06 194.132 43.16 194.732 43.16C194.844 43.16 194.92 43.18 194.96 43.22C195.008 43.26 195.032 43.336 195.032 43.448V43.88C195.032 43.984 195.008 44.056 194.96 44.096C194.92 44.136 194.844 44.16 194.732 44.168C193.764 44.192 193.084 44.024 192.692 43.664C192.308 43.296 192.116 42.616 192.116 41.624V38.804H191.12C191.016 38.804 190.94 38.784 190.892 38.744C190.852 38.696 190.832 38.62 190.832 38.516V38.096C190.832 37.984 190.852 37.908 190.892 37.868C190.94 37.828 191.016 37.808 191.12 37.808H192.116V36.656C192.116 36.544 192.136 36.468 192.176 36.428C192.216 36.388 192.288 36.368 192.392 36.368H192.896ZM196.533 35.54C196.757 35.54 196.909 35.584 196.989 35.672C197.069 35.752 197.109 35.9 197.109 36.116V36.212C197.109 36.428 197.069 36.58 196.989 36.668C196.909 36.748 196.757 36.788 196.533 36.788H196.461C196.245 36.788 196.093 36.748 196.005 36.668C195.925 36.588 195.885 36.436 195.885 36.212V36.116C195.885 35.9 195.925 35.752 196.005 35.672C196.093 35.584 196.245 35.54 196.461 35.54H196.533ZM196.749 37.808C196.861 37.808 196.937 37.828 196.977 37.868C197.017 37.908 197.037 37.984 197.037 38.096V43.712C197.037 43.824 197.017 43.9 196.977 43.94C196.937 43.98 196.861 44 196.749 44H196.245C196.133 44 196.057 43.98 196.017 43.94C195.977 43.9 195.957 43.824 195.957 43.712V38.096C195.957 37.984 195.977 37.908 196.017 37.868C196.057 37.828 196.133 37.808 196.245 37.808H196.749ZM198.331 39.932C198.331 39.212 198.567 38.648 199.039 38.24C199.519 37.832 200.179 37.628 201.019 37.628C201.875 37.628 202.539 37.832 203.011 38.24C203.483 38.648 203.719 39.212 203.719 39.932V41.888C203.719 42.6 203.483 43.16 203.011 43.568C202.539 43.976 201.875 44.18 201.019 44.18C200.179 44.18 199.519 43.976 199.039 43.568C198.567 43.16 198.331 42.6 198.331 41.888V39.932ZM202.651 39.92C202.651 39.504 202.507 39.18 202.219 38.948C201.931 38.716 201.531 38.6 201.019 38.6C200.515 38.6 200.119 38.716 199.831 38.948C199.543 39.18 199.399 39.504 199.399 39.92V41.888C199.399 42.304 199.543 42.628 199.831 42.86C200.119 43.092 200.515 43.208 201.019 43.208C201.531 43.208 201.931 43.092 202.219 42.86C202.507 42.628 202.651 42.304 202.651 41.888V39.92ZM205.459 38.036C206.123 37.764 206.887 37.628 207.751 37.628C209.375 37.628 210.187 38.42 210.187 40.004V43.712C210.187 43.824 210.163 43.9 210.115 43.94C210.075 43.98 210.003 44 209.899 44H209.395C209.291 44 209.215 43.98 209.167 43.94C209.127 43.9 209.107 43.824 209.107 43.712V40.04C209.107 39.088 208.607 38.612 207.607 38.612C207.127 38.612 206.663 38.684 206.215 38.828C206.119 38.868 206.071 38.94 206.071 39.044V43.712C206.071 43.824 206.051 43.9 206.011 43.94C205.971 43.98 205.895 44 205.783 44H205.279C205.175 44 205.103 43.98 205.063 43.94C205.023 43.892 205.003 43.816 205.003 43.712V38.708C205.003 38.516 205.031 38.376 205.087 38.288C205.151 38.2 205.275 38.116 205.459 38.036ZM211.385 39.488C211.385 38.912 211.589 38.46 211.997 38.132C212.413 37.796 213.013 37.628 213.797 37.628C215.069 37.628 215.905 38.06 216.305 38.924C216.401 39.116 216.353 39.256 216.161 39.344L215.753 39.512C215.641 39.56 215.561 39.576 215.513 39.56C215.473 39.536 215.421 39.476 215.357 39.38C215.229 39.124 215.049 38.932 214.817 38.804C214.585 38.668 214.253 38.6 213.821 38.6C212.909 38.6 212.453 38.888 212.453 39.464C212.453 39.816 212.577 40.052 212.825 40.172C213.081 40.284 213.501 40.364 214.085 40.412C214.877 40.492 215.469 40.66 215.861 40.916C216.261 41.164 216.461 41.612 216.461 42.26C216.461 42.852 216.245 43.32 215.813 43.664C215.389 44.008 214.769 44.18 213.953 44.18C212.577 44.18 211.701 43.688 211.325 42.704C211.245 42.512 211.305 42.384 211.505 42.32L211.913 42.176C212.089 42.12 212.217 42.18 212.297 42.356C212.521 42.932 213.061 43.22 213.917 43.22C214.917 43.22 215.417 42.916 215.417 42.308C215.417 41.972 215.293 41.744 215.045 41.624C214.797 41.504 214.389 41.416 213.821 41.36C213.525 41.328 213.281 41.296 213.089 41.264C212.905 41.232 212.693 41.176 212.453 41.096C212.213 41.008 212.025 40.904 211.889 40.784C211.753 40.656 211.633 40.484 211.529 40.268C211.433 40.044 211.385 39.784 211.385 39.488Z" fill="white"/>
<g clip-path="url(#clip1_7369_65789)">
<path d="M179.078 16.5774C179.351 16.5774 179.613 16.4613 179.806 16.2545C179.999 16.0477 180.107 15.7673 180.107 15.4749C180.107 15.1825 179.999 14.9021 179.806 14.6953C179.613 14.4886 179.351 14.3724 179.078 14.3724C178.805 14.3724 178.543 14.4886 178.35 14.6953C178.157 14.9021 178.049 15.1825 178.049 15.4749C178.049 15.7673 178.157 16.0477 178.35 16.2545C178.543 16.4613 178.805 16.5774 179.078 16.5774ZM179.078 20.9874C179.351 20.9874 179.613 20.8713 179.806 20.6645C179.999 20.4577 180.107 20.1773 180.107 19.8849C180.107 19.5925 179.999 19.3121 179.806 19.1053C179.613 18.8986 179.351 18.7824 179.078 18.7824C178.805 18.7824 178.543 18.8986 178.35 19.1053C178.157 19.3121 178.049 19.5925 178.049 19.8849C178.049 20.1773 178.157 20.4577 178.35 20.6645C178.543 20.8713 178.805 20.9874 179.078 20.9874ZM180.107 24.2949C180.107 24.5873 179.999 24.8677 179.806 25.0745C179.613 25.2813 179.351 25.3974 179.078 25.3974C178.805 25.3974 178.543 25.2813 178.35 25.0745C178.157 24.8677 178.049 24.5873 178.049 24.2949C178.049 24.0025 178.157 23.7221 178.35 23.5153C178.543 23.3086 178.805 23.1924 179.078 23.1924C179.351 23.1924 179.613 23.3086 179.806 23.5153C179.999 23.7221 180.107 24.0025 180.107 24.2949ZM181.479 15.4749C181.479 15.28 181.551 15.093 181.68 14.9552C181.809 14.8174 181.983 14.7399 182.165 14.7399H186.967C187.149 14.7399 187.323 14.8174 187.452 14.9552C187.581 15.093 187.653 15.28 187.653 15.4749C187.653 15.6699 187.581 15.8568 187.452 15.9946C187.323 16.1325 187.149 16.2099 186.967 16.2099H182.165C181.983 16.2099 181.809 16.1325 181.68 15.9946C181.551 15.8568 181.479 15.6699 181.479 15.4749ZM181.479 19.8849C181.479 19.69 181.551 19.503 181.68 19.3652C181.809 19.2274 181.983 19.1499 182.165 19.1499H186.967C187.149 19.1499 187.323 19.2274 187.452 19.3652C187.581 19.503 187.653 19.69 187.653 19.8849C187.653 20.0799 187.581 20.2668 187.452 20.4046C187.323 20.5425 187.149 20.6199 186.967 20.6199H182.165C181.983 20.6199 181.809 20.5425 181.68 20.4046C181.551 20.2668 181.479 20.0799 181.479 19.8849ZM181.479 24.2949C181.479 24.1 181.551 23.913 181.68 23.7752C181.809 23.6374 181.983 23.5599 182.165 23.5599H186.967C187.149 23.5599 187.323 23.6374 187.452 23.7752C187.581 23.913 187.653 24.1 187.653 24.2949C187.653 24.4899 187.581 24.6768 187.452 24.8146C187.323 24.9525 187.149 25.0299 186.967 25.0299H182.165C181.983 25.0299 181.809 24.9525 181.68 24.8146C181.551 24.6768 181.479 24.4899 181.479 24.2949ZM184.909 5.91992C185.335 5.91968 185.75 6.06094 186.098 6.32421C186.446 6.58749 186.708 6.95983 186.85 7.38992H189.025C189.571 7.38992 190.094 7.62223 190.48 8.03575C190.866 8.44927 191.083 9.01012 191.083 9.59492V27.2349C191.083 27.8197 190.866 28.3806 190.48 28.7941C190.094 29.2076 189.571 29.4399 189.025 29.4399H176.677C176.131 29.4399 175.608 29.2076 175.222 28.7941C174.836 28.3806 174.619 27.8197 174.619 27.2349V9.59492C174.619 9.01012 174.836 8.44927 175.222 8.03575C175.608 7.62223 176.131 7.38992 176.677 7.38992H178.852C178.994 6.95983 179.256 6.58749 179.604 6.32421C179.952 6.06094 180.367 5.91968 180.793 5.91992H184.909ZM185.595 8.12492C185.595 7.92999 185.523 7.74304 185.394 7.6052C185.265 7.46736 185.091 7.38992 184.909 7.38992H180.793C180.611 7.38992 180.437 7.46736 180.308 7.6052C180.179 7.74304 180.107 7.92999 180.107 8.12492C180.107 8.31986 180.179 8.50681 180.308 8.64465C180.437 8.78248 180.611 8.85992 180.793 8.85992H184.909C185.091 8.85992 185.265 8.78248 185.394 8.64465C185.523 8.50681 185.595 8.31986 185.595 8.12492ZM189.025 8.85992H186.85C186.708 9.29001 186.446 9.66235 186.098 9.92563C185.75 10.1889 185.335 10.3302 184.909 10.3299H180.793C180.367 10.3302 179.952 10.1889 179.604 9.92563C179.256 9.66235 178.994 9.29001 178.852 8.85992H176.677C176.495 8.85992 176.321 8.93736 176.192 9.0752C176.063 9.21304 175.991 9.39999 175.991 9.59492V27.2349C175.991 27.4299 176.063 27.6168 176.192 27.7546C176.321 27.8925 176.495 27.9699 176.677 27.9699H189.025C189.207 27.9699 189.381 27.8925 189.51 27.7546C189.639 27.6168 189.711 27.4299 189.711 27.2349V9.59492C189.711 9.39999 189.639 9.21304 189.51 9.0752C189.381 8.93736 189.207 8.85992 189.025 8.85992Z" fill="white"/>
</g>
</g>
<defs>
<clipPath id="clip0_7369_65789">
<rect width="210.122" height="41.833" fill="white" transform="translate(6.34308 5.58398)"/>
</clipPath>
<clipPath id="clip1_7369_65789">
<rect width="25.92" height="24" fill="white" transform="translate(170.091 5.58398)"/>
</clipPath>
</defs>
</svg>
