<svg width="441" height="64" viewBox="0 0 441 64" fill="none" xmlns="http://www.w3.org/2000/svg">
<rect width="441" height="64" rx="8" fill="#7C63F5"/>
<rect x="377" width="64" height="64" rx="8" fill="#A18EFF"/>
<path d="M406 41L415 32L406 23" stroke="#F1EEFF" stroke-width="2" stroke-linecap="round" stroke-linejoin="round"/>
<path d="M61.55 40.84C62.0487 39.63 63.013 39.025 64.443 39.025C65.2497 39.025 65.895 39.267 66.379 39.751C66.8703 40.2277 67.116 40.8033 67.116 41.478C67.116 42.27 66.896 42.8787 66.456 43.304C66.016 43.7293 65.213 44.173 64.047 44.635C64.0323 44.6423 63.9773 44.6643 63.882 44.701C63.794 44.7303 63.739 44.7523 63.717 44.767C63.695 44.7743 63.64 44.7963 63.552 44.833C63.4713 44.8623 63.4163 44.888 63.387 44.91C63.3577 44.932 63.31 44.9613 63.244 44.998C63.1853 45.0347 63.1413 45.0713 63.112 45.108C63.09 45.1373 63.0607 45.174 63.024 45.218C62.9873 45.262 62.9617 45.3097 62.947 45.361C62.9397 45.4123 62.936 45.4637 62.936 45.515V45.713H66.61C66.7493 45.713 66.8447 45.7423 66.896 45.801C66.9547 45.8523 66.984 45.9477 66.984 46.087V46.626C66.984 46.7653 66.9547 46.8643 66.896 46.923C66.8447 46.9743 66.7493 47 66.61 47H61.869C61.7297 47 61.6307 46.9743 61.572 46.923C61.5207 46.8643 61.495 46.7653 61.495 46.626V45.801C61.495 45.4417 61.55 45.13 61.66 44.866C61.7773 44.5947 61.9533 44.3673 62.188 44.184C62.4227 43.9933 62.6427 43.843 62.848 43.733C63.0533 43.623 63.3247 43.502 63.662 43.37C64.3807 43.0913 64.8537 42.864 65.081 42.688C65.4697 42.3947 65.664 42.0133 65.664 41.544C65.664 41.1993 65.543 40.9097 65.301 40.675C65.0663 40.433 64.762 40.312 64.388 40.312C63.662 40.312 63.156 40.6383 62.87 41.291C62.8113 41.4303 62.749 41.5183 62.683 41.555C62.617 41.5843 62.518 41.577 62.386 41.533L61.792 41.313C61.5427 41.2177 61.462 41.06 61.55 40.84ZM67.9062 41.676C67.9062 40.862 68.1629 40.2167 68.6762 39.74C69.1896 39.2633 69.9046 39.025 70.8212 39.025C71.7379 39.025 72.4492 39.2633 72.9552 39.74C73.4686 40.2167 73.7252 40.862 73.7252 41.676V44.503C73.7252 45.3243 73.4686 45.9733 72.9552 46.45C72.4492 46.9267 71.7379 47.165 70.8212 47.165C69.9046 47.165 69.1896 46.9267 68.6762 46.45C68.1629 45.9733 67.9062 45.3243 67.9062 44.503V41.676ZM72.3502 41.676C72.3502 41.2433 72.2146 40.9097 71.9432 40.675C71.6792 40.433 71.3052 40.312 70.8212 40.312C70.3372 40.312 69.9596 40.433 69.6882 40.675C69.4242 40.9097 69.2922 41.2433 69.2922 41.676V44.503C69.2922 44.9357 69.4242 45.273 69.6882 45.515C69.9596 45.757 70.3372 45.878 70.8212 45.878C71.3052 45.878 71.6792 45.757 71.9432 45.515C72.2146 45.273 72.3502 44.9357 72.3502 44.503V41.676ZM74.6379 41.676C74.6379 40.862 74.8946 40.2167 75.4079 39.74C75.9212 39.2633 76.6362 39.025 77.5529 39.025C78.4696 39.025 79.1809 39.2633 79.6869 39.74C80.2002 40.2167 80.4569 40.862 80.4569 41.676V44.503C80.4569 45.3243 80.2002 45.9733 79.6869 46.45C79.1809 46.9267 78.4696 47.165 77.5529 47.165C76.6362 47.165 75.9212 46.9267 75.4079 46.45C74.8946 45.9733 74.6379 45.3243 74.6379 44.503V41.676ZM79.0819 41.676C79.0819 41.2433 78.9462 40.9097 78.6749 40.675C78.4109 40.433 78.0369 40.312 77.5529 40.312C77.0689 40.312 76.6912 40.433 76.4199 40.675C76.1559 40.9097 76.0239 41.2433 76.0239 41.676V44.503C76.0239 44.9357 76.1559 45.273 76.4199 45.515C76.6912 45.757 77.0689 45.878 77.5529 45.878C78.0369 45.878 78.4109 45.757 78.6749 45.515C78.9462 45.273 79.0819 44.9357 79.0819 44.503V41.676ZM81.3696 41.676C81.3696 40.862 81.6262 40.2167 82.1396 39.74C82.6529 39.2633 83.3679 39.025 84.2846 39.025C85.2012 39.025 85.9126 39.2633 86.4186 39.74C86.9319 40.2167 87.1886 40.862 87.1886 41.676V44.503C87.1886 45.3243 86.9319 45.9733 86.4186 46.45C85.9126 46.9267 85.2012 47.165 84.2846 47.165C83.3679 47.165 82.6529 46.9267 82.1396 46.45C81.6262 45.9733 81.3696 45.3243 81.3696 44.503V41.676ZM85.8136 41.676C85.8136 41.2433 85.6779 40.9097 85.4066 40.675C85.1426 40.433 84.7686 40.312 84.2846 40.312C83.8006 40.312 83.4229 40.433 83.1516 40.675C82.8876 40.9097 82.7556 41.2433 82.7556 41.676V44.503C82.7556 44.9357 82.8876 45.273 83.1516 45.515C83.4229 45.757 83.8006 45.878 84.2846 45.878C84.7686 45.878 85.1426 45.757 85.4066 45.515C85.6779 45.273 85.8136 44.9357 85.8136 44.503V41.676ZM88.6874 45.57C88.9587 45.57 89.142 45.6213 89.2374 45.724C89.34 45.8267 89.3914 46.01 89.3914 46.274V46.373C89.3914 46.6443 89.34 46.8313 89.2374 46.934C89.142 47.0293 88.9587 47.077 88.6874 47.077H88.6104C88.339 47.077 88.152 47.0293 88.0494 46.934C87.954 46.8313 87.9064 46.6443 87.9064 46.373V46.274C87.9064 46.01 87.954 45.8267 88.0494 45.724C88.152 45.6213 88.339 45.57 88.6104 45.57H88.6874ZM90.0956 41.676C90.0956 40.862 90.3523 40.2167 90.8656 39.74C91.379 39.2633 92.094 39.025 93.0106 39.025C93.9273 39.025 94.6386 39.2633 95.1446 39.74C95.658 40.2167 95.9146 40.862 95.9146 41.676V44.503C95.9146 45.3243 95.658 45.9733 95.1446 46.45C94.6386 46.9267 93.9273 47.165 93.0106 47.165C92.094 47.165 91.379 46.9267 90.8656 46.45C90.3523 45.9733 90.0956 45.3243 90.0956 44.503V41.676ZM94.5396 41.676C94.5396 41.2433 94.404 40.9097 94.1326 40.675C93.8686 40.433 93.4946 40.312 93.0106 40.312C92.5266 40.312 92.149 40.433 91.8776 40.675C91.6136 40.9097 91.4816 41.2433 91.4816 41.676V44.503C91.4816 44.9357 91.6136 45.273 91.8776 45.515C92.149 45.757 92.5266 45.878 93.0106 45.878C93.4946 45.878 93.8686 45.757 94.1326 45.515C94.404 45.273 94.5396 44.9357 94.5396 44.503V41.676ZM96.8273 41.676C96.8273 40.862 97.084 40.2167 97.5973 39.74C98.1106 39.2633 98.8256 39.025 99.7423 39.025C100.659 39.025 101.37 39.2633 101.876 39.74C102.39 40.2167 102.646 40.862 102.646 41.676V44.503C102.646 45.3243 102.39 45.9733 101.876 46.45C101.37 46.9267 100.659 47.165 99.7423 47.165C98.8256 47.165 98.1106 46.9267 97.5973 46.45C97.084 45.9733 96.8273 45.3243 96.8273 44.503V41.676ZM101.271 41.676C101.271 41.2433 101.136 40.9097 100.864 40.675C100.6 40.433 100.226 40.312 99.7423 40.312C99.2583 40.312 98.8806 40.433 98.6093 40.675C98.3453 40.9097 98.2133 41.2433 98.2133 41.676V44.503C98.2133 44.9357 98.3453 45.273 98.6093 45.515C98.8806 45.757 99.2583 45.878 99.7423 45.878C100.226 45.878 100.6 45.757 100.864 45.515C101.136 45.273 101.271 44.9357 101.271 44.503V41.676ZM103.559 41.676C103.559 40.862 103.816 40.2167 104.329 39.74C104.842 39.2633 105.557 39.025 106.474 39.025C107.391 39.025 108.102 39.2633 108.608 39.74C109.121 40.2167 109.378 40.862 109.378 41.676V44.503C109.378 45.3243 109.121 45.9733 108.608 46.45C108.102 46.9267 107.391 47.165 106.474 47.165C105.557 47.165 104.842 46.9267 104.329 46.45C103.816 45.9733 103.559 45.3243 103.559 44.503V41.676ZM108.003 41.676C108.003 41.2433 107.867 40.9097 107.596 40.675C107.332 40.433 106.958 40.312 106.474 40.312C105.99 40.312 105.612 40.433 105.341 40.675C105.077 40.9097 104.945 41.2433 104.945 41.676V44.503C104.945 44.9357 105.077 45.273 105.341 45.515C105.612 45.757 105.99 45.878 106.474 45.878C106.958 45.878 107.332 45.757 107.596 45.515C107.867 45.273 108.003 44.9357 108.003 44.503V41.676Z" fill="white"/>
<path d="M118.997 46.791C119.056 46.9303 119.005 47 118.843 47H118.524C118.297 47 118.165 46.934 118.128 46.802L117.303 44.712H113.86L113.035 46.802C113.013 46.8827 112.977 46.9377 112.925 46.967C112.874 46.989 112.782 47 112.65 47H112.353C112.199 47 112.152 46.9303 112.21 46.791L115.158 39.344C115.202 39.2193 115.294 39.157 115.433 39.157H115.763C115.91 39.157 116.005 39.2157 116.049 39.333L118.997 46.791ZM115.763 40.675C115.661 40.3817 115.609 40.1287 115.609 39.916H115.554C115.554 40.1507 115.51 40.4037 115.422 40.675L114.091 44.052H117.083L115.763 40.675ZM123.625 39.19C123.706 39.19 123.761 39.2083 123.79 39.245C123.827 39.2743 123.845 39.3293 123.845 39.41V39.718C123.845 39.7987 123.827 39.8573 123.79 39.894C123.761 39.9233 123.706 39.938 123.625 39.938H121.403V46.78C121.403 46.8607 121.385 46.9193 121.348 46.956C121.319 46.9853 121.264 47 121.183 47H120.82C120.739 47 120.681 46.9853 120.644 46.956C120.615 46.9193 120.6 46.8607 120.6 46.78V39.938H118.378C118.297 39.938 118.239 39.9233 118.202 39.894C118.173 39.8573 118.158 39.7987 118.158 39.718V39.41C118.158 39.3293 118.173 39.2743 118.202 39.245C118.239 39.2083 118.297 39.19 118.378 39.19H123.625ZM124.257 41.797C124.257 40.9317 124.517 40.257 125.038 39.773C125.558 39.2817 126.306 39.036 127.282 39.036C128.25 39.036 128.994 39.2817 129.515 39.773C130.035 40.257 130.296 40.9317 130.296 41.797V44.393C130.296 45.2583 130.035 45.9367 129.515 46.428C128.994 46.912 128.25 47.154 127.282 47.154C126.306 47.154 125.558 46.912 125.038 46.428C124.517 45.9367 124.257 45.2583 124.257 44.393V41.797ZM129.504 41.797C129.504 41.1517 129.313 40.653 128.932 40.301C128.55 39.949 128 39.773 127.282 39.773C126.563 39.773 126.009 39.949 125.621 40.301C125.239 40.653 125.049 41.1517 125.049 41.797V44.393C125.049 45.0383 125.239 45.537 125.621 45.889C126.009 46.241 126.563 46.417 127.282 46.417C128 46.417 128.55 46.241 128.932 45.889C129.313 45.537 129.504 45.0383 129.504 44.393V41.797ZM138.416 39.19C138.497 39.19 138.552 39.2083 138.581 39.245C138.618 39.2743 138.636 39.3293 138.636 39.41V46.78C138.636 46.8607 138.618 46.9193 138.581 46.956C138.552 46.9853 138.497 47 138.416 47H138.086C138.006 47 137.947 46.9853 137.91 46.956C137.881 46.9193 137.866 46.8607 137.866 46.78L137.877 42.292C137.877 41.6173 137.921 40.9683 138.009 40.345H137.965C137.731 40.9023 137.448 41.4743 137.118 42.061L135.446 45.009C135.395 45.119 135.311 45.174 135.193 45.174H134.973C134.856 45.174 134.768 45.119 134.709 45.009L133.015 42.028C132.744 41.566 132.476 41.0013 132.212 40.334H132.168C132.249 41.0013 132.289 41.6577 132.289 42.303V46.78C132.289 46.8607 132.271 46.9193 132.234 46.956C132.205 46.9853 132.15 47 132.069 47H131.761C131.681 47 131.622 46.9853 131.585 46.956C131.556 46.9193 131.541 46.8607 131.541 46.78V39.41C131.541 39.3293 131.556 39.2743 131.585 39.245C131.622 39.2083 131.681 39.19 131.761 39.19H132.047C132.187 39.19 132.289 39.2487 132.355 39.366L135.083 44.195L137.789 39.377C137.833 39.2963 137.874 39.245 137.91 39.223C137.947 39.201 138.009 39.19 138.097 39.19H138.416Z" fill="#C6D1FF"/>
<path d="M61.742 22.434C61.742 21.314 62.0827 20.4367 62.764 19.802C63.4453 19.1673 64.4113 18.85 65.662 18.85C67.65 18.85 68.9053 19.6433 69.428 21.23C69.5027 21.4633 69.4233 21.622 69.19 21.706L68.616 21.902C68.4853 21.9487 68.3827 21.958 68.308 21.93C68.2427 21.8927 68.1867 21.8087 68.14 21.678C67.9627 21.146 67.678 20.754 67.286 20.502C66.894 20.2407 66.3527 20.11 65.662 20.11C64.8313 20.11 64.1967 20.3107 63.758 20.712C63.3193 21.1133 63.1 21.6827 63.1 22.42V25.64C63.1 26.368 63.3193 26.9373 63.758 27.348C64.206 27.7493 64.8407 27.95 65.662 27.95C66.362 27.95 66.908 27.8193 67.3 27.558C67.692 27.2967 67.9767 26.8953 68.154 26.354C68.2007 26.214 68.2567 26.13 68.322 26.102C68.3967 26.0647 68.4993 26.0693 68.63 26.116L69.204 26.326C69.4467 26.4007 69.526 26.5593 69.442 26.802C68.9193 28.4073 67.6593 29.21 65.662 29.21C64.4113 29.21 63.4453 28.8927 62.764 28.258C62.0827 27.6233 61.742 26.746 61.742 25.626V22.434ZM70.3317 24.254C70.3317 23.414 70.6071 22.756 71.1577 22.28C71.7177 21.804 72.4877 21.566 73.4677 21.566C74.4664 21.566 75.2411 21.804 75.7917 22.28C76.3424 22.756 76.6177 23.414 76.6177 24.254V26.536C76.6177 27.3667 76.3424 28.02 75.7917 28.496C75.2411 28.972 74.4664 29.21 73.4677 29.21C72.4877 29.21 71.7177 28.972 71.1577 28.496C70.6071 28.02 70.3317 27.3667 70.3317 26.536V24.254ZM75.3717 24.24C75.3717 23.7547 75.2037 23.3767 74.8677 23.106C74.5317 22.8353 74.0651 22.7 73.4677 22.7C72.8797 22.7 72.4177 22.8353 72.0817 23.106C71.7457 23.3767 71.5777 23.7547 71.5777 24.24V26.536C71.5777 27.0213 71.7457 27.3993 72.0817 27.67C72.4177 27.9407 72.8797 28.076 73.4677 28.076C74.0651 28.076 74.5317 27.9407 74.8677 27.67C75.2037 27.3993 75.3717 27.0213 75.3717 26.536V24.24ZM77.61 23.736C77.61 23.064 77.848 22.5367 78.324 22.154C78.8093 21.762 79.5093 21.566 80.424 21.566C81.908 21.566 82.8833 22.07 83.35 23.078C83.462 23.302 83.406 23.4653 83.182 23.568L82.706 23.764C82.5753 23.82 82.482 23.8387 82.426 23.82C82.3793 23.792 82.3186 23.722 82.244 23.61C82.0946 23.3113 81.8846 23.0873 81.614 22.938C81.3433 22.7793 80.956 22.7 80.452 22.7C79.388 22.7 78.856 23.036 78.856 23.708C78.856 24.1187 79.0006 24.394 79.29 24.534C79.5886 24.6647 80.0786 24.758 80.76 24.814C81.684 24.9073 82.3746 25.1033 82.832 25.402C83.2986 25.6913 83.532 26.214 83.532 26.97C83.532 27.6607 83.28 28.2067 82.776 28.608C82.2813 29.0093 81.558 29.21 80.606 29.21C79.0006 29.21 77.9786 28.636 77.54 27.488C77.4466 27.264 77.5166 27.1147 77.75 27.04L78.226 26.872C78.4313 26.8067 78.5806 26.8767 78.674 27.082C78.9353 27.754 79.5653 28.09 80.564 28.09C81.7306 28.09 82.314 27.7353 82.314 27.026C82.314 26.634 82.1693 26.368 81.88 26.228C81.5906 26.088 81.1146 25.9853 80.452 25.92C80.1066 25.8827 79.822 25.8453 79.598 25.808C79.3833 25.7707 79.136 25.7053 78.856 25.612C78.576 25.5093 78.3566 25.388 78.198 25.248C78.0393 25.0987 77.8993 24.898 77.778 24.646C77.666 24.3847 77.61 24.0813 77.61 23.736ZM89.326 22.098C90.194 21.7433 91.0246 21.566 91.818 21.566C93.582 21.566 94.464 22.4713 94.464 24.282V28.664C94.464 28.7853 94.4406 28.874 94.394 28.93C94.3473 28.9767 94.2633 29 94.142 29H93.554C93.4233 29 93.3346 28.9767 93.288 28.93C93.2413 28.8833 93.218 28.7947 93.218 28.664V24.324C93.218 23.2507 92.6953 22.714 91.65 22.714C91.1366 22.714 90.586 22.84 89.998 23.092C90.138 23.3813 90.208 23.778 90.208 24.282V28.664C90.208 28.7853 90.1846 28.874 90.138 28.93C90.0913 28.9767 90.0073 29 89.886 29H89.298C89.1673 29 89.0786 28.9767 89.032 28.93C88.9853 28.8833 88.962 28.7947 88.962 28.664V24.324C88.962 23.2507 88.43 22.714 87.366 22.714C86.9086 22.714 86.47 22.7887 86.05 22.938C85.938 23.0033 85.882 23.1013 85.882 23.232V28.664C85.882 28.7947 85.8586 28.8833 85.812 28.93C85.7653 28.9767 85.6766 29 85.546 29H84.958C84.8366 29 84.7526 28.9767 84.706 28.93C84.6593 28.874 84.636 28.7853 84.636 28.664V22.826C84.636 22.602 84.6686 22.4387 84.734 22.336C84.8086 22.224 84.9533 22.1213 85.168 22.028C85.8773 21.72 86.666 21.566 87.534 21.566C88.2993 21.566 88.8966 21.7433 89.326 22.098ZM95.6977 24.254C95.6977 23.414 95.973 22.756 96.5237 22.28C97.0837 21.804 97.8537 21.566 98.8337 21.566C99.8323 21.566 100.607 21.804 101.158 22.28C101.708 22.756 101.984 23.414 101.984 24.254V26.536C101.984 27.3667 101.708 28.02 101.158 28.496C100.607 28.972 99.8323 29.21 98.8337 29.21C97.8537 29.21 97.0837 28.972 96.5237 28.496C95.973 28.02 95.6977 27.3667 95.6977 26.536V24.254ZM100.738 24.24C100.738 23.7547 100.57 23.3767 100.234 23.106C99.8977 22.8353 99.431 22.7 98.8337 22.7C98.2457 22.7 97.7837 22.8353 97.4477 23.106C97.1117 23.3767 96.9437 23.7547 96.9437 24.24V26.536C96.9437 27.0213 97.1117 27.3993 97.4477 27.67C97.7837 27.9407 98.2457 28.076 98.8337 28.076C99.431 28.076 99.8977 27.9407 100.234 27.67C100.57 27.3993 100.738 27.0213 100.738 26.536V24.24ZM102.976 23.736C102.976 23.064 103.214 22.5367 103.69 22.154C104.175 21.762 104.875 21.566 105.79 21.566C107.274 21.566 108.249 22.07 108.716 23.078C108.828 23.302 108.772 23.4653 108.548 23.568L108.072 23.764C107.941 23.82 107.848 23.8387 107.792 23.82C107.745 23.792 107.685 23.722 107.61 23.61C107.461 23.3113 107.251 23.0873 106.98 22.938C106.709 22.7793 106.322 22.7 105.818 22.7C104.754 22.7 104.222 23.036 104.222 23.708C104.222 24.1187 104.367 24.394 104.656 24.534C104.955 24.6647 105.445 24.758 106.126 24.814C107.05 24.9073 107.741 25.1033 108.198 25.402C108.665 25.6913 108.898 26.214 108.898 26.97C108.898 27.6607 108.646 28.2067 108.142 28.608C107.647 29.0093 106.924 29.21 105.972 29.21C104.367 29.21 103.345 28.636 102.906 27.488C102.813 27.264 102.883 27.1147 103.116 27.04L103.592 26.872C103.797 26.8067 103.947 26.8767 104.04 27.082C104.301 27.754 104.931 28.09 105.93 28.09C107.097 28.09 107.68 27.7353 107.68 27.026C107.68 26.634 107.535 26.368 107.246 26.228C106.957 26.088 106.481 25.9853 105.818 25.92C105.473 25.8827 105.188 25.8453 104.964 25.808C104.749 25.7707 104.502 25.7053 104.222 25.612C103.942 25.5093 103.723 25.388 103.564 25.248C103.405 25.0987 103.265 24.898 103.144 24.646C103.032 24.3847 102.976 24.0813 102.976 23.736ZM112.835 22.434C112.835 21.314 113.176 20.4367 113.857 19.802C114.539 19.1673 115.505 18.85 116.755 18.85C118.006 18.85 118.972 19.1673 119.653 19.802C120.335 20.4367 120.675 21.314 120.675 22.434V25.626C120.675 26.746 120.335 27.6233 119.653 28.258C118.972 28.8927 118.006 29.21 116.755 29.21C115.505 29.21 114.539 28.8927 113.857 28.258C113.176 27.6233 112.835 26.746 112.835 25.626V22.434ZM119.317 22.434C119.317 21.6873 119.093 21.1133 118.645 20.712C118.207 20.3107 117.577 20.11 116.755 20.11C115.934 20.11 115.299 20.3107 114.851 20.712C114.413 21.1133 114.193 21.6873 114.193 22.434V25.626C114.193 26.3727 114.413 26.9467 114.851 27.348C115.299 27.7493 115.934 27.95 116.755 27.95C117.577 27.95 118.207 27.7493 118.645 27.348C119.093 26.9467 119.317 26.3727 119.317 25.626V22.434ZM122.564 22.042C123.338 21.7247 124.23 21.566 125.238 21.566C127.132 21.566 128.08 22.49 128.08 24.338V28.664C128.08 28.7947 128.052 28.8833 127.996 28.93C127.949 28.9767 127.865 29 127.744 29H127.156C127.034 29 126.946 28.9767 126.89 28.93C126.843 28.8833 126.82 28.7947 126.82 28.664V24.38C126.82 23.2693 126.236 22.714 125.07 22.714C124.51 22.714 123.968 22.798 123.446 22.966C123.334 23.0127 123.278 23.0967 123.278 23.218V28.664C123.278 28.7947 123.254 28.8833 123.208 28.93C123.161 28.9767 123.072 29 122.942 29H122.354C122.232 29 122.148 28.9767 122.102 28.93C122.055 28.874 122.032 28.7853 122.032 28.664V22.826C122.032 22.602 122.064 22.4387 122.13 22.336C122.204 22.2333 122.349 22.1353 122.564 22.042ZM129.265 24.562C129.265 23.61 129.535 22.8727 130.077 22.35C130.618 21.8273 131.402 21.566 132.429 21.566C133.465 21.566 134.249 21.832 134.781 22.364C135.322 22.896 135.593 23.596 135.593 24.464V25.276C135.593 25.6027 135.42 25.766 135.075 25.766H130.511V26.438C130.511 26.9793 130.669 27.3947 130.987 27.684C131.313 27.9733 131.78 28.118 132.387 28.118C133.301 28.118 133.95 27.796 134.333 27.152C134.417 27.0307 134.496 26.9607 134.571 26.942C134.655 26.9233 134.757 26.9513 134.879 27.026L135.257 27.222C135.499 27.3433 135.541 27.5253 135.383 27.768C134.832 28.7293 133.829 29.21 132.373 29.21C131.327 29.21 130.548 28.9487 130.035 28.426C129.521 27.9033 129.265 27.194 129.265 26.298V24.562ZM134.347 24.394C134.347 23.834 134.183 23.4 133.857 23.092C133.53 22.784 133.054 22.63 132.429 22.63C131.803 22.63 131.327 22.7887 131.001 23.106C130.674 23.414 130.511 23.8433 130.511 24.394V24.8H134.347V24.394ZM139.505 21.818C139.505 20.922 139.827 20.2033 140.471 19.662C141.124 19.1207 142.043 18.85 143.229 18.85C144.181 18.85 144.941 19.0227 145.511 19.368C146.08 19.7133 146.542 20.2547 146.897 20.992C147.009 21.216 146.943 21.3793 146.701 21.482L146.113 21.748C145.982 21.804 145.884 21.8227 145.819 21.804C145.763 21.776 145.702 21.6967 145.637 21.566C145.385 21.0807 145.072 20.726 144.699 20.502C144.335 20.2687 143.845 20.152 143.229 20.152C141.67 20.152 140.891 20.6793 140.891 21.734C140.891 21.9767 140.942 22.1867 141.045 22.364C141.147 22.5413 141.273 22.686 141.423 22.798C141.572 22.9007 141.777 22.994 142.039 23.078C142.3 23.1527 142.538 23.2087 142.753 23.246C142.967 23.274 143.243 23.3067 143.579 23.344C143.98 23.3907 144.316 23.442 144.587 23.498C144.867 23.5447 145.179 23.638 145.525 23.778C145.87 23.9087 146.145 24.0673 146.351 24.254C146.556 24.4407 146.729 24.6973 146.869 25.024C147.018 25.3507 147.093 25.7333 147.093 26.172C147.093 27.1147 146.757 27.8567 146.085 28.398C145.413 28.9393 144.456 29.21 143.215 29.21C142.188 29.21 141.371 29.014 140.765 28.622C140.167 28.23 139.71 27.628 139.393 26.816C139.346 26.6853 139.337 26.5873 139.365 26.522C139.402 26.4473 139.491 26.3867 139.631 26.34L140.205 26.13C140.326 26.0833 140.419 26.0787 140.485 26.116C140.559 26.144 140.625 26.2233 140.681 26.354C141.138 27.4087 141.983 27.936 143.215 27.936C144.895 27.936 145.735 27.3573 145.735 26.2C145.735 25.9107 145.669 25.668 145.539 25.472C145.417 25.276 145.226 25.1267 144.965 25.024C144.703 24.912 144.451 24.8327 144.209 24.786C143.966 24.73 143.649 24.6787 143.257 24.632C142.893 24.5947 142.594 24.5573 142.361 24.52C142.137 24.4827 141.857 24.4267 141.521 24.352C141.194 24.268 140.928 24.1653 140.723 24.044C140.517 23.9133 140.312 23.7547 140.107 23.568C139.901 23.372 139.747 23.1293 139.645 22.84C139.551 22.5413 139.505 22.2007 139.505 21.818ZM147.986 24.562C147.986 23.61 148.257 22.8727 148.798 22.35C149.339 21.8273 150.123 21.566 151.15 21.566C152.186 21.566 152.97 21.832 153.502 22.364C154.043 22.896 154.314 23.596 154.314 24.464V25.276C154.314 25.6027 154.141 25.766 153.796 25.766H149.232V26.438C149.232 26.9793 149.391 27.3947 149.708 27.684C150.035 27.9733 150.501 28.118 151.108 28.118C152.023 28.118 152.671 27.796 153.054 27.152C153.138 27.0307 153.217 26.9607 153.292 26.942C153.376 26.9233 153.479 26.9513 153.6 27.026L153.978 27.222C154.221 27.3433 154.263 27.5253 154.104 27.768C153.553 28.7293 152.55 29.21 151.094 29.21C150.049 29.21 149.269 28.9487 148.756 28.426C148.243 27.9033 147.986 27.194 147.986 26.298V24.562ZM153.068 24.394C153.068 23.834 152.905 23.4 152.578 23.092C152.251 22.784 151.775 22.63 151.15 22.63C150.525 22.63 150.049 22.7887 149.722 23.106C149.395 23.414 149.232 23.8433 149.232 24.394V24.8H153.068V24.394ZM155.225 24.562C155.225 23.61 155.495 22.8727 156.037 22.35C156.578 21.8273 157.362 21.566 158.389 21.566C159.425 21.566 160.209 21.832 160.741 22.364C161.282 22.896 161.553 23.596 161.553 24.464V25.276C161.553 25.6027 161.38 25.766 161.035 25.766H156.471V26.438C156.471 26.9793 156.629 27.3947 156.947 27.684C157.273 27.9733 157.74 28.118 158.347 28.118C159.261 28.118 159.91 27.796 160.293 27.152C160.377 27.0307 160.456 26.9607 160.531 26.942C160.615 26.9233 160.717 26.9513 160.839 27.026L161.217 27.222C161.459 27.3433 161.501 27.5253 161.343 27.768C160.792 28.7293 159.789 29.21 158.333 29.21C157.287 29.21 156.508 28.9487 155.995 28.426C155.481 27.9033 155.225 27.194 155.225 26.298V24.562ZM160.307 24.394C160.307 23.834 160.143 23.4 159.817 23.092C159.49 22.784 159.014 22.63 158.389 22.63C157.763 22.63 157.287 22.7887 156.961 23.106C156.634 23.414 156.471 23.8433 156.471 24.394V24.8H160.307V24.394ZM162.491 24.422C162.491 23.498 162.729 22.7933 163.205 22.308C163.681 21.8133 164.39 21.566 165.333 21.566C165.874 21.566 166.528 21.6687 167.293 21.874V18.976C167.293 18.8453 167.316 18.7567 167.363 18.71C167.419 18.6633 167.508 18.64 167.629 18.64H168.217C168.338 18.64 168.422 18.668 168.469 18.724C168.516 18.7707 168.539 18.8547 168.539 18.976V28.006C168.539 28.2393 168.502 28.4027 168.427 28.496C168.362 28.5893 168.217 28.6827 167.993 28.776C167.237 29.0653 166.402 29.21 165.487 29.21C163.49 29.21 162.491 28.272 162.491 26.396V24.422ZM167.293 23.022C166.621 22.8167 166.047 22.714 165.571 22.714C164.358 22.714 163.751 23.2973 163.751 24.464V26.354C163.751 27.4927 164.367 28.062 165.599 28.062C166.168 28.062 166.668 27.9873 167.097 27.838C167.228 27.7913 167.293 27.7027 167.293 27.572V23.022Z" fill="white"/>
<path d="M172.897 20.46C172.897 19.592 173.061 18.8967 173.387 18.374C173.714 17.8513 174.209 17.436 174.871 17.128C174.993 17.0813 175.081 17.0767 175.137 17.114C175.203 17.142 175.268 17.2167 175.333 17.338L175.557 17.8C175.604 17.9213 175.613 18.01 175.585 18.066C175.567 18.122 175.497 18.1827 175.375 18.248C174.955 18.4533 174.643 18.7193 174.437 19.046C174.232 19.3633 174.129 19.802 174.129 20.362V27.698C174.129 28.258 174.232 28.6967 174.437 29.014C174.643 29.3407 174.955 29.6067 175.375 29.812C175.497 29.8773 175.571 29.938 175.599 29.994C175.627 30.0593 175.613 30.148 175.557 30.26L175.333 30.722C175.268 30.8433 175.203 30.918 175.137 30.946C175.081 30.9833 174.993 30.9787 174.871 30.932C174.209 30.624 173.714 30.2087 173.387 29.686C173.061 29.1633 172.897 28.468 172.897 27.6V20.46ZM175.907 24.38C175.907 23.4933 176.169 22.8027 176.691 22.308C177.214 21.8133 177.998 21.566 179.043 21.566C180.621 21.566 181.605 22.1913 181.997 23.442C182.081 23.6753 182.007 23.834 181.773 23.918L181.283 24.072C181.059 24.1747 180.901 24.1 180.807 23.848C180.555 23.064 179.949 22.672 178.987 22.672C178.39 22.672 177.937 22.8167 177.629 23.106C177.321 23.3953 177.167 23.8013 177.167 24.324V26.438C177.167 26.9607 177.321 27.3713 177.629 27.67C177.937 27.9593 178.39 28.104 178.987 28.104C179.949 28.104 180.56 27.698 180.821 26.886C180.877 26.7553 180.938 26.676 181.003 26.648C181.069 26.6107 181.167 26.6153 181.297 26.662L181.787 26.802C182.03 26.8953 182.109 27.054 182.025 27.278C181.559 28.566 180.537 29.21 178.959 29.21C177.942 29.21 177.177 28.9627 176.663 28.468C176.159 27.9733 175.907 27.278 175.907 26.382V24.38ZM182.9 24.254C182.9 23.414 183.176 22.756 183.726 22.28C184.286 21.804 185.056 21.566 186.036 21.566C187.035 21.566 187.81 21.804 188.36 22.28C188.911 22.756 189.186 23.414 189.186 24.254V26.536C189.186 27.3667 188.911 28.02 188.36 28.496C187.81 28.972 187.035 29.21 186.036 29.21C185.056 29.21 184.286 28.972 183.726 28.496C183.176 28.02 182.9 27.3667 182.9 26.536V24.254ZM187.94 24.24C187.94 23.7547 187.772 23.3767 187.436 23.106C187.1 22.8353 186.634 22.7 186.036 22.7C185.448 22.7 184.986 22.8353 184.65 23.106C184.314 23.3767 184.146 23.7547 184.146 24.24V26.536C184.146 27.0213 184.314 27.3993 184.65 27.67C184.986 27.9407 185.448 28.076 186.036 28.076C186.634 28.076 187.1 27.9407 187.436 27.67C187.772 27.3993 187.94 27.0213 187.94 26.536V24.24ZM190.178 23.736C190.178 23.064 190.416 22.5367 190.892 22.154C191.378 21.762 192.078 21.566 192.992 21.566C194.476 21.566 195.452 22.07 195.918 23.078C196.03 23.302 195.974 23.4653 195.75 23.568L195.274 23.764C195.144 23.82 195.05 23.8387 194.994 23.82C194.948 23.792 194.887 23.722 194.812 23.61C194.663 23.3113 194.453 23.0873 194.182 22.938C193.912 22.7793 193.524 22.7 193.02 22.7C191.956 22.7 191.424 23.036 191.424 23.708C191.424 24.1187 191.569 24.394 191.858 24.534C192.157 24.6647 192.647 24.758 193.328 24.814C194.252 24.9073 194.943 25.1033 195.4 25.402C195.867 25.6913 196.1 26.214 196.1 26.97C196.1 27.6607 195.848 28.2067 195.344 28.608C194.85 29.0093 194.126 29.21 193.174 29.21C191.569 29.21 190.547 28.636 190.108 27.488C190.015 27.264 190.085 27.1147 190.318 27.04L190.794 26.872C191 26.8067 191.149 26.8767 191.242 27.082C191.504 27.754 192.134 28.09 193.132 28.09C194.299 28.09 194.882 27.7353 194.882 27.026C194.882 26.634 194.738 26.368 194.448 26.228C194.159 26.088 193.683 25.9853 193.02 25.92C192.675 25.8827 192.39 25.8453 192.166 25.808C191.952 25.7707 191.704 25.7053 191.424 25.612C191.144 25.5093 190.925 25.388 190.766 25.248C190.608 25.0987 190.468 24.898 190.346 24.646C190.234 24.3847 190.178 24.0813 190.178 23.736ZM201.894 22.098C202.762 21.7433 203.593 21.566 204.386 21.566C206.15 21.566 207.032 22.4713 207.032 24.282V28.664C207.032 28.7853 207.009 28.874 206.962 28.93C206.916 28.9767 206.832 29 206.71 29H206.122C205.992 29 205.903 28.9767 205.856 28.93C205.81 28.8833 205.786 28.7947 205.786 28.664V24.324C205.786 23.2507 205.264 22.714 204.218 22.714C203.705 22.714 203.154 22.84 202.566 23.092C202.706 23.3813 202.776 23.778 202.776 24.282V28.664C202.776 28.7853 202.753 28.874 202.706 28.93C202.66 28.9767 202.576 29 202.454 29H201.866C201.736 29 201.647 28.9767 201.6 28.93C201.554 28.8833 201.53 28.7947 201.53 28.664V24.324C201.53 23.2507 200.998 22.714 199.934 22.714C199.477 22.714 199.038 22.7887 198.618 22.938C198.506 23.0033 198.45 23.1013 198.45 23.232V28.664C198.45 28.7947 198.427 28.8833 198.38 28.93C198.334 28.9767 198.245 29 198.114 29H197.526C197.405 29 197.321 28.9767 197.274 28.93C197.228 28.874 197.204 28.7853 197.204 28.664V22.826C197.204 22.602 197.237 22.4387 197.302 22.336C197.377 22.224 197.522 22.1213 197.736 22.028C198.446 21.72 199.234 21.566 200.102 21.566C200.868 21.566 201.465 21.7433 201.894 22.098ZM208.266 24.254C208.266 23.414 208.541 22.756 209.092 22.28C209.652 21.804 210.422 21.566 211.402 21.566C212.401 21.566 213.175 21.804 213.726 22.28C214.277 22.756 214.552 23.414 214.552 24.254V26.536C214.552 27.3667 214.277 28.02 213.726 28.496C213.175 28.972 212.401 29.21 211.402 29.21C210.422 29.21 209.652 28.972 209.092 28.496C208.541 28.02 208.266 27.3667 208.266 26.536V24.254ZM213.306 24.24C213.306 23.7547 213.138 23.3767 212.802 23.106C212.466 22.8353 211.999 22.7 211.402 22.7C210.814 22.7 210.352 22.8353 210.016 23.106C209.68 23.3767 209.512 23.7547 209.512 24.24V26.536C209.512 27.0213 209.68 27.3993 210.016 27.67C210.352 27.9407 210.814 28.076 211.402 28.076C211.999 28.076 212.466 27.9407 212.802 27.67C213.138 27.3993 213.306 27.0213 213.306 26.536V24.24ZM215.544 23.736C215.544 23.064 215.782 22.5367 216.258 22.154C216.744 21.762 217.444 21.566 218.358 21.566C219.842 21.566 220.818 22.07 221.284 23.078C221.396 23.302 221.34 23.4653 221.116 23.568L220.64 23.764C220.51 23.82 220.416 23.8387 220.36 23.82C220.314 23.792 220.253 23.722 220.178 23.61C220.029 23.3113 219.819 23.0873 219.548 22.938C219.278 22.7793 218.89 22.7 218.386 22.7C217.322 22.7 216.79 23.036 216.79 23.708C216.79 24.1187 216.935 24.394 217.224 24.534C217.523 24.6647 218.013 24.758 218.694 24.814C219.618 24.9073 220.309 25.1033 220.766 25.402C221.233 25.6913 221.466 26.214 221.466 26.97C221.466 27.6607 221.214 28.2067 220.71 28.608C220.216 29.0093 219.492 29.21 218.54 29.21C216.935 29.21 215.913 28.636 215.474 27.488C215.381 27.264 215.451 27.1147 215.684 27.04L216.16 26.872C216.366 26.8067 216.515 26.8767 216.608 27.082C216.87 27.754 217.5 28.09 218.498 28.09C219.665 28.09 220.248 27.7353 220.248 27.026C220.248 26.634 220.104 26.368 219.814 26.228C219.525 26.088 219.049 25.9853 218.386 25.92C218.041 25.8827 217.756 25.8453 217.532 25.808C217.318 25.7707 217.07 25.7053 216.79 25.612C216.51 25.5093 216.291 25.388 216.132 25.248C215.974 25.0987 215.834 24.898 215.712 24.646C215.6 24.3847 215.544 24.0813 215.544 23.736ZM224.298 19.578C224.447 19.578 224.508 19.648 224.48 19.788L224.354 21.146L225.6 20.6C225.74 20.5347 225.833 20.572 225.88 20.712L225.992 21.076C226.038 21.216 225.987 21.3 225.838 21.328L224.508 21.608L225.404 22.644C225.516 22.7373 225.511 22.8307 225.39 22.924L225.082 23.148C224.951 23.2413 224.853 23.218 224.788 23.078L224.102 21.916L223.416 23.078C223.35 23.218 223.252 23.246 223.122 23.162L222.814 22.924C222.692 22.8307 222.688 22.7327 222.8 22.63L223.71 21.608L222.394 21.328C222.244 21.3 222.188 21.2113 222.226 21.062L222.352 20.712C222.408 20.5627 222.496 20.5253 222.618 20.6L223.864 21.146L223.738 19.788C223.7 19.648 223.756 19.578 223.906 19.578H224.298ZM229.267 19.578C229.416 19.578 229.477 19.648 229.449 19.788L229.323 21.146L230.569 20.6C230.709 20.5347 230.802 20.572 230.849 20.712L230.961 21.076C231.007 21.216 230.956 21.3 230.807 21.328L229.477 21.608L230.373 22.644C230.485 22.7373 230.48 22.8307 230.359 22.924L230.051 23.148C229.92 23.2413 229.822 23.218 229.757 23.078L229.071 21.916L228.385 23.078C228.319 23.218 228.221 23.246 228.091 23.162L227.783 22.924C227.661 22.8307 227.657 22.7327 227.769 22.63L228.679 21.608L227.363 21.328C227.213 21.3 227.157 21.2113 227.195 21.062L227.321 20.712C227.377 20.5627 227.465 20.5253 227.587 20.6L228.833 21.146L228.707 19.788C228.669 19.648 228.725 19.578 228.875 19.578H229.267ZM234.236 19.578C234.385 19.578 234.446 19.648 234.418 19.788L234.292 21.146L235.538 20.6C235.678 20.5347 235.771 20.572 235.818 20.712L235.93 21.076C235.976 21.216 235.925 21.3 235.776 21.328L234.446 21.608L235.342 22.644C235.454 22.7373 235.449 22.8307 235.328 22.924L235.02 23.148C234.889 23.2413 234.791 23.218 234.726 23.078L234.04 21.916L233.354 23.078C233.288 23.218 233.19 23.246 233.06 23.162L232.752 22.924C232.63 22.8307 232.626 22.7327 232.738 22.63L233.648 21.608L232.332 21.328C232.182 21.3 232.126 21.2113 232.164 21.062L232.29 20.712C232.346 20.5627 232.434 20.5253 232.556 20.6L233.802 21.146L233.676 19.788C233.638 19.648 233.694 19.578 233.844 19.578H234.236ZM244.343 25.276C244.483 25.276 244.576 25.304 244.623 25.36C244.679 25.416 244.707 25.5093 244.707 25.64V26.116C244.707 26.2467 244.679 26.34 244.623 26.396C244.576 26.452 244.483 26.48 244.343 26.48H243.195V28.636C243.195 28.7667 243.167 28.86 243.111 28.916C243.055 28.972 242.961 29 242.831 29H242.299C242.159 29 242.061 28.972 242.005 28.916C241.958 28.86 241.935 28.7667 241.935 28.636V26.48H237.105C236.965 26.48 236.867 26.452 236.811 26.396C236.764 26.34 236.741 26.2467 236.741 26.116V25.724C236.741 25.528 236.783 25.3787 236.867 25.276L241.711 19.256C241.851 19.0787 242.023 18.99 242.229 18.99H242.817C242.957 18.99 243.055 19.018 243.111 19.074C243.167 19.1207 243.195 19.214 243.195 19.354V25.276H244.343ZM241.935 20.824L238.323 25.276H241.935V20.824ZM252.784 25.276C252.924 25.276 253.018 25.304 253.064 25.36C253.12 25.416 253.148 25.5093 253.148 25.64V26.116C253.148 26.2467 253.12 26.34 253.064 26.396C253.018 26.452 252.924 26.48 252.784 26.48H251.636V28.636C251.636 28.7667 251.608 28.86 251.552 28.916C251.496 28.972 251.403 29 251.272 29H250.74C250.6 29 250.502 28.972 250.446 28.916C250.4 28.86 250.376 28.7667 250.376 28.636V26.48H245.546C245.406 26.48 245.308 26.452 245.252 26.396C245.206 26.34 245.182 26.2467 245.182 26.116V25.724C245.182 25.528 245.224 25.3787 245.308 25.276L250.152 19.256C250.292 19.0787 250.465 18.99 250.67 18.99H251.258C251.398 18.99 251.496 19.018 251.552 19.074C251.608 19.1207 251.636 19.214 251.636 19.354V25.276H252.784ZM250.376 20.824L246.764 25.276H250.376V20.824ZM255.794 20.096C255.915 20.096 255.999 20.1193 256.046 20.166C256.102 20.2127 256.13 20.3013 256.13 20.432V21.776H257.964C258.085 21.776 258.169 21.804 258.216 21.86C258.262 21.9067 258.286 21.9907 258.286 22.112V22.602C258.286 22.7233 258.262 22.812 258.216 22.868C258.169 22.9147 258.085 22.938 257.964 22.938H256.13V26.2C256.13 26.9373 256.256 27.4273 256.508 27.67C256.76 27.9033 257.236 28.02 257.936 28.02C258.066 28.02 258.155 28.0433 258.202 28.09C258.258 28.1367 258.286 28.2253 258.286 28.356V28.86C258.286 28.9813 258.258 29.0653 258.202 29.112C258.155 29.1587 258.066 29.1867 257.936 29.196C256.806 29.224 256.013 29.028 255.556 28.608C255.108 28.1787 254.884 27.3853 254.884 26.228V22.938H253.722C253.6 22.938 253.512 22.9147 253.456 22.868C253.409 22.812 253.386 22.7233 253.386 22.602V22.112C253.386 21.9813 253.409 21.8927 253.456 21.846C253.512 21.7993 253.6 21.776 253.722 21.776H254.884V20.432C254.884 20.3013 254.907 20.2127 254.954 20.166C255 20.1193 255.084 20.096 255.206 20.096H255.794ZM258.845 23.736C258.845 23.064 259.083 22.5367 259.559 22.154C260.044 21.762 260.744 21.566 261.659 21.566C263.143 21.566 264.118 22.07 264.585 23.078C264.697 23.302 264.641 23.4653 264.417 23.568L263.941 23.764C263.81 23.82 263.717 23.8387 263.661 23.82C263.614 23.792 263.553 23.722 263.479 23.61C263.329 23.3113 263.119 23.0873 262.849 22.938C262.578 22.7793 262.191 22.7 261.687 22.7C260.623 22.7 260.091 23.036 260.091 23.708C260.091 24.1187 260.235 24.394 260.525 24.534C260.823 24.6647 261.313 24.758 261.995 24.814C262.919 24.9073 263.609 25.1033 264.067 25.402C264.533 25.6913 264.767 26.214 264.767 26.97C264.767 27.6607 264.515 28.2067 264.011 28.608C263.516 29.0093 262.793 29.21 261.841 29.21C260.235 29.21 259.213 28.636 258.775 27.488C258.681 27.264 258.751 27.1147 258.985 27.04L259.461 26.872C259.666 26.8067 259.815 26.8767 259.909 27.082C260.17 27.754 260.8 28.09 261.799 28.09C262.965 28.09 263.549 27.7353 263.549 27.026C263.549 26.634 263.404 26.368 263.115 26.228C262.825 26.088 262.349 25.9853 261.687 25.92C261.341 25.8827 261.057 25.8453 260.833 25.808C260.618 25.7707 260.371 25.7053 260.091 25.612C259.811 25.5093 259.591 25.388 259.433 25.248C259.274 25.0987 259.134 24.898 259.013 24.646C258.901 24.3847 258.845 24.0813 258.845 23.736ZM265.235 17.338C265.3 17.2167 265.361 17.142 265.417 17.114C265.482 17.0767 265.575 17.0813 265.697 17.128C266.359 17.436 266.854 17.8513 267.181 18.374C267.507 18.8967 267.671 19.592 267.671 20.46V27.6C267.671 28.468 267.507 29.1633 267.181 29.686C266.854 30.2087 266.359 30.624 265.697 30.932C265.575 30.9787 265.482 30.9833 265.417 30.946C265.361 30.918 265.3 30.8433 265.235 30.722L265.011 30.26C264.964 30.1387 264.95 30.05 264.969 29.994C264.997 29.938 265.071 29.8773 265.193 29.812C265.613 29.6067 265.925 29.3407 266.131 29.014C266.336 28.6967 266.439 28.258 266.439 27.698V20.362C266.439 19.802 266.336 19.3633 266.131 19.046C265.925 18.7193 265.613 18.4533 265.193 18.248C265.071 18.1827 264.997 18.122 264.969 18.066C264.95 18.01 264.964 17.9213 265.011 17.8L265.235 17.338Z" fill="#C6D1FF"/>
<rect x="10" y="12" width="40" height="40" rx="4" fill="white"/>
<path d="M30.4949 20C29.0137 20 27.8126 25.3726 27.8126 32C27.8126 38.6274 29.0137 44 30.4949 44C31.9762 44 33.1773 38.6274 33.1773 32C33.1773 25.3726 31.9762 20 30.4949 20ZM30.6801 43.3228C30.5108 43.5487 30.3414 43.3792 30.3414 43.3792C29.6592 42.5888 29.3181 41.1204 29.3181 41.1204C28.1249 37.2805 28.4089 29.0358 28.4089 29.0358C28.9697 22.4903 29.9897 20.9441 30.3369 20.6008C30.3723 20.5658 30.419 20.5444 30.4687 20.5404C30.5183 20.5363 30.5678 20.55 30.6085 20.5789C31.1121 20.9358 31.5346 22.4283 31.5346 22.4283C32.782 27.0589 32.669 31.4071 32.669 31.4071C32.782 35.1906 32.0439 39.4259 32.0439 39.4259C31.4758 42.6446 30.6801 43.3228 30.6801 43.3228Z" fill="#5639E0"/>
<path d="M40.9042 26.028C40.1667 24.7427 34.9093 26.3747 29.1579 29.6726C23.4065 32.9706 19.3495 36.6863 20.0864 37.971C20.8234 39.2558 26.0813 37.6243 31.8327 34.3264C37.5841 31.0284 41.6411 27.3127 40.9042 26.028ZM20.7668 37.7947C20.4845 37.7592 20.5483 37.5271 20.5483 37.5271C20.8946 36.5423 21.9968 35.5156 21.9968 35.5156C24.735 32.5696 32.0282 28.7132 32.0282 28.7132C37.9842 25.9422 39.8342 26.0591 40.3035 26.1883C40.3517 26.2017 40.3935 26.2318 40.4216 26.2731C40.4498 26.3145 40.4623 26.3645 40.4571 26.4142C40.4007 27.029 39.3136 28.1377 39.3136 28.1377C35.9201 31.5254 32.092 33.5916 32.092 33.5916C28.8664 35.5731 24.8255 37.0397 24.8255 37.0397C21.7507 38.1477 20.7669 37.7947 20.7669 37.7947H20.7668Z" fill="#5639E0"/>
<path d="M40.8777 38.0144C41.6209 36.7325 37.5742 32.9999 31.8429 29.6771C26.1117 26.3543 20.855 24.7021 20.1125 25.9862C19.3699 27.2703 23.416 31.0008 29.1505 34.3236C34.885 37.6463 40.1352 39.2986 40.8777 38.0144ZM20.6049 26.4815C20.4951 26.2212 20.7269 26.1586 20.7269 26.1586C21.7529 25.9648 23.194 26.4063 23.194 26.4063C27.1148 27.2992 34.106 31.6784 34.106 31.6784C39.4888 35.4451 40.3143 37.1041 40.4381 37.5751C40.4507 37.6234 40.4457 37.6746 40.4242 37.7197C40.4028 37.7647 40.366 37.8007 40.3206 37.8213C39.7593 38.0783 38.256 37.6954 38.256 37.6954C33.6226 36.453 29.917 34.1768 29.917 34.1768C26.5875 32.381 23.2953 29.6179 23.2953 29.6179C20.7936 27.5116 20.6057 26.4844 20.6057 26.4844L20.6049 26.4815Z" fill="#5639E0"/>
<path d="M30.4668 33.3841C31.2465 33.3841 31.8786 32.7519 31.8786 31.9723C31.8786 31.1927 31.2465 30.5605 30.4668 30.5605C29.6872 30.5605 29.0551 31.1927 29.0551 31.9723C29.0551 32.7519 29.6872 33.3841 30.4668 33.3841Z" fill="#5639E0"/>
<path d="M36.2548 27.3972C36.7069 27.3972 37.0736 27.018 37.0736 26.5502C37.0736 26.0824 36.7069 25.7031 36.2548 25.7031C35.8025 25.7031 35.4359 26.0824 35.4359 26.5502C35.4359 27.018 35.8025 27.3972 36.2548 27.3972Z" fill="#5639E0"/>
<path d="M22.8155 30.2771C23.2678 30.2771 23.6344 29.8978 23.6344 29.4301C23.6344 28.9622 23.2678 28.583 22.8155 28.583C22.3633 28.583 21.9967 28.9622 21.9967 29.4301C21.9967 29.8978 22.3633 30.2771 22.8155 30.2771Z" fill="#5639E0"/>
<path d="M28.8016 40.6677C29.2538 40.6677 29.6205 40.2884 29.6205 39.8207C29.6205 39.3529 29.2538 38.9736 28.8016 38.9736C28.3494 38.9736 27.9828 39.3529 27.9828 39.8207C27.9828 40.2884 28.3494 40.6677 28.8016 40.6677Z" fill="#5639E0"/>
<circle cx="342.062" cy="32" r="14" stroke="#F1EEFF" stroke-width="2"/>
<rect x="340.813" y="24.5" width="2.5" height="15" rx="1.25" fill="#F1EEFF"/>
<rect x="349.562" y="30.75" width="2.5" height="15" rx="1.25" transform="rotate(90 349.562 30.75)" fill="#F1EEFF"/>
</svg>
