<svg width="34" height="34" viewBox="0 0 34 34" fill="#0077ff" xmlns="http://www.w3.org/2000/svg">
<path d="M30.0156 0.0664062H3.98438C1.78726 0.0664062 0 1.85367 0 4.05078V24.0391C0 26.2362 1.78726 28.0234 3.98438 28.0234H12.3018L17.0088 34.042L21.6383 28.0234H30.0156C32.2127 28.0234 34 26.2362 34 24.0391V4.05078C34 1.85367 32.2127 0.0664062 30.0156 0.0664062ZM31.3438 24.0391C31.3438 24.7713 30.7479 25.3672 30.0156 25.3672H20.3304L16.9912 29.708L13.5967 25.3672H3.98438C3.25209 25.3672 2.65625 24.7713 2.65625 24.0391V4.05078C2.65625 3.3185 3.25209 2.72266 3.98438 2.72266H30.0156C30.7479 2.72266 31.3438 3.3185 31.3438 4.05078V24.0391ZM15.607 7.50391C15.607 6.58693 16.3502 5.84375 17.2672 5.84375C18.1839 5.84375 18.9273 6.58693 18.9273 7.50391C18.9273 8.42088 18.1839 9.16406 17.2672 9.16406C16.3502 9.16406 15.607 8.42088 15.607 7.50391ZM19.0739 19.2819L20.2386 21.6692L19.3362 22.1094C18.8864 22.3291 18.4031 22.4373 17.9222 22.4373C17.2485 22.4373 16.58 22.2251 16.0151 21.8095C15.047 21.0975 14.5583 19.9172 14.7396 18.7294C14.7458 18.6879 14.7541 18.6467 14.7645 18.6059L15.8187 14.4125C15.8405 14.1471 15.6869 13.9907 15.5896 13.9191C15.4869 13.8436 15.2742 13.736 15.0073 13.8665C14.1041 14.3072 13.9181 14.3977 13.9181 14.3977L12.7549 12.0097C12.7554 12.0094 12.9422 11.9184 13.8423 11.4792C14.9227 10.9521 16.1951 11.0673 17.1634 11.7793C18.1315 12.4911 18.6202 13.6714 18.4391 14.8592C18.4327 14.9007 18.4244 14.9419 18.4142 14.9827L17.36 19.1761C17.3383 19.4415 17.4918 19.5979 17.5888 19.6695C17.6918 19.7452 17.9043 19.8526 18.1714 19.7221L19.0739 19.2819Z" fill="#0077ff"/>
</svg>
