<svg width="48" height="48" viewBox="0 0 48 48" fill="none" xmlns="http://www.w3.org/2000/svg">
<circle cx="24" cy="24" r="24" fill="#E8F3FF"/>
<path d="M30.276 11.0574C30.1524 10.9334 30.0054 10.835 29.8436 10.7679C29.6819 10.7009 29.5084 10.6665 29.3333 10.6667H18.6666C18.4915 10.6665 18.3181 10.7009 18.1563 10.7679C17.9945 10.835 17.8476 10.9334 17.724 11.0574L11.0573 17.7241C10.9332 17.8477 10.8349 17.9946 10.7678 18.1564C10.7008 18.3182 10.6664 18.4916 10.6666 18.6667V29.3334C10.6666 29.6881 10.8066 30.0267 11.0573 30.2761L17.724 36.9428C17.8476 37.0668 17.9945 37.1652 18.1563 37.2322C18.3181 37.2993 18.4915 37.3337 18.6666 37.3334H29.3333C29.688 37.3334 30.0266 37.1934 30.276 36.9428L36.9426 30.2761C37.0667 30.1525 37.1651 30.0056 37.2321 29.8438C37.2992 29.682 37.3335 29.5085 37.3333 29.3334V18.6667C37.3335 18.4916 37.2992 18.3182 37.2321 18.1564C37.1651 17.9946 37.0667 17.8477 36.9426 17.7241L30.276 11.0574ZM25.3333 30.6667H22.6666V28.0001H25.3333V30.6667ZM25.3333 25.3334H22.6666V17.3334H25.3333V25.3334Z" fill="#2787F5"/>
</svg>
