<svg width="24" height="25" viewBox="0 0 24 25" fill="none" xmlns="http://www.w3.org/2000/svg">
<path fillRule="evenodd" clipRule="evenodd" d="M12 0.5C5.37273 0.5 0 5.87273 0 12.5C0 19.1273 5.37273 24.5 12 24.5C18.6273 24.5 24 19.1273 24 12.5C24 5.87273 18.6273 0.5 12 0.5ZM16.044 9.99855C16.2427 9.7928 16.3527 9.51723 16.3502 9.2312C16.3477 8.94517 16.233 8.67155 16.0307 8.46929C15.8284 8.26703 15.5548 8.1523 15.2688 8.14981C14.9828 8.14733 14.7072 8.25728 14.5015 8.456L12 10.9575L9.49855 8.456C9.39791 8.35181 9.27754 8.2687 9.14444 8.21153C9.01135 8.15435 8.8682 8.12426 8.72335 8.123C8.5785 8.12174 8.43485 8.14934 8.30078 8.2042C8.16671 8.25905 8.04491 8.34005 7.94248 8.44248C7.84005 8.54491 7.75905 8.66671 7.7042 8.80078C7.64934 8.93485 7.62174 9.0785 7.623 9.22335C7.62426 9.3682 7.65435 9.51135 7.71153 9.64444C7.7687 9.77754 7.85181 9.89791 7.956 9.99855L10.4575 12.5L7.956 15.0015C7.85181 15.1021 7.7687 15.2225 7.71153 15.3556C7.65435 15.4887 7.62426 15.6318 7.623 15.7767C7.62174 15.9215 7.64934 16.0652 7.7042 16.1992C7.75905 16.3333 7.84005 16.4551 7.94248 16.5575C8.04491 16.66 8.16671 16.741 8.30078 16.7958C8.43485 16.8507 8.5785 16.8783 8.72335 16.877C8.8682 16.8757 9.01135 16.8456 9.14444 16.7885C9.27754 16.7313 9.39791 16.6482 9.49855 16.544L12 14.0425L14.5015 16.544C14.7072 16.7427 14.9828 16.8527 15.2688 16.8502C15.5548 16.8477 15.8284 16.733 16.0307 16.5307C16.233 16.3284 16.3477 16.0548 16.3502 15.7688C16.3527 15.4828 16.2427 15.2072 16.044 15.0015L13.5425 12.5L16.044 9.99855Z" fill="#CC3030"/>
</svg>
