<svg width="15" height="16" viewBox="0 0 15 16" fill="none" xmlns="http://www.w3.org/2000/svg">
<path d="M9.75 8L14.7656 13.0625C14.9062 13.2031 15 13.3906 15 13.5781C15 13.8125 14.9062 14 14.7656 14.0938L13.5938 15.2656C13.4531 15.4531 13.2656 15.5 13.0781 15.5C12.8438 15.5 12.6562 15.4531 12.5625 15.2656L7.5 10.25L2.4375 15.2656C2.29688 15.4531 2.10938 15.5 1.92188 15.5C1.6875 15.5 1.5 15.4531 1.40625 15.2656L0.234375 14.0938C0.046875 14 0 13.8125 0 13.5781C0 13.3906 0.046875 13.2031 0.234375 13.0625L5.25 8L0.234375 2.9375C0.046875 2.84375 0 2.65625 0 2.42188C0 2.23438 0.046875 2.04688 0.234375 1.90625L1.40625 0.734375C1.5 0.59375 1.6875 0.5 1.92188 0.5C2.10938 0.5 2.29688 0.59375 2.4375 0.734375L7.5 5.75L12.5625 0.734375C12.6562 0.59375 12.8438 0.5 13.0781 0.5C13.2656 0.5 13.4531 0.59375 13.5938 0.734375L14.7656 1.90625C14.9062 2.04688 15 2.23438 15 2.42188C15 2.65625 14.9062 2.84375 14.7656 2.9375L9.75 8Z" fill="black"/>
</svg>
