<svg width="32" height="32" viewBox="0 0 32 32" fill="none" xmlns="http://www.w3.org/2000/svg">
<path d="M22.2754 3.05736C22.1517 2.9333 22.0048 2.83491 21.843 2.76787C21.6813 2.70082 21.5078 2.66643 21.3327 2.66669H10.666C10.4909 2.66643 10.3174 2.70082 10.1557 2.76787C9.99388 2.83491 9.84696 2.9333 9.72335 3.05736L3.05668 9.72402C2.93263 9.84763 2.83424 9.99455 2.7672 10.1563C2.70015 10.3181 2.66576 10.4916 2.66602 10.6667V21.3334C2.66602 21.688 2.80602 22.0267 3.05668 22.276L9.72335 28.9427C9.84696 29.0667 9.99388 29.1651 10.1557 29.2322C10.3174 29.2992 10.4909 29.3336 10.666 29.3334H21.3327C21.6873 29.3334 22.026 29.1934 22.2754 28.9427L28.942 22.276C29.0661 22.1524 29.1645 22.0055 29.2315 21.8437C29.2986 21.6819 29.3329 21.5085 29.3327 21.3334V10.6667C29.3329 10.4916 29.2986 10.3181 29.2315 10.1563C29.1645 9.99455 29.0661 9.84763 28.942 9.72402L22.2754 3.05736ZM17.3327 22.6667H14.666V20H17.3327V22.6667ZM17.3327 17.3334H14.666V9.33335H17.3327V17.3334Z" fill="#FF900D"/>
</svg>
