<svg width="13" height="13" viewBox="0 0 13 13" fill="none" xmlns="http://www.w3.org/2000/svg">
<circle cx="6.5" cy="6.5" r="6.5" fill="#E64646"/>
<path fill-rule="evenodd" clip-rule="evenodd" d="M4.82974 4.12264C4.63555 3.92631 4.31897 3.92457 4.12264 4.11875C3.92631 4.31294 3.92457 4.62951 4.11875 4.82585L5.79673 6.52239L4.11875 8.21894C3.92457 8.41528 3.92631 8.73185 4.12264 8.92604C4.31897 9.12022 4.63555 9.11848 4.82974 8.92215L6.49998 7.23342L8.17023 8.92215C8.36441 9.11848 8.68099 9.12022 8.87732 8.92604C9.07366 8.73185 9.0754 8.41528 8.88121 8.21894L7.20323 6.52239L8.88121 4.82585C9.0754 4.62951 9.07366 4.31294 8.87732 4.11875C8.68099 3.92457 8.36441 3.92631 8.17023 4.12264L6.49998 5.81136L4.82974 4.12264Z" fill="white"/>
</svg>
