<svg width="48" height="48" viewBox="0 0 48 48" fill="none" xmlns="http://www.w3.org/2000/svg">
<circle cx="24" cy="24" r="24" fill="#FFECEC"/>
<path d="M30.2763 11.0577C30.1527 10.9336 30.0058 10.8352 29.844 10.7682C29.6822 10.7011 29.5088 10.6667 29.3337 10.667H18.667C18.4919 10.6667 18.3184 10.7011 18.1566 10.7682C17.9949 10.8352 17.8479 10.9336 17.7243 11.0577L11.0577 17.7243C10.9336 17.8479 10.8352 17.9949 10.7682 18.1566C10.7011 18.3184 10.6667 18.4919 10.667 18.667V29.3337C10.667 29.6883 10.807 30.027 11.0577 30.2763L17.7243 36.943C17.8479 37.0671 17.9949 37.1654 18.1566 37.2325C18.3184 37.2995 18.4919 37.3339 18.667 37.3337H29.3337C29.6883 37.3337 30.027 37.1937 30.2763 36.943L36.943 30.2763C37.0671 30.1527 37.1654 30.0058 37.2325 29.844C37.2995 29.6822 37.3339 29.5088 37.3337 29.3337V18.667C37.3339 18.4919 37.2995 18.3184 37.2325 18.1566C37.1654 17.9949 37.0671 17.8479 36.943 17.7243L30.2763 11.0577ZM25.3337 30.667H22.667V28.0003H25.3337V30.667ZM25.3337 25.3337H22.667V17.3337H25.3337V25.3337Z" fill="#E64646"/>
</svg>
