<svg width="42" height="42" viewBox="0 0 42 42" fill="none" xmlns="http://www.w3.org/2000/svg">
<path d="M30.3333 13.8889V17.4444C32.2889 17.4444 33.8889 19.0444 33.8889 21V33.4444C33.8889 35.4 32.2889 37 30.3333 37H12.5556C10.6 37 9 35.4 9 33.4444V21C9 19.0444 10.6 17.4444 12.5556 17.4444V13.8889C12.5556 8.98222 16.5378 5 21.4444 5C26.3511 5 30.3333 8.98222 30.3333 13.8889ZM17.8889 13.8889V17.4444H25V13.8889C25 11.9333 23.4 10.3333 21.4444 10.3333C19.4889 10.3333 17.8889 11.9333 17.8889 13.8889ZM22.8667 32.1111V28.2533C24.1111 27.7022 25 26.4578 25 25C25 23.0444 23.4 21.4444 21.4444 21.4444C19.4889 21.4444 17.8889 23.0444 17.8889 25C17.8889 26.4578 18.7778 27.7022 20.0222 28.2533V32.1111H22.8667Z" fill="#A8C3E1"/>
</svg>