<svg width="32" height="32" viewBox="0 0 32 32" fill="none" xmlns="http://www.w3.org/2000/svg">
<path d="M18.1476 28C16.633 28 15.4971 27.5699 14.8155 26.7957C14.134 25.9355 13.7553 25.0753 13.7553 24.129C13.7553 23.7849 13.8311 23.5269 13.9825 23.2688C14.134 23.0108 14.2854 22.8387 14.4369 22.7527C14.6641 22.5806 14.8913 22.4946 15.1942 22.4946C15.4971 22.4946 15.7243 22.5806 15.9515 22.7527C16.1786 22.9247 16.3301 23.0968 16.4058 23.2688C16.5573 23.5269 16.633 23.7849 16.633 24.129C16.633 24.5591 16.5573 24.9032 16.3301 25.1613C16.1786 25.4194 15.9515 25.5914 15.7243 25.6774C15.9515 26.0215 16.2544 26.1935 16.7087 26.3656C17.1631 26.5376 17.6175 26.6237 18.0718 26.6237C18.6777 26.6237 19.2835 26.4516 19.8136 26.0215C20.3437 25.6774 20.7223 25.0753 20.9495 24.3011C21.1767 23.5269 21.3282 22.6667 21.3282 21.7204C21.3282 20.6882 21.1767 19.828 20.9495 19.0538C20.6466 18.2796 20.3437 17.7634 19.8136 17.4194C19.2835 17.0753 18.7534 16.9032 18.1476 16.9032C17.7689 16.9032 17.3146 17.0753 16.7087 17.4194L15.6485 18.0215V17.4194L20.4194 10.1075H13.7553V17.6774C13.7553 18.2796 13.9068 18.7957 14.134 19.2258C14.3612 19.6559 14.7398 19.828 15.2699 19.828C15.6485 19.828 16.0272 19.6559 16.4058 19.3979C16.7845 19.0538 17.0874 18.7097 17.3146 18.3656C17.3903 18.2796 17.3903 18.1935 17.466 18.1935C17.5417 18.1075 17.5417 18.1075 17.6175 18.1075C17.6932 18.1075 17.8447 18.1935 17.9204 18.2796C18.0718 18.4516 18.0718 18.6237 18.0718 18.7957C18.0718 18.8817 17.9961 19.0538 17.9961 19.1398C17.6932 19.828 17.3903 20.3441 16.8602 20.7742C16.3301 21.2043 15.8757 21.2903 15.2699 21.2903C13.8311 21.2903 12.8466 20.9462 12.2408 20.3441C11.7107 19.7419 11.4078 18.7957 11.4078 17.7634V10.1935H8V8.73118H11.4078V5.54839L10.6505 4.68817V4H12.9223L13.7553 4.51613V8.8172H22.5398L23.3728 9.76344L17.9961 15.871C18.299 15.6989 18.6777 15.6129 18.9806 15.6129C19.5864 15.6129 20.1922 15.871 20.9495 16.2151C21.7068 16.6452 22.2369 17.1613 22.6155 17.9355C22.9942 18.6237 23.2971 19.3118 23.3728 20C23.5243 20.6882 23.6 21.2043 23.6 21.8064C23.6 23.0107 23.3728 24.043 22.9184 25.0753C22.4641 26.1075 21.8583 26.8817 20.9495 27.3118C20.1165 27.7419 19.2078 28 18.1476 28Z" fill="#6B93C0"/>
</svg>
