<svg width="10" height="20" viewBox="0 0 15 26" fill="none" xmlns="http://www.w3.org/2000/svg">
<path d="M7.40012 23.0265C6.62246 23.0265 5.87741 23.7103 5.91336 24.5132C5.94941 25.3187 6.56662 26 7.40012 26C8.17778 26 8.92283 25.3162 8.88688 24.5132C8.85083 23.7077 8.23362 23.0265 7.40012 23.0265Z" fill="white"/>
<path d="M7.39706 0C3.31832 0 0 3.31832 0 7.39706C0 8.21811 0.6657 8.88381 1.48676 8.88381C2.30781 8.88381 2.97352 8.21811 2.97352 7.39706C2.97352 4.95798 4.95798 2.97352 7.39706 2.97352C9.83613 2.97352 11.8206 4.95798 11.8206 7.39706C11.8206 9.83613 9.83613 11.8206 7.39706 11.8206C6.576 11.8206 5.9103 12.4863 5.9103 13.3074V19.3712C5.9103 20.1923 6.576 20.858 7.39706 20.858C8.21811 20.858 8.88381 20.1924 8.88381 19.3711V14.6439C12.2524 13.9539 14.7941 10.9667 14.7941 7.39706C14.7941 3.31832 11.4758 0 7.39706 0Z" fill="white"/>
</svg>
