<svg width="48" height="48" viewBox="0 0 48 48" fill="none" xmlns="http://www.w3.org/2000/svg">
<circle cx="24" cy="24" r="24" fill="#E64646"/>
<g clip-path="url(#clip0)">
<path d="M32.7478 14.0868L16.0705 30.9136L16.0592 25.3769C16.0579 24.7591 15.556 24.2593 14.9382 24.2606C14.3203 24.2619 13.8206 24.7638 13.8218 25.3816L13.8387 33.6282C13.8386 33.6287 13.8387 33.6292 13.8387 33.6297C13.8408 34.2467 14.3445 34.7479 14.9635 34.7446C14.964 34.7445 14.9645 34.7446 14.9649 34.7446L23.2113 34.6879C23.829 34.6836 24.3266 34.1795 24.3223 33.5615C24.3181 32.9437 23.8139 32.4463 23.1961 32.4505L17.6596 32.4886L34.3369 15.6618C34.7718 15.223 34.7687 14.5147 34.3298 14.0798C33.891 13.6449 33.1827 13.648 32.7478 14.0868Z" fill="white"/>
</g>
<defs>
<clipPath id="clip0">
<rect width="28.6381" height="28.6381" fill="white" transform="translate(4 24.3403) rotate(-45.2556)"/>
</clipPath>
</defs>
</svg>
