<svg width="48" height="48" viewBox="0 0 48 48" fill="none" xmlns="http://www.w3.org/2000/svg">
<circle cx="24" cy="24" r="24" fill="#E64646"/>
<path d="M15.8577 34.5L32.3568 17.4985L32.4264 23.0347C32.4342 23.6525 32.9413 24.147 33.5591 24.1392C34.1769 24.1314 34.6714 23.6242 34.6636 23.0065L34.5599 14.7605C34.5599 14.76 34.5598 14.7595 34.5598 14.7591C34.5512 14.1421 34.0423 13.6462 33.4234 13.656C33.4229 13.6561 33.4224 13.656 33.4219 13.656L25.1766 13.7996C24.5589 13.8104 24.0667 14.3198 24.0775 14.9376C24.0882 15.5554 24.5977 16.0474 25.2154 16.0367L30.7512 15.9403L14.2521 32.9419C13.8218 33.3852 13.8324 34.0934 14.2758 34.5237C14.7192 34.954 15.4274 34.9434 15.8577 34.5Z" fill="white"/>
</svg>
