<svg width="48" height="48" viewBox="0 0 48 48" fill="none" xmlns="http://www.w3.org/2000/svg">
<circle cx="24" cy="24" r="24" fill="#E64646"/>
<path d="M23.4159 12.9195V26.0532L20.9257 23.6085C20.5606 23.2501 19.9696 23.2511 19.6058 23.6108C19.2419 23.9705 19.2429 24.5527 19.6081 24.9111L23.7291 28.9567C24.0933 29.3143 24.6825 29.3143 25.0467 28.9567L29.1678 24.9111C29.5329 24.5527 29.534 23.9705 29.1701 23.6108C28.8063 23.2511 28.2153 23.2501 27.8502 23.6085L25.2826 26.1291V12.9195C25.2826 12.4117 24.8647 12 24.3493 12C23.8338 12 23.4159 12.4117 23.4159 12.9195Z" fill="white"/>
<path d="M11.8667 25.7249C11.8667 25.2171 11.4488 24.8054 10.9333 24.8054C10.4179 24.8054 10 25.2171 10 25.7249V33.0805C10 33.5883 10.4179 34 10.9333 34H37.0667C37.5821 34 38 33.5883 38 33.0805V25.7249C38 25.2171 37.5821 24.8054 37.0667 24.8054C36.5512 24.8054 36.1333 25.2171 36.1333 25.7249V32.1611H11.8667V25.7249Z" fill="white"/>
</svg>
