<svg width="32" height="32" viewBox="0 0 32 32" fill="none" xmlns="http://www.w3.org/2000/svg">
<path fill-rule="evenodd" clip-rule="evenodd" d="M17.3337 4.00033C17.3337 3.6467 17.1932 3.30756 16.9431 3.05752C16.6931 2.80747 16.3539 2.66699 16.0003 2.66699C15.6467 2.66699 15.3076 2.80747 15.0575 3.05752C14.8075 3.30756 14.667 3.6467 14.667 4.00033V5.33366C14.667 5.68728 14.8075 6.02642 15.0575 6.27647C15.3076 6.52652 15.6467 6.66699 16.0003 6.66699C16.3539 6.66699 16.6931 6.52652 16.9431 6.27647C17.1932 6.02642 17.3337 5.68728 17.3337 5.33366V4.00033ZM8.27633 6.39099C8.02486 6.14812 7.68805 6.01372 7.33846 6.01676C6.98886 6.0198 6.65445 6.16002 6.40723 6.40723C6.16002 6.65445 6.0198 6.98886 6.01676 7.33846C6.01372 7.68805 6.14812 8.02486 6.39099 8.27633L7.72433 9.60966C7.9758 9.85254 8.3126 9.98693 8.66219 9.98389C9.01179 9.98085 9.34621 9.84063 9.59342 9.59342C9.84063 9.34621 9.98085 9.01179 9.98389 8.66219C9.98693 8.3126 9.85254 7.9758 9.60966 7.72433L8.27633 6.39099ZM25.6097 8.27633C25.8525 8.02486 25.9869 7.68805 25.9839 7.33846C25.9809 6.98886 25.8406 6.65445 25.5934 6.40723C25.3462 6.16002 25.0118 6.0198 24.6622 6.01676C24.3126 6.01372 23.9758 6.14812 23.7243 6.39099L22.391 7.72433C22.1481 7.9758 22.0137 8.3126 22.0168 8.66219C22.0198 9.01179 22.16 9.34621 22.4072 9.59342C22.6544 9.84063 22.9889 9.98085 23.3385 9.98389C23.6881 9.98693 24.0249 9.85254 24.2763 9.60966L25.6097 8.27633ZM16.0003 8.00033C14.2817 8.00022 12.6087 8.55357 11.2291 9.57845C9.84953 10.6033 8.83666 12.0452 8.34048 13.6907C7.84431 15.3361 7.89121 17.0976 8.47425 18.7143C9.05729 20.331 10.1455 21.717 11.5777 22.667H20.423C21.8552 21.717 22.9434 20.331 23.5264 18.7143C24.1094 17.0976 24.1563 15.3361 23.6602 13.6907C23.164 12.0452 22.1511 10.6033 20.7715 9.57845C19.3919 8.55357 17.719 8.00022 16.0003 8.00033ZM20.0003 24.0003H12.0003V25.3337C12.0003 26.3945 12.4218 27.4119 13.1719 28.1621C13.922 28.9122 14.9395 29.3337 16.0003 29.3337C17.0612 29.3337 18.0786 28.9122 18.8288 28.1621C19.5789 27.4119 20.0003 26.3945 20.0003 25.3337V24.0003ZM4.00033 14.667C3.6467 14.667 3.30756 14.8075 3.05752 15.0575C2.80747 15.3076 2.66699 15.6467 2.66699 16.0003C2.66699 16.3539 2.80747 16.6931 3.05752 16.9431C3.30756 17.1932 3.6467 17.3337 4.00033 17.3337H5.33366C5.68728 17.3337 6.02642 17.1932 6.27647 16.9431C6.52652 16.6931 6.66699 16.3539 6.66699 16.0003C6.66699 15.6467 6.52652 15.3076 6.27647 15.0575C6.02642 14.8075 5.68728 14.667 5.33366 14.667H4.00033ZM26.667 14.667C26.3134 14.667 25.9742 14.8075 25.7242 15.0575C25.4741 15.3076 25.3337 15.6467 25.3337 16.0003C25.3337 16.3539 25.4741 16.6931 25.7242 16.9431C25.9742 17.1932 26.3134 17.3337 26.667 17.3337H28.0003C28.3539 17.3337 28.6931 17.1932 28.9431 16.9431C29.1932 16.6931 29.3337 16.3539 29.3337 16.0003C29.3337 15.6467 29.1932 15.3076 28.9431 15.0575C28.6931 14.8075 28.3539 14.667 28.0003 14.667H26.667Z" fill="#FF900D"/>
</svg>
