<svg width="32" height="32" viewBox="0 0 32 32" fill="none" xmlns="http://www.w3.org/2000/svg">
<circle cx="16" cy="16" r="16" fill="#FA3B33"/>
<g clip-path="url(#clip0_2971_164002)">
<path d="M10.8021 22.4371L20.1624 12.6767L20.2208 15.8366C20.2274 16.1892 20.5185 16.4697 20.8711 16.4632C21.2238 16.4567 21.5043 16.1655 21.4978 15.8129L21.4107 11.1064C21.4107 11.1061 21.4107 11.1058 21.4106 11.1056C21.4037 10.7534 21.1115 10.4721 20.7582 10.4798C20.7579 10.4798 20.7577 10.4798 20.7574 10.4798L16.0514 10.5896C15.6988 10.5979 15.4196 10.8903 15.4278 11.2429C15.4361 11.5955 15.7285 11.8747 16.0811 11.8665L19.2406 11.7927L9.88031 21.5532C9.6362 21.8077 9.64466 22.2119 9.8992 22.456C10.1537 22.7001 10.558 22.6917 10.8021 22.4371Z" fill="white"/>
</g>
<defs>
<clipPath id="clip0_2971_164002">
<rect width="16.3472" height="16.3472" fill="white" transform="translate(27.1133 16.3149) rotate(133.801)"/>
</clipPath>
</defs>
</svg>
