<svg width="20" height="20" viewBox="0 0 20 20" fill="none" xmlns="http://www.w3.org/2000/svg">
<path d="M6.11543 8.40416L9.99939 4.5203L13.8854 8.40621L16.1454 6.14622L9.99939 0L3.85547 6.14417L6.11543 8.40416Z" fill="white"/>
<path d="M4.52164 9.99921L2.26172 7.73926L0.00168788 9.99932L2.26161 12.2593L4.52164 9.99921Z" fill="white"/>
<path d="M6.11484 11.5961L9.9988 15.48L13.8847 11.5942L16.1459 13.853L16.1448 13.8542L9.9988 20.0003L3.85472 13.8563L3.85156 13.8531L6.11484 11.5961Z" fill="white"/>
<path d="M17.74 12.261L20 10.001L17.7401 7.74102L15.48 10.0011L17.74 12.261Z" fill="white"/>
<path d="M12.2938 9.99889H12.2947L10.0014 7.70557L8.30665 9.40036H8.3065L8.11189 9.59513L7.71019 9.99683L7.70703 9.99999L7.71019 10.0033L10.0014 12.2946L12.2947 10.0013L12.2958 9.99999L12.2938 9.99889Z" fill="white"/>
</svg>
