<svg width="34" height="34" viewBox="0 0 34 34" fill="none" xmlns="http://www.w3.org/2000/svg">
<rect width="34" height="34" rx="4" fill="#2787F5"/>
<path d="M17.0246 6.53076C15.7293 6.53076 14.679 11.229 14.679 17.0246C14.679 22.8202 15.7293 27.5185 17.0246 27.5185C18.3199 27.5185 19.3703 22.8202 19.3703 17.0246C19.3703 11.229 18.3199 6.53076 17.0246 6.53076ZM17.1866 26.9263C17.0384 27.1238 16.8903 26.9756 16.8903 26.9756C16.2938 26.2844 15.9955 25.0003 15.9955 25.0003C14.9521 21.6423 15.2004 14.4324 15.2004 14.4324C15.6908 8.70852 16.5828 7.35636 16.8864 7.05617C16.9174 7.02554 16.9582 7.00681 17.0017 7.00329C17.0451 6.99979 17.0884 7.01171 17.1239 7.03697C17.5643 7.34907 17.9337 8.65428 17.9337 8.65428C19.0246 12.7037 18.9258 16.5061 18.9258 16.5061C19.0246 19.8148 18.3792 23.5184 18.3792 23.5184C17.8824 26.3332 17.1866 26.9263 17.1866 26.9263Z" fill="white"/>
<path d="M26.1269 11.8025C25.482 10.6785 20.8844 12.1056 15.8549 14.9897C10.8253 17.8737 7.27757 21.123 7.92202 22.2465C8.56646 23.37 13.1645 21.9433 18.194 19.0593C23.2236 16.1753 26.7713 12.926 26.1269 11.8025ZM8.51702 22.0923C8.27011 22.0612 8.32589 21.8583 8.32589 21.8583C8.62877 20.9971 9.59261 20.0993 9.59261 20.0993C11.9871 17.523 18.365 14.1506 18.365 14.1506C23.5734 11.7274 25.1912 11.8296 25.6016 11.9426C25.6437 11.9544 25.6803 11.9807 25.7049 12.0168C25.7295 12.053 25.7405 12.0967 25.736 12.1402C25.6866 12.6778 24.7359 13.6474 24.7359 13.6474C21.7684 16.6099 18.4208 18.4168 18.4208 18.4168C15.6 20.1496 12.0662 21.432 12.0662 21.432C9.37738 22.401 8.51712 22.0923 8.51712 22.0923H8.51702Z" fill="white"/>
<path d="M26.1042 22.2841C26.7541 21.1631 23.2153 17.8989 18.2034 14.9932C13.1915 12.0874 8.59458 10.6426 7.94524 11.7655C7.29589 12.8885 10.8342 16.1507 15.8489 19.0565C20.8637 21.9622 25.4549 23.4071 26.1042 22.2841ZM8.37589 12.1987C8.27989 11.9711 8.48255 11.9163 8.48255 11.9163C9.37977 11.7468 10.6401 12.1329 10.6401 12.1329C14.0687 12.9137 20.1825 16.7433 20.1825 16.7433C24.8896 20.0372 25.6115 21.488 25.7197 21.8999C25.7308 21.9421 25.7265 21.9869 25.7076 22.0263C25.6889 22.0657 25.6568 22.0972 25.617 22.1152C25.1262 22.3399 23.8115 22.0051 23.8115 22.0051C19.7597 20.9187 16.5192 18.9281 16.5192 18.9281C13.6076 17.3577 10.7286 14.9414 10.7286 14.9414C8.54092 13.0995 8.37657 12.2012 8.37657 12.2012L8.37589 12.1987Z" fill="white"/>
<path d="M16.9999 18.2347C17.6817 18.2347 18.2345 17.682 18.2345 17.0002C18.2345 16.3184 17.6817 15.7656 16.9999 15.7656C16.3181 15.7656 15.7654 16.3184 15.7654 17.0002C15.7654 17.682 16.3181 18.2347 16.9999 18.2347Z" fill="white"/>
<path d="M22.0618 13C22.4572 13 22.7778 12.6684 22.7778 12.2593C22.7778 11.8502 22.4572 11.5186 22.0618 11.5186C21.6662 11.5186 21.3457 11.8502 21.3457 12.2593C21.3457 12.6684 21.6662 13 22.0618 13Z" fill="white"/>
<path d="M10.3086 15.5186C10.7041 15.5186 11.0247 15.1869 11.0247 14.7778C11.0247 14.3688 10.7041 14.0371 10.3086 14.0371C9.91312 14.0371 9.59253 14.3688 9.59253 14.7778C9.59253 15.1869 9.91312 15.5186 10.3086 15.5186Z" fill="white"/>
<path d="M15.5432 24.605C15.9386 24.605 16.2593 24.2733 16.2593 23.8643C16.2593 23.4552 15.9386 23.1235 15.5432 23.1235C15.1478 23.1235 14.8271 23.4552 14.8271 23.8643C14.8271 24.2733 15.1478 24.605 15.5432 24.605Z" fill="white"/>
</svg>
