<svg width="24" height="24" viewBox="0 0 24 24" fill="none" xmlns="http://www.w3.org/2000/svg">
<path d="M12.0246 1.53125C10.7293 1.53125 9.67896 6.22949 9.67896 12.0251C9.67896 17.8207 10.7293 22.519 12.0246 22.519C13.3199 22.519 14.3703 17.8207 14.3703 12.0251C14.3703 6.22949 13.3199 1.53125 12.0246 1.53125ZM12.1866 21.9267C12.0384 22.1243 11.8903 21.9761 11.8903 21.9761C11.2938 21.2849 10.9955 20.0008 10.9955 20.0008C9.95208 16.6428 10.2004 9.43291 10.2004 9.43291C10.6908 3.70901 11.5828 2.35685 11.8864 2.05666C11.9174 2.02602 11.9582 2.00729 12.0017 2.00378C12.0451 2.00028 12.0884 2.0122 12.1239 2.03746C12.5643 2.34955 12.9337 3.65477 12.9337 3.65477C14.0246 7.70415 13.9258 11.5066 13.9258 11.5066C14.0246 14.8153 13.3792 18.5189 13.3792 18.5189C12.8824 21.3337 12.1866 21.9267 12.1866 21.9267Z" fill="white"/>
<path d="M21.1269 6.80296C20.482 5.67899 15.8844 7.10613 10.8549 9.99016C5.82534 12.8742 2.27757 16.1235 2.92202 17.247C3.56646 18.3705 8.16448 16.9438 13.194 14.0598C18.2236 11.1758 21.7713 7.92645 21.1269 6.80296ZM3.51702 17.0928C3.27011 17.0617 3.32589 16.8588 3.32589 16.8588C3.62877 15.9976 4.59261 15.0998 4.59261 15.0998C6.98714 12.5235 13.365 9.15112 13.365 9.15112C18.5734 6.72789 20.1912 6.83013 20.6016 6.94312C20.6437 6.95488 20.6803 6.98116 20.7049 7.01733C20.7295 7.05349 20.7405 7.09719 20.736 7.14069C20.6866 7.67829 19.7359 8.64789 19.7359 8.64789C16.7684 11.6104 13.4208 13.4173 13.4208 13.4173C10.6 15.1501 7.06624 16.4325 7.06624 16.4325C4.37738 17.4015 3.51712 17.0928 3.51712 17.0928H3.51702Z" fill="white"/>
<path d="M21.1042 17.2841C21.7541 16.1631 18.2153 12.8989 13.2034 9.99316C8.19154 7.08743 3.59458 5.64263 2.94524 6.76555C2.29589 7.88846 5.83417 11.1507 10.8489 14.0565C15.8637 16.9622 20.4549 18.4071 21.1042 17.2841ZM3.37589 7.1987C3.27989 6.97108 3.48255 6.91627 3.48255 6.91627C4.37977 6.74683 5.64005 7.13294 5.64005 7.13294C9.06869 7.91371 15.1825 11.7433 15.1825 11.7433C19.8896 15.0372 20.6115 16.488 20.7197 16.8999C20.7308 16.9421 20.7265 16.9869 20.7076 17.0263C20.6889 17.0657 20.6568 17.0972 20.617 17.1152C20.1262 17.3399 18.8115 17.0051 18.8115 17.0051C14.7597 15.9187 11.5192 13.9281 11.5192 13.9281C8.60761 12.3577 5.72857 9.94142 5.72857 9.94142C3.54092 8.09947 3.37657 7.20119 3.37657 7.20119L3.37589 7.1987Z" fill="white"/>
<path d="M11.9999 13.2347C12.6817 13.2347 13.2345 12.682 13.2345 12.0002C13.2345 11.3184 12.6817 10.7656 11.9999 10.7656C11.3181 10.7656 10.7654 11.3184 10.7654 12.0002C10.7654 12.682 11.3181 13.2347 11.9999 13.2347Z" fill="white"/>
<path d="M17.0618 8.00002C17.4572 8.00002 17.7778 7.66838 17.7778 7.25929C17.7778 6.8502 17.4572 6.51855 17.0618 6.51855C16.6662 6.51855 16.3457 6.8502 16.3457 7.25929C16.3457 7.66838 16.6662 8.00002 17.0618 8.00002Z" fill="white"/>
<path d="M5.30859 10.5186C5.70406 10.5186 6.02466 10.1869 6.02466 9.77785C6.02466 9.36875 5.70406 9.03711 5.30859 9.03711C4.91312 9.03711 4.59253 9.36875 4.59253 9.77785C4.59253 10.1869 4.91312 10.5186 5.30859 10.5186Z" fill="white"/>
<path d="M10.5432 19.6045C10.9386 19.6045 11.2593 19.2728 11.2593 18.8638C11.2593 18.4547 10.9386 18.123 10.5432 18.123C10.1478 18.123 9.82715 18.4547 9.82715 18.8638C9.82715 19.2728 10.1478 19.6045 10.5432 19.6045Z" fill="white"/>
</svg>
