<svg width="22" height="22" viewBox="0 0 22 22" fill="none" xmlns="http://www.w3.org/2000/svg">
<path d="M9.49843 0.0983764C7.09592 0.462524 4.85818 1.57608 3.17323 3.2596C1.669 4.75841 0.648466 6.65303 0.143513 8.87486C0.0053153 9.49232 0 9.57676 0 10.9964C0 12.4161 0.0053153 12.5005 0.143513 13.118C0.898285 16.4533 2.83837 19.0604 5.74583 20.649C7.32447 21.5039 9.23798 22 10.9973 22C11.7946 22 12.8205 21.8733 13.5487 21.6886C14.1174 21.5461 15.3453 21.1239 15.6748 20.9603C16.2595 20.6701 17.0196 20.2268 17.3225 19.9998C17.9391 19.546 18.072 19.4351 18.6088 18.9338C19.7569 17.8677 20.6765 16.5167 21.2718 15.0337C21.8512 13.5771 22 12.7538 22 10.9964C22 9.239 21.8512 8.41571 21.2718 6.95912C20.6765 5.47615 19.7569 4.12511 18.6088 3.05906C18.072 2.55769 17.9391 2.44687 17.3225 1.993C17.0196 1.76607 16.2595 1.32276 15.6748 1.0325C15.3453 0.868893 14.1174 0.446691 13.5487 0.304199C12.3209 -0.00717373 10.7475 -0.0863361 9.49843 0.0983764ZM12.273 1.04833C13.4105 1.17499 13.9367 1.32276 15.2124 1.86106C16.9026 2.56825 18.6567 4.13039 19.7197 5.87724C19.9536 6.25722 20.4586 7.34966 20.5861 7.75075C20.7243 8.17295 20.9369 9.07012 21.0273 9.59787C21.1123 10.1151 21.1123 11.8778 21.0273 12.3949C20.9369 12.9227 20.7243 13.8199 20.5861 14.2421C20.4586 14.6432 19.9536 15.7356 19.7197 16.1156C18.6567 17.8624 16.9026 19.4246 15.2124 20.1318C13.9367 20.6701 13.4105 20.8178 12.273 20.9445C11.1462 21.0764 10.8485 21.0764 9.72167 20.9445C8.56294 20.8126 8.12708 20.6912 6.71853 20.1001C6.31457 19.9365 5.43223 19.4193 5.04421 19.129C3.68881 18.1105 2.57792 16.7858 1.91882 15.4031C1.3554 14.2157 1.18531 13.6668 1.03117 12.5586C0.892969 11.5558 0.892969 10.437 1.03117 9.43427C1.18531 8.326 1.3554 7.77714 1.91882 6.5897C2.57792 5.207 3.68881 3.88235 5.04421 2.86379C5.43223 2.57353 6.31457 2.05633 6.71853 1.89273C8.09519 1.3122 8.57357 1.18027 9.65257 1.04833C10.7263 0.921668 11.1887 0.921668 12.273 1.04833Z" fill="white"/>
<path d="M10.6093 4.5839C8.91907 4.795 7.57962 5.5444 6.83016 6.69489C6.44214 7.29125 6.37836 7.52346 6.37836 8.33092C6.37836 8.93783 6.3943 9.09088 6.4953 9.37586C6.74511 10.0778 7.22881 10.7005 7.90385 11.2072C8.2334 11.4552 9.67384 12.1782 10.2107 12.3629C10.4392 12.4421 10.9708 12.6796 11.396 12.8854C12.0338 13.202 12.2199 13.3234 12.5175 13.6084C12.9215 14.0042 13.065 14.247 13.15 14.7009C13.2936 15.5136 12.8258 16.0519 11.6618 16.4108C10.7582 16.6905 9.48781 16.4952 8.30781 15.8989C8.0261 15.7616 7.34574 15.2392 6.96836 14.8856L6.71854 14.6428L6.41557 14.9278C6.24548 15.0861 6.10196 15.2181 6.09133 15.2233C5.95314 15.2761 6.93115 16.1416 7.54241 16.5058C8.4779 17.0705 9.02006 17.2604 10.0619 17.4135C10.7103 17.5032 11.6405 17.4452 12.4856 17.2552C14.3354 16.8435 15.6535 15.7616 15.9672 14.4053C16.0681 13.9726 16.0097 13.1387 15.8449 12.7007C15.3772 11.4235 14.3885 10.6372 11.9063 9.56585C10.6093 9.00116 9.71636 8.3573 9.42934 7.77678C9.25393 7.42846 9.21673 6.74239 9.34961 6.47851C9.48781 6.20936 9.68979 6.01937 10.0406 5.8241C10.8698 5.36496 11.885 5.37024 13.0544 5.83466C13.6231 6.06159 14.1174 6.39935 14.6968 6.95877C14.9413 7.19098 15.1539 7.37569 15.1752 7.37041C15.1911 7.35986 15.3453 7.22792 15.5154 7.07487L15.8183 6.80044L15.51 6.46796C14.9094 5.8241 14.3991 5.44412 13.6018 5.04304C12.8896 4.68945 11.497 4.47835 10.6093 4.5839ZM8.34502 6.69489C8.2706 7.14876 8.37159 7.66595 8.63204 8.22009C8.87655 8.72145 9.21673 9.0856 9.88114 9.53946C10.2479 9.79278 11.6033 10.4736 12.3793 10.7955C12.5547 10.8694 13.0065 11.1069 13.3786 11.3285C14.4363 11.9513 14.9307 12.5582 15.0689 13.3973C15.1805 14.0992 14.9998 14.6745 14.4948 15.1969C14.0483 15.6666 14.0058 15.6772 14.0749 15.313C14.144 14.9383 14.0536 14.3473 13.8623 13.8459C13.74 13.5398 13.6444 13.4079 13.3148 13.0807C12.9055 12.6743 12.5069 12.3893 12.0498 12.1571C11.6086 11.9407 9.98213 11.2335 9.91303 11.2335C9.82267 11.2335 9.24862 10.9433 8.74367 10.6372C8.29187 10.3628 7.87196 9.98277 7.6434 9.65029C7.44142 9.34947 7.28196 8.64229 7.31917 8.17259C7.36169 7.56568 7.51583 7.22792 7.95169 6.76878C8.15898 6.5524 8.34502 6.37824 8.36096 6.37824C8.38223 6.37824 8.37691 6.52073 8.34502 6.69489Z" fill="white"/>
</svg>
