<svg width="22" height="22" viewBox="0 0 22 22" fill="none" xmlns="http://www.w3.org/2000/svg">
<path d="M9.49843 0.0983764C7.09592 0.462524 4.85818 1.57608 3.17323 3.2596C1.669 4.75841 0.648466 6.65303 0.143513 8.87486C0.0053153 9.49232 0 9.57676 0 10.9964C0 12.4161 0.0053153 12.5005 0.143513 13.118C0.898285 16.4533 2.83837 19.0604 5.74583 20.649C7.32447 21.5039 9.23798 22 10.9973 22C11.7946 22 12.8205 21.8733 13.5487 21.6886C14.1174 21.5461 15.3453 21.1239 15.6748 20.9603C16.2595 20.6701 17.0196 20.2268 17.3225 19.9998C17.9391 19.546 18.072 19.4351 18.6088 18.9338C19.7569 17.8677 20.6765 16.5167 21.2718 15.0337C21.8512 13.5771 22 12.7538 22 10.9964C22 9.239 21.8512 8.41571 21.2718 6.95912C20.6765 5.47615 19.7569 4.12511 18.6088 3.05906C18.072 2.55769 17.9391 2.44687 17.3225 1.993C17.0196 1.76607 16.2595 1.32276 15.6748 1.0325C15.3453 0.868893 14.1174 0.446691 13.5487 0.304199C12.3209 -0.00717373 10.7475 -0.0863361 9.49843 0.0983764ZM12.273 1.04833C13.4105 1.17499 13.9367 1.32276 15.2124 1.86106C16.9026 2.56825 18.6567 4.13039 19.7197 5.87724C19.9536 6.25722 20.4586 7.34966 20.5861 7.75075C20.7243 8.17295 20.9369 9.07012 21.0273 9.59787C21.1123 10.1151 21.1123 11.8778 21.0273 12.3949C20.9369 12.9227 20.7243 13.8199 20.5861 14.2421C20.4586 14.6432 19.9536 15.7356 19.7197 16.1156C18.6567 17.8624 16.9026 19.4246 15.2124 20.1318C13.9367 20.6701 13.4105 20.8178 12.273 20.9445C11.1462 21.0764 10.8485 21.0764 9.72167 20.9445C8.56294 20.8126 8.12708 20.6912 6.71853 20.1001C6.31457 19.9365 5.43223 19.4193 5.04421 19.129C3.68881 18.1105 2.57792 16.7858 1.91882 15.4031C1.3554 14.2157 1.18531 13.6668 1.03117 12.5586C0.892969 11.5558 0.892969 10.437 1.03117 9.43427C1.18531 8.326 1.3554 7.77714 1.91882 6.5897C2.57792 5.207 3.68881 3.88235 5.04421 2.86379C5.43223 2.57353 6.31457 2.05633 6.71853 1.89273C8.09519 1.3122 8.57357 1.18027 9.65257 1.04833C10.7263 0.921668 11.1887 0.921668 12.273 1.04833Z" fill="#792EC0"/>
<path d="M10.6093 4.58438C8.91907 4.79548 7.57962 5.54488 6.83016 6.69538C6.44214 7.29174 6.37836 7.52395 6.37836 8.3314C6.37836 8.93832 6.3943 9.09136 6.4953 9.37635C6.74511 10.0783 7.22881 10.701 7.90385 11.2076C8.2334 11.4557 9.67384 12.1787 10.2107 12.3634C10.4392 12.4426 10.9708 12.6801 11.396 12.8859C12.0338 13.2025 12.2199 13.3239 12.5175 13.6089C12.9215 14.0047 13.065 14.2475 13.15 14.7013C13.2936 15.5141 12.8258 16.0524 11.6618 16.4113C10.7582 16.691 9.48781 16.4957 8.30781 15.8993C8.0261 15.7621 7.34574 15.2397 6.96836 14.8861L6.71854 14.6433L6.41557 14.9283C6.24548 15.0866 6.10196 15.2185 6.09133 15.2238C5.95314 15.2766 6.93115 16.1421 7.54241 16.5063C8.4779 17.0709 9.02006 17.2609 10.0619 17.414C10.7103 17.5037 11.6405 17.4456 12.4856 17.2557C14.3354 16.844 15.6535 15.7621 15.9672 14.4058C16.0681 13.9731 16.0097 13.1392 15.8449 12.7012C15.3772 11.424 14.3885 10.6377 11.9063 9.56634C10.6093 9.00165 9.71636 8.35779 9.42934 7.77727C9.25393 7.42895 9.21673 6.74288 9.34961 6.479C9.48781 6.20985 9.68979 6.01986 10.0406 5.82459C10.8698 5.36545 11.885 5.37073 13.0544 5.83515C13.6231 6.06208 14.1174 6.39984 14.6968 6.95925C14.9413 7.19146 15.1539 7.37618 15.1752 7.3709C15.1911 7.36034 15.3453 7.22841 15.5154 7.07536L15.8183 6.80093L15.51 6.46845C14.9094 5.82459 14.3991 5.44461 13.6018 5.04353C12.8896 4.68993 11.497 4.47883 10.6093 4.58438ZM8.34502 6.69538C8.2706 7.14924 8.37159 7.66644 8.63204 8.22058C8.87655 8.72194 9.21673 9.08609 9.88114 9.53995C10.2479 9.79327 11.6033 10.4741 12.3793 10.796C12.5547 10.8699 13.0065 11.1074 13.3786 11.329C14.4363 11.9518 14.9307 12.5587 15.0689 13.3978C15.1805 14.0997 14.9998 14.675 14.4948 15.1974C14.0483 15.6671 14.0058 15.6777 14.0749 15.3135C14.144 14.9388 14.0536 14.3478 13.8623 13.8464C13.74 13.5403 13.6444 13.4084 13.3148 13.0812C12.9055 12.6748 12.5069 12.3898 12.0498 12.1576C11.6086 11.9412 9.98213 11.234 9.91303 11.234C9.82267 11.234 9.24862 10.9438 8.74367 10.6377C8.29187 10.3632 7.87196 9.98326 7.6434 9.65078C7.44142 9.34996 7.28196 8.64278 7.31917 8.17308C7.36169 7.56617 7.51583 7.22841 7.95169 6.76926C8.15898 6.55289 8.34502 6.37873 8.36096 6.37873C8.38223 6.37873 8.37691 6.52122 8.34502 6.69538Z" fill="#792EC0"/>
</svg>
