<svg width="32" height="31" viewBox="0 0 32 31" fill="none" xmlns="http://www.w3.org/2000/svg">
<g clip-path="url(#clip0)">
<path d="M16.6389 5.4641L7.80165 16.903L7.37986 13.5513C7.33277 13.1773 6.99141 12.9123 6.6174 12.9594C6.24336 13.0064 5.97835 13.3478 6.02542 13.7218L6.65371 18.714C6.65372 18.7144 6.65381 18.7146 6.65384 18.7149C6.70135 19.0884 7.04392 19.3541 7.41847 19.3057C7.41878 19.3057 7.41907 19.3057 7.41936 19.3056L12.4085 18.6532C12.7822 18.6043 13.0457 18.2618 12.9968 17.8879C12.9479 17.5141 12.6053 17.2507 12.2315 17.2996L8.88193 17.7376L17.7192 6.29868C17.9497 6.00036 17.8947 5.57172 17.5964 5.34125C17.298 5.11079 16.8694 5.16579 16.6389 5.4641Z" fill="white"/>
</g>
<g clip-path="url(#clip1)">
<path d="M15.3171 24.7981L24.1544 13.3592L24.5762 16.7109C24.6233 17.0849 24.9646 17.3499 25.3387 17.3029C25.7127 17.2558 25.9777 16.9144 25.9306 16.5404L25.3023 11.5482C25.3023 11.5479 25.3022 11.5476 25.3022 11.5473C25.2547 11.1738 24.9121 10.9081 24.5376 10.9565C24.5373 10.9565 24.537 10.9565 24.5367 10.9566L19.5476 11.609C19.1739 11.6579 18.9104 12.0004 18.9593 12.3743C19.0081 12.7481 19.3507 13.0115 19.7245 12.9626L23.0741 12.5246L14.2368 23.9635C14.0064 24.2618 14.0614 24.6905 14.3597 24.921C14.658 25.1514 15.0866 25.0964 15.3171 24.7981Z" fill="white"/>
</g>
<defs>
<clipPath id="clip0">
<rect width="17.4733" height="17.4733" fill="white" transform="translate(0 13.8276) rotate(-52.3117)"/>
</clipPath>
<clipPath id="clip1">
<rect width="17.4733" height="17.4733" fill="white" transform="translate(31.9561 16.4346) rotate(127.688)"/>
</clipPath>
</defs>
</svg>
