<svg width="18" height="25" viewBox="0 0 18 25" fill="none" xmlns="http://www.w3.org/2000/svg">
<path d="M17.5495 12.4793L17.5354 12.4229C15.4574 5.90692 9.26581 1.2809 9.00251 1.08813L8.20331 0.500488L8.25506 1.48773C8.25506 1.53008 8.40075 5.35691 4.69143 8.53962C0.662445 11.9998 0.685906 14.8535 0.695351 16.3861L0.700125 16.5976C0.700125 20.7771 3.76726 23.902 8.15538 24.4172C7.9165 24.3796 7.6725 24.3309 7.42763 24.2561C6.01251 23.8189 5.18513 22.8269 5.02527 21.3976L4.98769 21.1156C4.86074 20.0108 4.69621 18.6427 7.11263 16.0476C8.01527 15.0791 8.8004 14.0354 9.44918 12.9494L9.77357 12.4041L10.2014 12.8742C11.4801 14.2704 12.458 15.6808 13.1162 17.0536C13.7226 18.2666 13.7603 20.1847 13.7132 20.5937C13.4828 22.6811 11.9737 24.2372 9.95217 24.4629C9.82039 24.4779 9.62316 24.4925 9.38169 24.4978C9.40292 24.498 9.42313 24.5004 9.44446 24.5004C14.2209 24.5004 17.9585 20.6595 17.9585 15.7561C17.9585 14.5808 17.5636 12.5639 17.5495 12.4793Z" fill="#979EFE"/>
</svg>
