<svg width="49" height="32" viewBox="0 0 49 32" fill="none" xmlns="http://www.w3.org/2000/svg">
<g clip-path="url(#clip0)">
<path d="M29.8651 12.0387H36.3267V9.03868C36.3267 7.12998 34.7738 5.57715 32.8651 5.57715H15.7882C13.8795 5.57715 12.3267 7.12998 12.3267 9.03868V21.9617C12.3267 23.8704 13.8795 25.4233 15.7882 25.4233H32.8651C34.7738 25.4233 36.3267 23.8704 36.3267 21.9617V18.9617H29.8651C27.9564 18.9617 26.4036 17.4089 26.4036 15.5002C26.4036 13.5915 27.9564 12.0387 29.8651 12.0387Z" fill="#979EFE"/>
<path d="M29.865 13.4229C28.7198 13.4229 27.7881 14.3545 27.7881 15.4998C27.7881 16.645 28.7198 17.5767 29.865 17.5767H36.3266V13.4229H29.865V13.4229ZM30.7881 16.1921H29.865C29.4827 16.1921 29.1727 15.8821 29.1727 15.4998C29.1727 15.1175 29.4827 14.8075 29.865 14.8075H30.7881C31.1704 14.8075 31.4804 15.1175 31.4804 15.4998C31.4804 15.8821 31.1704 16.1921 30.7881 16.1921Z" fill="#979EFE"/>
</g>
<defs>
<clipPath id="clip0">
<rect width="24" height="24" fill="white" transform="translate(12.3267 3.5)"/>
</clipPath>
</defs>
</svg>
