<svg width="25" height="25" viewBox="0 0 25 25" fill="none" xmlns="http://www.w3.org/2000/svg">
<g clip-path="url(#clip0)">
<path d="M23.2895 15.176C23.2885 15.175 23.2865 15.174 23.2855 15.172L21.7475 13.759C21.7995 13.333 21.8265 12.911 21.8265 12.5C21.8265 12.089 21.7995 11.667 21.7475 11.241L23.2895 9.824C23.7985 9.345 23.9145 8.585 23.5695 7.969L21.8725 5.035C21.5325 4.43 20.7935 4.142 20.1165 4.353L18.1205 4.983C17.4435 4.456 16.7135 4.032 15.9455 3.72L15.4845 1.671C15.3335 0.993 14.7205 0.5 14.0265 0.5H10.6265C9.93252 0.5 9.31952 0.993 9.16852 1.67L8.70752 3.72C7.93952 4.032 7.20952 4.456 6.53252 4.983L4.53452 4.353C3.86152 4.144 3.12052 4.429 2.78452 5.029L1.08052 7.975C0.73852 8.585 0.85452 9.345 1.36852 9.828L2.90652 11.241C2.85352 11.667 2.82652 12.089 2.82652 12.5C2.82652 12.911 2.85352 13.333 2.90552 13.759L1.36352 15.176C0.85452 15.655 0.73852 16.415 1.08352 17.03L2.78052 19.964C3.12052 20.57 3.85852 20.857 4.53652 20.647L6.53252 20.017C7.20952 20.544 7.93952 20.968 8.70752 21.28L9.16852 23.328C9.31952 24.007 9.93252 24.5 10.6265 24.5H14.0265C14.7205 24.5 15.3335 24.007 15.4845 23.33L15.9455 21.28C16.7135 20.968 17.4435 20.545 18.1205 20.017L20.1185 20.647C20.7935 20.858 21.5325 20.57 21.8695 19.97L23.5735 17.024C23.9145 16.415 23.7985 15.655 23.2895 15.176ZM12.3265 17.5C9.56952 17.5 7.32652 15.257 7.32652 12.5C7.32652 9.743 9.56952 7.5 12.3265 7.5C15.0835 7.5 17.3265 9.743 17.3265 12.5C17.3265 15.257 15.0835 17.5 12.3265 17.5Z" fill="#979EFE"/>
</g>
<defs>
<clipPath id="clip0">
<rect width="24" height="24" fill="white" transform="translate(0.32666 0.5)"/>
</clipPath>
</defs>
</svg>
