<svg width="25" height="25" viewBox="0 0 25 25" fill="none" xmlns="http://www.w3.org/2000/svg">
<g clip-path="url(#clip0)">
<path d="M7.26349 14.2759C7.96605 14.2759 8.64515 14.2306 9.28776 14.1461V7.10245C8.64521 7.01804 7.96605 6.97266 7.26349 6.97266C3.25198 6.97266 0 8.44757 0 10.267V10.9815C0 12.8009 3.25198 14.2759 7.26349 14.2759Z" fill="#979EFE"/>
<path d="M7.26349 17.9541C7.96605 17.9541 8.64515 17.9087 9.28776 17.8243V15.7597C8.64502 15.8441 7.96624 15.8901 7.26349 15.8901C3.76188 15.8901 0.839266 14.7663 0.152764 13.2705C0.0527887 13.4884 0 13.714 0 13.9452V14.6597C0 16.4792 3.25198 17.9541 7.26349 17.9541Z" fill="#979EFE"/>
<path d="M9.28776 19.5984V19.438C8.64502 19.5224 7.96624 19.5684 7.26349 19.5684C3.76188 19.5684 0.839266 18.4445 0.152764 16.9487C0.0527887 17.1665 0 17.3921 0 17.6234V18.3379C0 20.1574 3.25198 21.6323 7.26349 21.6323C8.06572 21.6323 8.83732 21.5732 9.55887 21.4642C9.38002 21.0984 9.28776 20.7125 9.28776 20.3128V19.5984Z" fill="#979EFE"/>
<path d="M17.7371 1.39307C13.7256 1.39307 10.4736 2.86798 10.4736 4.68745V5.4019C10.4736 7.22137 13.7256 8.69629 17.7371 8.69629C21.7486 8.69629 25.0006 7.22137 25.0006 5.4019V4.68745C25.0006 2.86798 21.7486 1.39307 17.7371 1.39307Z" fill="#979EFE"/>
<path d="M17.7371 10.3101C14.2355 10.3101 11.3129 9.18626 10.6264 7.69043C10.5264 7.90825 10.4736 8.13384 10.4736 8.36517V9.07962C10.4736 10.8991 13.7256 12.374 17.7371 12.374C21.7486 12.374 25.0006 10.8991 25.0006 9.07962V8.36517C25.0006 8.13384 24.9478 7.90825 24.8478 7.69043C24.1613 9.18626 21.2387 10.3101 17.7371 10.3101Z" fill="#979EFE"/>
<path d="M17.7371 13.9888C14.2355 13.9888 11.3129 12.8649 10.6264 11.3691C10.5264 11.587 10.4736 11.8126 10.4736 12.0439V12.7583C10.4736 14.5779 13.7256 16.0528 17.7371 16.0528C21.7486 16.0528 25.0006 14.5779 25.0006 12.7583V12.0439C25.0006 11.8126 24.9478 11.587 24.8478 11.3691C24.1613 12.865 21.2387 13.9888 17.7371 13.9888Z" fill="#979EFE"/>
<path d="M17.7371 17.8648C14.2355 17.8648 11.3129 16.7409 10.6264 15.2451C10.5264 15.463 10.4736 15.6885 10.4736 15.9198V16.6343C10.4736 18.4538 13.7256 19.9287 17.7371 19.9287C21.7486 19.9287 25.0006 18.4538 25.0006 16.6343V15.9198C25.0006 15.6885 24.9478 15.4629 24.8478 15.2451C24.1613 16.7408 21.2387 17.8648 17.7371 17.8648Z" fill="#979EFE"/>
<path d="M17.7371 21.543C14.2355 21.543 11.3129 20.4192 10.6264 18.9234C10.5264 19.1413 10.4736 19.3669 10.4736 19.5981V20.3125C10.4736 22.132 13.7256 23.6069 17.7371 23.6069C21.7486 23.6069 25.0006 22.132 25.0006 20.3125V19.598C25.0006 19.3668 24.9478 19.1411 24.8478 18.9233C24.1613 20.4191 21.2387 21.543 17.7371 21.543Z" fill="#979EFE"/>
</g>
<defs>
<clipPath id="clip0">
<rect width="25" height="25" fill="white"/>
</clipPath>
</defs>
</svg>
